G04 #@! TF.FileFunction,Legend,Bot*
%FSLAX46Y46*%
G04 Gerber Fmt 4.6, Leading zero omitted, Abs format (unit mm)*
G04 Created by KiCad (PCBNEW (2015-10-05 BZR 6247)-product) date Sun 11 Oct 2015 07:31:11 PM AWST*
%MOMM*%
G01*
G04 APERTURE LIST*
%ADD10C,0.100000*%
%ADD11C,0.150000*%
%ADD12C,0.152400*%
G04 APERTURE END LIST*
D10*
D11*
X199390000Y-83820000D02*
X199390000Y-88900000D01*
X199390000Y-88900000D02*
X201930000Y-88900000D01*
X201930000Y-88900000D02*
X201930000Y-83820000D01*
X201930000Y-83820000D02*
X199390000Y-83820000D01*
X200660000Y-83820000D02*
X200660000Y-82550000D01*
X200660000Y-88900000D02*
X200660000Y-90170000D01*
D12*
X175845000Y-79772000D02*
X175845000Y-95772000D01*
X175845000Y-95772000D02*
X181245000Y-95772000D01*
X175845000Y-79772000D02*
X181245000Y-79772000D01*
X197045000Y-79772000D02*
X197845000Y-79772000D01*
X197845000Y-79772000D02*
X197845000Y-95772000D01*
X197845000Y-95772000D02*
X197045000Y-95772000D01*
X175845000Y-95772000D02*
X179645000Y-79772000D01*
X175845000Y-79772000D02*
X179645000Y-95772000D01*
X179645000Y-79764000D02*
X179645000Y-95764000D01*
D11*
X197612261Y-86442254D02*
X197136070Y-86108920D01*
X197612261Y-85870825D02*
X196612261Y-85870825D01*
X196612261Y-86251778D01*
X196659880Y-86347016D01*
X196707499Y-86394635D01*
X196802737Y-86442254D01*
X196945594Y-86442254D01*
X197040832Y-86394635D01*
X197088451Y-86347016D01*
X197136070Y-86251778D01*
X197136070Y-85870825D01*
X197612261Y-87394635D02*
X197612261Y-86823206D01*
X197612261Y-87108920D02*
X196612261Y-87108920D01*
X196755118Y-87013682D01*
X196850356Y-86918444D01*
X196897975Y-86823206D01*
X184872381Y-85344095D02*
X185681905Y-85344095D01*
X185777143Y-85391714D01*
X185824762Y-85439333D01*
X185872381Y-85534571D01*
X185872381Y-85725048D01*
X185824762Y-85820286D01*
X185777143Y-85867905D01*
X185681905Y-85915524D01*
X184872381Y-85915524D01*
X184967619Y-86344095D02*
X184920000Y-86391714D01*
X184872381Y-86486952D01*
X184872381Y-86725048D01*
X184920000Y-86820286D01*
X184967619Y-86867905D01*
X185062857Y-86915524D01*
X185158095Y-86915524D01*
X185300952Y-86867905D01*
X185872381Y-86296476D01*
X185872381Y-86915524D01*
X177297381Y-83949714D02*
X176297381Y-83949714D01*
X177297381Y-84521143D01*
X176297381Y-84521143D01*
X177297381Y-85140190D02*
X177249762Y-85044952D01*
X177202143Y-84997333D01*
X177106905Y-84949714D01*
X176821190Y-84949714D01*
X176725952Y-84997333D01*
X176678333Y-85044952D01*
X176630714Y-85140190D01*
X176630714Y-85283048D01*
X176678333Y-85378286D01*
X176725952Y-85425905D01*
X176821190Y-85473524D01*
X177106905Y-85473524D01*
X177202143Y-85425905D01*
X177249762Y-85378286D01*
X177297381Y-85283048D01*
X177297381Y-85140190D01*
X177202143Y-87235429D02*
X177249762Y-87187810D01*
X177297381Y-87044953D01*
X177297381Y-86949715D01*
X177249762Y-86806857D01*
X177154524Y-86711619D01*
X177059286Y-86664000D01*
X176868810Y-86616381D01*
X176725952Y-86616381D01*
X176535476Y-86664000D01*
X176440238Y-86711619D01*
X176345000Y-86806857D01*
X176297381Y-86949715D01*
X176297381Y-87044953D01*
X176345000Y-87187810D01*
X176392619Y-87235429D01*
X177297381Y-87806857D02*
X177249762Y-87711619D01*
X177202143Y-87664000D01*
X177106905Y-87616381D01*
X176821190Y-87616381D01*
X176725952Y-87664000D01*
X176678333Y-87711619D01*
X176630714Y-87806857D01*
X176630714Y-87949715D01*
X176678333Y-88044953D01*
X176725952Y-88092572D01*
X176821190Y-88140191D01*
X177106905Y-88140191D01*
X177202143Y-88092572D01*
X177249762Y-88044953D01*
X177297381Y-87949715D01*
X177297381Y-87806857D01*
X176630714Y-88568762D02*
X177630714Y-88568762D01*
X176678333Y-88568762D02*
X176630714Y-88664000D01*
X176630714Y-88854477D01*
X176678333Y-88949715D01*
X176725952Y-88997334D01*
X176821190Y-89044953D01*
X177106905Y-89044953D01*
X177202143Y-88997334D01*
X177249762Y-88949715D01*
X177297381Y-88854477D01*
X177297381Y-88664000D01*
X177249762Y-88568762D01*
X176630714Y-89473524D02*
X177630714Y-89473524D01*
X176678333Y-89473524D02*
X176630714Y-89568762D01*
X176630714Y-89759239D01*
X176678333Y-89854477D01*
X176725952Y-89902096D01*
X176821190Y-89949715D01*
X177106905Y-89949715D01*
X177202143Y-89902096D01*
X177249762Y-89854477D01*
X177297381Y-89759239D01*
X177297381Y-89568762D01*
X177249762Y-89473524D01*
X177249762Y-90759239D02*
X177297381Y-90664001D01*
X177297381Y-90473524D01*
X177249762Y-90378286D01*
X177154524Y-90330667D01*
X176773571Y-90330667D01*
X176678333Y-90378286D01*
X176630714Y-90473524D01*
X176630714Y-90664001D01*
X176678333Y-90759239D01*
X176773571Y-90806858D01*
X176868810Y-90806858D01*
X176964048Y-90330667D01*
X177297381Y-91235429D02*
X176630714Y-91235429D01*
X176821190Y-91235429D02*
X176725952Y-91283048D01*
X176678333Y-91330667D01*
X176630714Y-91425905D01*
X176630714Y-91521144D01*
M02*
