M48
;DRILL file {KiCad (2015-10-05 BZR 6247)-product} date Sun 11 Oct 2015 07:31:14 PM AWST
;FORMAT={-:-/ absolute / inch / decimal}
FMAT,2
INCH,TZ
T1C0.016
T2C0.026
T3C0.031
T4C0.039
T5C0.040
T6C0.050
T7C0.120
%
G90
G05
M72
T1
X6.405Y-3.68
X6.5759Y-3.7461
X6.6465Y-5.5905
X6.77Y-3.43
X6.835Y-2.98
X6.8908Y-3.6839
X6.96Y-3.105
X6.965Y-3.02
X7.07Y-2.99
X7.13Y-3.05
X7.53Y-2.99
X7.64Y-3.49
X7.66Y-3.41
X7.795Y-3.05
X7.805Y-3.535
X7.925Y-3.05
X7.935Y-3.535
X7.9989Y-3.4702
X8.077Y-3.8753
X8.1066Y-3.8235
T2
X7.175Y-3.18
X7.175Y-3.7312
X7.2537Y-3.18
X7.2537Y-3.7312
X7.3325Y-3.18
X7.3325Y-3.7312
X7.4112Y-3.18
X7.4112Y-3.7312
X7.49Y-3.18
X7.49Y-3.7312
X7.5687Y-3.18
X7.5687Y-3.7312
X7.6474Y-3.18
X7.6474Y-3.7312
X7.7262Y-3.18
X7.7262Y-3.7312
T3
X6.08Y-3.25
X6.08Y-3.55
X6.18Y-3.25
X6.18Y-3.55
X6.28Y-3.25
X6.28Y-3.55
X6.38Y-3.25
X6.38Y-3.55
X6.48Y-3.25
X6.48Y-3.55
X6.58Y-3.25
X6.58Y-3.55
X6.68Y-3.25
X6.68Y-3.55
X6.78Y-3.25
X6.78Y-3.55
X8.1Y-3.25
X8.1Y-3.55
X8.2Y-3.25
X8.2Y-3.55
X8.3Y-3.25
X8.3Y-3.55
X8.4Y-3.25
X8.4Y-3.55
X8.5Y-3.25
X8.5Y-3.55
X8.6Y-3.25
X8.6Y-3.55
X8.7Y-3.25
X8.7Y-3.55
X8.8Y-3.25
X8.8Y-3.55
T4
X6.025Y-5.5
X6.025Y-5.9
X6.175Y-5.5
X6.175Y-5.9
X6.325Y-5.5
X6.325Y-5.9
X6.475Y-5.5
X6.475Y-5.9
X6.625Y-5.5
X6.625Y-5.9
X6.775Y-5.5
X6.775Y-5.9
X6.9Y-3.75
X6.9Y-3.85
X6.9Y-4.
X6.9Y-4.1
X6.9Y-4.25
X6.9Y-4.35
X6.9Y-4.5
X6.9Y-4.6
X6.9Y-4.75
X6.9Y-4.85
X6.9Y-5.
X6.9Y-5.1
X6.9Y-5.25
X6.9Y-5.35
X6.925Y-5.5
X6.925Y-5.9
X6.975Y-3.4499
X7.375Y-3.3251
X7.5Y-3.3249
X7.9Y-3.2
X7.9Y-3.4501
X7.9Y-3.6
X7.975Y-5.525
X7.975Y-5.925
X8.Y-3.75
X8.Y-3.85
X8.Y-4.
X8.Y-4.1
X8.Y-4.25
X8.Y-4.35
X8.Y-4.5
X8.Y-4.6
X8.Y-4.75
X8.Y-4.85
X8.Y-5.
X8.Y-5.1
X8.Y-5.25
X8.Y-5.35
X8.125Y-5.525
X8.125Y-5.925
X8.275Y-5.525
X8.275Y-5.925
X8.425Y-5.525
X8.425Y-5.925
X8.575Y-5.525
X8.575Y-5.925
X8.725Y-5.525
X8.725Y-5.925
X8.875Y-5.525
X8.875Y-5.925
T5
X5.8Y-3.95
X5.8Y-4.05
X5.8Y-4.15
X5.8Y-4.25
X5.8Y-4.35
X5.8Y-4.45
X5.8Y-4.55
X5.8Y-4.65
X5.8Y-4.75
X5.8Y-4.85
X5.8Y-4.95
X5.8Y-5.05
X5.8Y-5.15
X5.8Y-5.25
X6.05Y-3.8
X6.05Y-4.05
X6.05Y-4.3
X6.05Y-4.55
X6.05Y-4.8
X6.05Y-5.05
X6.05Y-5.3
X6.25Y-3.8
X6.25Y-4.05
X6.25Y-4.3
X6.25Y-4.55
X6.25Y-4.8
X6.25Y-5.05
X6.25Y-5.3
X6.375Y-3.075
X6.45Y-3.8
X6.45Y-4.05
X6.45Y-4.3
X6.45Y-4.55
X6.45Y-4.8
X6.45Y-5.05
X6.45Y-5.3
X6.475Y-3.075
X6.575Y-3.075
X6.65Y-3.8
X6.65Y-4.05
X6.65Y-4.3
X6.65Y-4.55
X6.65Y-4.8
X6.65Y-5.05
X6.65Y-5.3
X6.675Y-3.075
X7.1Y-3.8
X7.1Y-3.9
X7.1Y-4.
X7.1Y-4.1
X7.1Y-4.2
X7.1Y-4.3
X7.1Y-4.4
X7.1Y-4.5
X7.1Y-4.6
X7.1Y-4.7
X7.1Y-4.8
X7.1Y-4.9
X7.1Y-5.
X7.1Y-5.1
X7.1Y-5.2
X7.1Y-5.3
X7.1Y-5.4
X7.1Y-5.5
X7.1Y-5.6
X7.1Y-5.7
X7.3Y-5.825
X7.3Y-5.925
X7.4Y-3.05
X7.4Y-5.825
X7.4Y-5.925
X7.5Y-3.05
X7.5Y-5.825
X7.5Y-5.925
X7.6Y-5.825
X7.6Y-5.925
X7.8Y-3.8
X7.8Y-3.9
X7.8Y-4.
X7.8Y-4.1
X7.8Y-4.2
X7.8Y-4.3
X7.8Y-4.4
X7.8Y-4.5
X7.8Y-4.6
X7.8Y-4.7
X7.8Y-4.8
X7.8Y-4.9
X7.8Y-5.
X7.8Y-5.1
X7.8Y-5.2
X7.8Y-5.3
X7.8Y-5.4
X7.8Y-5.5
X7.8Y-5.6
X7.8Y-5.7
X8.25Y-3.8
X8.25Y-4.05
X8.25Y-4.3
X8.25Y-4.55
X8.25Y-4.8
X8.25Y-5.05
X8.25Y-5.3
X8.45Y-3.8
X8.45Y-4.05
X8.45Y-4.3
X8.45Y-4.55
X8.45Y-4.8
X8.45Y-5.05
X8.45Y-5.3
X8.65Y-3.8
X8.65Y-4.05
X8.65Y-4.3
X8.65Y-4.55
X8.65Y-4.8
X8.65Y-5.05
X8.65Y-5.3
X8.85Y-3.8
X8.85Y-4.05
X8.85Y-4.3
X8.85Y-4.55
X8.85Y-4.8
X8.85Y-5.05
X8.85Y-5.3
X9.1Y-3.95
X9.1Y-4.05
X9.1Y-4.15
X9.1Y-4.25
X9.1Y-4.35
X9.1Y-4.45
X9.1Y-4.55
X9.1Y-4.65
X9.1Y-4.75
X9.1Y-4.85
X9.1Y-4.95
X9.1Y-5.05
X9.1Y-5.15
X9.1Y-5.25
T6
X6.975Y-3.3251
X7.375Y-3.4499
X7.5Y-3.4501
X7.9Y-3.3249
T7
X5.85Y-3.1
X5.85Y-5.85
X9.05Y-3.1
X9.05Y-5.85
T0
M30
