G04 #@! TF.FileFunction,Copper,L1,Top,Signal*
%FSLAX46Y46*%
G04 Gerber Fmt 4.6, Leading zero omitted, Abs format (unit mm)*
G04 Created by KiCad (PCBNEW (2016-01-13 BZR 6465, Git 5af18e5)-product) date Wed 03 Feb 2016 11:32:38 AWST*
%MOMM*%
G01*
G04 APERTURE LIST*
%ADD10C,0.100000*%
%ADD11C,2.400000*%
%ADD12R,2.400000X2.400000*%
%ADD13C,1.998980*%
%ADD14R,1.998980X1.998980*%
%ADD15C,4.064000*%
%ADD16R,1.727200X1.727200*%
%ADD17O,1.727200X1.727200*%
%ADD18R,2.000000X2.000000*%
%ADD19C,2.000000*%
%ADD20R,2.032000X2.032000*%
%ADD21O,2.032000X2.032000*%
%ADD22R,1.727200X2.032000*%
%ADD23O,1.727200X2.032000*%
%ADD24O,1.600000X2.300000*%
%ADD25R,2.500000X2.500000*%
%ADD26O,2.500000X2.500000*%
%ADD27R,1.100000X2.500000*%
%ADD28O,1.100000X2.500000*%
%ADD29R,1.300000X1.300000*%
%ADD30C,1.300000*%
%ADD31O,3.800000X8.000000*%
%ADD32C,0.600000*%
%ADD33C,0.400000*%
%ADD34C,0.300000*%
%ADD35C,0.250000*%
G04 APERTURE END LIST*
D10*
D11*
X231140000Y-121651000D03*
X231140000Y-125151000D03*
X231140000Y-118151000D03*
X231140000Y-114651000D03*
X231140000Y-111151000D03*
X231140000Y-107651000D03*
D12*
X231140000Y-128651000D03*
D11*
X231140000Y-104151000D03*
D13*
X213233000Y-77594460D03*
D14*
X203073000Y-77594460D03*
D13*
X225933000Y-77594460D03*
D14*
X215773000Y-77594460D03*
D13*
X227459540Y-93472000D03*
D14*
X227459540Y-83312000D03*
D13*
X230502460Y-83185000D03*
D14*
X230502460Y-93345000D03*
D15*
X148590000Y-78740000D03*
X148590000Y-148590000D03*
X229870000Y-148590000D03*
D16*
X180340000Y-96520000D03*
D17*
X198120000Y-96520000D03*
X180340000Y-99060000D03*
X198120000Y-99060000D03*
X180340000Y-101600000D03*
X198120000Y-101600000D03*
X180340000Y-104140000D03*
X198120000Y-104140000D03*
X180340000Y-106680000D03*
X198120000Y-106680000D03*
X180340000Y-109220000D03*
X198120000Y-109220000D03*
X180340000Y-111760000D03*
X198120000Y-111760000D03*
X180340000Y-114300000D03*
X198120000Y-114300000D03*
X180340000Y-116840000D03*
X198120000Y-116840000D03*
X180340000Y-119380000D03*
X198120000Y-119380000D03*
X180340000Y-121920000D03*
X198120000Y-121920000D03*
X180340000Y-124460000D03*
X198120000Y-124460000D03*
X180340000Y-127000000D03*
X198120000Y-127000000D03*
X180340000Y-129540000D03*
X198120000Y-129540000D03*
X180340000Y-132080000D03*
X198120000Y-132080000D03*
X180340000Y-134620000D03*
X198120000Y-134620000D03*
X180340000Y-137160000D03*
X198120000Y-137160000D03*
X180340000Y-139700000D03*
X198120000Y-139700000D03*
X180340000Y-142240000D03*
X198120000Y-142240000D03*
X180340000Y-144780000D03*
X198120000Y-144780000D03*
D18*
X203200000Y-135890000D03*
D19*
X203200000Y-133350000D03*
D18*
X203200000Y-129540000D03*
D19*
X203200000Y-127000000D03*
D18*
X203200000Y-123190000D03*
D19*
X203200000Y-120650000D03*
D18*
X203200000Y-116840000D03*
D19*
X203200000Y-114300000D03*
D18*
X203200000Y-110490000D03*
D19*
X203200000Y-107950000D03*
D18*
X203200000Y-104140000D03*
D19*
X203200000Y-101600000D03*
D18*
X203200000Y-97790000D03*
D19*
X203200000Y-95250000D03*
D18*
X175260000Y-135890000D03*
D19*
X175260000Y-133350000D03*
D18*
X175260000Y-129540000D03*
D19*
X175260000Y-127000000D03*
D18*
X175260000Y-123190000D03*
D19*
X175260000Y-120650000D03*
D18*
X175260000Y-116840000D03*
D19*
X175260000Y-114300000D03*
D18*
X175260000Y-110490000D03*
D19*
X175260000Y-107950000D03*
D18*
X175260000Y-104140000D03*
D19*
X175260000Y-101600000D03*
D18*
X175260000Y-97790000D03*
D19*
X175260000Y-95250000D03*
D20*
X190500000Y-77216000D03*
D21*
X187960000Y-77216000D03*
D16*
X185420000Y-150495000D03*
D17*
X185420000Y-147955000D03*
X187960000Y-150495000D03*
X187960000Y-147955000D03*
X190500000Y-150495000D03*
X190500000Y-147955000D03*
X193040000Y-150495000D03*
X193040000Y-147955000D03*
D22*
X161925000Y-78105000D03*
D23*
X164465000Y-78105000D03*
X167005000Y-78105000D03*
X169545000Y-78105000D03*
D13*
X200660000Y-81280000D03*
X200660000Y-91440000D03*
X225425000Y-140335000D03*
X225425000Y-150495000D03*
X221615000Y-140335000D03*
X221615000Y-150495000D03*
X217805000Y-140335000D03*
X217805000Y-150495000D03*
X213995000Y-140335000D03*
X213995000Y-150495000D03*
X210185000Y-140335000D03*
X210185000Y-150495000D03*
X206375000Y-140335000D03*
X206375000Y-150495000D03*
X202565000Y-140335000D03*
X202565000Y-150495000D03*
X153035000Y-139700000D03*
X153035000Y-149860000D03*
X156845000Y-139700000D03*
X156845000Y-149860000D03*
X160655000Y-139700000D03*
X160655000Y-149860000D03*
X164465000Y-139700000D03*
X164465000Y-149860000D03*
X168275000Y-139700000D03*
X168275000Y-149860000D03*
X172085000Y-139700000D03*
X172085000Y-149860000D03*
X175895000Y-139700000D03*
X175895000Y-149860000D03*
D24*
X154432000Y-90170000D03*
X156972000Y-90170000D03*
X159512000Y-90170000D03*
X162052000Y-90170000D03*
X164592000Y-90170000D03*
X167132000Y-90170000D03*
X169672000Y-90170000D03*
X172212000Y-90170000D03*
X172212000Y-82550000D03*
X169672000Y-82550000D03*
X167132000Y-82550000D03*
X164592000Y-82550000D03*
X162052000Y-82550000D03*
X159512000Y-82550000D03*
X156972000Y-82550000D03*
X154432000Y-82550000D03*
X205740000Y-90170000D03*
X208280000Y-90170000D03*
X210820000Y-90170000D03*
X213360000Y-90170000D03*
X215900000Y-90170000D03*
X218440000Y-90170000D03*
X220980000Y-90170000D03*
X223520000Y-90170000D03*
X223520000Y-82550000D03*
X220980000Y-82550000D03*
X218440000Y-82550000D03*
X215900000Y-82550000D03*
X213360000Y-82550000D03*
X210820000Y-82550000D03*
X208280000Y-82550000D03*
X205740000Y-82550000D03*
D25*
X224790000Y-109220000D03*
D26*
X219710000Y-109220000D03*
X214630000Y-109220000D03*
X209550000Y-109220000D03*
D25*
X153670000Y-102870000D03*
D26*
X158750000Y-102870000D03*
X163830000Y-102870000D03*
X168910000Y-102870000D03*
D25*
X153670000Y-96520000D03*
D26*
X158750000Y-96520000D03*
X163830000Y-96520000D03*
X168910000Y-96520000D03*
D25*
X224790000Y-134620000D03*
D26*
X219710000Y-134620000D03*
X214630000Y-134620000D03*
X209550000Y-134620000D03*
D25*
X224790000Y-102870000D03*
D26*
X219710000Y-102870000D03*
X214630000Y-102870000D03*
X209550000Y-102870000D03*
D25*
X224790000Y-128270000D03*
D26*
X219710000Y-128270000D03*
X214630000Y-128270000D03*
X209550000Y-128270000D03*
D25*
X224790000Y-121920000D03*
D26*
X219710000Y-121920000D03*
X214630000Y-121920000D03*
X209550000Y-121920000D03*
D25*
X224790000Y-115570000D03*
D26*
X219710000Y-115570000D03*
X214630000Y-115570000D03*
X209550000Y-115570000D03*
D25*
X153670000Y-134620000D03*
D26*
X158750000Y-134620000D03*
X163830000Y-134620000D03*
X168910000Y-134620000D03*
D25*
X153670000Y-128270000D03*
D26*
X158750000Y-128270000D03*
X163830000Y-128270000D03*
X168910000Y-128270000D03*
D25*
X153670000Y-121920000D03*
D26*
X158750000Y-121920000D03*
X163830000Y-121920000D03*
X168910000Y-121920000D03*
D25*
X153670000Y-115570000D03*
D26*
X158750000Y-115570000D03*
X163830000Y-115570000D03*
X168910000Y-115570000D03*
D25*
X153670000Y-109220000D03*
D26*
X158750000Y-109220000D03*
X163830000Y-109220000D03*
X168910000Y-109220000D03*
D25*
X224790000Y-96520000D03*
D26*
X219710000Y-96520000D03*
X214630000Y-96520000D03*
X209550000Y-96520000D03*
D27*
X182245000Y-80072000D03*
D28*
X184245000Y-80072000D03*
X186245000Y-80072000D03*
X188245000Y-80072000D03*
X190245000Y-80072000D03*
X192245000Y-80072000D03*
X194245000Y-80072000D03*
X196245000Y-80072000D03*
X196245000Y-95472000D03*
X194245000Y-95372000D03*
X192245000Y-95472000D03*
X190245000Y-95472000D03*
X188245000Y-95472000D03*
X186245000Y-95472000D03*
X184245000Y-95472000D03*
X182245000Y-95472000D03*
D15*
X229870000Y-78740000D03*
D11*
X147320000Y-111140000D03*
X147320000Y-107640000D03*
X147320000Y-114640000D03*
X147320000Y-118140000D03*
X147320000Y-121640000D03*
X147320000Y-125140000D03*
D12*
X147320000Y-104140000D03*
D11*
X147320000Y-128640000D03*
D29*
X173863000Y-77470000D03*
D30*
X173863000Y-79470000D03*
D29*
X157226000Y-77724000D03*
D30*
X157226000Y-79724000D03*
D31*
X147955000Y-95963000D03*
X147955000Y-86663000D03*
D16*
X184785000Y-92329000D03*
D17*
X184785000Y-89789000D03*
X187325000Y-92329000D03*
X187325000Y-89789000D03*
X189865000Y-92329000D03*
X189865000Y-89789000D03*
D16*
X192405000Y-92329000D03*
D17*
X192405000Y-89789000D03*
D32*
X193040000Y-75946000D03*
X179832000Y-76708000D03*
X168656000Y-143383000D03*
X204978000Y-142748000D03*
X176911000Y-76708000D03*
X181102000Y-77470000D03*
X189255400Y-97777300D03*
X201168000Y-143764000D03*
X203708000Y-146304000D03*
X208915000Y-142875000D03*
X200533000Y-87122000D03*
X171958000Y-87122000D03*
X173990000Y-84455000D03*
X153162000Y-85090000D03*
X194945000Y-83185000D03*
X197358000Y-82550000D03*
X232283000Y-81534000D03*
X162687000Y-93472000D03*
X168820000Y-141999000D03*
X175027200Y-93569800D03*
X167027300Y-95150200D03*
X194564000Y-86614000D03*
X192366900Y-87782400D03*
X203172000Y-88142400D03*
X205157000Y-98432700D03*
X205907000Y-97116400D03*
X185293000Y-100457000D03*
X182118000Y-106680000D03*
D33*
X173863000Y-77470000D02*
X175641000Y-77470000D01*
X178435000Y-76708000D02*
X179832000Y-76708000D01*
X177419000Y-77724000D02*
X178435000Y-76708000D01*
X175895000Y-77724000D02*
X177419000Y-77724000D01*
X175641000Y-77470000D02*
X175895000Y-77724000D01*
X169545000Y-78105000D02*
X173228000Y-78105000D01*
X173228000Y-78105000D02*
X173863000Y-77470000D01*
X193167000Y-75819000D02*
X193040000Y-75946000D01*
X219969080Y-75819000D02*
X193167000Y-75819000D01*
X221744540Y-77594460D02*
X219969080Y-75819000D01*
X225933000Y-77594460D02*
X221744540Y-77594460D01*
X169799000Y-78359000D02*
X169545000Y-78105000D01*
X229362000Y-81280000D02*
X229108000Y-81280000D01*
X228727000Y-80899000D02*
X228473000Y-80899000D01*
X229108000Y-81280000D02*
X228727000Y-80899000D01*
X230502460Y-83185000D02*
X230502460Y-81536540D01*
X228473000Y-80899000D02*
X225933000Y-78359000D01*
X230245920Y-81280000D02*
X229362000Y-81280000D01*
X230502460Y-81536540D02*
X230245920Y-81280000D01*
X225933000Y-78359000D02*
X225933000Y-77594460D01*
X230502460Y-83185000D02*
X230502460Y-83182460D01*
X169545000Y-78105000D02*
X167005000Y-78105000D01*
X175641000Y-76581000D02*
X175040998Y-76581000D01*
X171103998Y-76292002D02*
X170815000Y-76581000D01*
X174752000Y-76292002D02*
X171103998Y-76292002D01*
X175040998Y-76581000D02*
X174752000Y-76292002D01*
X230502460Y-93345000D02*
X230502460Y-86103460D01*
X208280000Y-96520000D02*
X209550000Y-96520000D01*
X199517000Y-87757000D02*
X208280000Y-96520000D01*
X199517000Y-85598000D02*
X199517000Y-87757000D01*
X205740000Y-79375000D02*
X199517000Y-85598000D01*
X224663000Y-79375000D02*
X205740000Y-79375000D01*
X226949000Y-81661000D02*
X224663000Y-79375000D01*
X228600000Y-81661000D02*
X226949000Y-81661000D01*
X228981000Y-82042000D02*
X228600000Y-81661000D01*
X228981000Y-84582000D02*
X228981000Y-82042000D01*
X230502460Y-86103460D02*
X228981000Y-84582000D01*
X170307000Y-145034000D02*
X168656000Y-143383000D01*
X170307000Y-150876000D02*
X170307000Y-145034000D01*
X171323000Y-151892000D02*
X170307000Y-150876000D01*
X195834000Y-151892000D02*
X171323000Y-151892000D01*
X204978000Y-142748000D02*
X195834000Y-151892000D01*
X176403000Y-76708000D02*
X176276000Y-76581000D01*
X181102000Y-77470000D02*
X180975000Y-77470000D01*
X209550000Y-96520000D02*
X209169000Y-96520000D01*
X168910000Y-102870000D02*
X168910000Y-96520000D01*
X168910000Y-109220000D02*
X168910000Y-102870000D01*
X168910000Y-115570000D02*
X168910000Y-109220000D01*
X168910000Y-121920000D02*
X168910000Y-115570000D01*
X168910000Y-128270000D02*
X168910000Y-121920000D01*
X168910000Y-134620000D02*
X168910000Y-128270000D01*
X209550000Y-102870000D02*
X209550000Y-96520000D01*
X209550000Y-109220000D02*
X209550000Y-102870000D01*
X209550000Y-115570000D02*
X209550000Y-109220000D01*
X209550000Y-121920000D02*
X209550000Y-115570000D01*
X209550000Y-128270000D02*
X209550000Y-121920000D01*
X209550000Y-134620000D02*
X209550000Y-128270000D01*
X175641000Y-76581000D02*
X176276000Y-76581000D01*
X176784000Y-76581000D02*
X176911000Y-76708000D01*
X176276000Y-76581000D02*
X176784000Y-76581000D01*
X156210000Y-76581000D02*
X170815000Y-76581000D01*
X168910000Y-96520000D02*
X168910000Y-94996000D01*
X168910000Y-94996000D02*
X168275000Y-94361000D01*
X168275000Y-94361000D02*
X151384000Y-94361000D01*
X151384000Y-94361000D02*
X150368000Y-93345000D01*
X150368000Y-93345000D02*
X150368000Y-82423000D01*
X150368000Y-82423000D02*
X156210000Y-76581000D01*
X175641000Y-76581000D02*
X176276000Y-76581000D01*
X176911000Y-76708000D02*
X176403000Y-76708000D01*
X176403000Y-76708000D02*
X176276000Y-76581000D01*
X187960000Y-77470000D02*
X181102000Y-77470000D01*
X181102000Y-77470000D02*
X180975000Y-77470000D01*
D34*
X194245000Y-94772000D02*
X194245000Y-97296200D01*
X193763900Y-97777300D02*
X189255400Y-97777300D01*
X194245000Y-97296200D02*
X193763900Y-97777300D01*
X194245000Y-94772000D02*
X194245000Y-94169000D01*
X194245000Y-94169000D02*
X192405000Y-92329000D01*
D33*
X199644000Y-142240000D02*
X198120000Y-142240000D01*
X201168000Y-143764000D02*
X199644000Y-142240000D01*
X205486000Y-146304000D02*
X203708000Y-146304000D01*
X208915000Y-142875000D02*
X205486000Y-146304000D01*
X223520000Y-90170000D02*
X223520000Y-90043000D01*
X223520000Y-90043000D02*
X220472000Y-86995000D01*
X200660000Y-86995000D02*
X200533000Y-87122000D01*
X220472000Y-86995000D02*
X200660000Y-86995000D01*
D34*
X164465000Y-78105000D02*
X164465000Y-79121000D01*
X164465000Y-79121000D02*
X165608000Y-80264000D01*
X165608000Y-80264000D02*
X172974000Y-80264000D01*
X172974000Y-80264000D02*
X175006000Y-82296000D01*
X175006000Y-82296000D02*
X175006000Y-87627460D01*
X172463460Y-87627460D02*
X175006000Y-87627460D01*
X171958000Y-87122000D02*
X172463460Y-87627460D01*
X194945000Y-150495000D02*
X193040000Y-150495000D01*
X199644000Y-145796000D02*
X194945000Y-150495000D01*
X199644000Y-144018000D02*
X199644000Y-145796000D01*
X198120000Y-142494000D02*
X199644000Y-144018000D01*
X198120000Y-142240000D02*
X198120000Y-142494000D01*
X196850000Y-146050000D02*
X196850000Y-145868000D01*
X193040000Y-149860000D02*
X196850000Y-146050000D01*
X193040000Y-150495000D02*
X193040000Y-149860000D01*
X196850000Y-143510000D02*
X198120000Y-142240000D01*
X196850000Y-145868000D02*
X196850000Y-143510000D01*
D35*
X202722000Y-94772000D02*
X203200000Y-95250000D01*
X196245000Y-94772000D02*
X202722000Y-94772000D01*
X176585000Y-121975000D02*
X175260000Y-120650000D01*
X176585000Y-125675000D02*
X176585000Y-121975000D01*
X175260000Y-127000000D02*
X176585000Y-125675000D01*
X199309000Y-137241000D02*
X203200000Y-133350000D01*
X199309000Y-140234000D02*
X199309000Y-137241000D01*
X198492000Y-141051000D02*
X199309000Y-140234000D01*
X198120000Y-141051000D02*
X198492000Y-141051000D01*
X198120000Y-142240000D02*
X198120000Y-141051000D01*
X196931000Y-145787000D02*
X196850000Y-145868000D01*
X196931000Y-144246000D02*
X196931000Y-145787000D01*
X197748000Y-143429000D02*
X196931000Y-144246000D01*
X198120000Y-143429000D02*
X197748000Y-143429000D01*
X198120000Y-142240000D02*
X198120000Y-143429000D01*
X193040000Y-149306000D02*
X193040000Y-150495000D01*
X193412000Y-149306000D02*
X193040000Y-149306000D01*
X196850000Y-145868000D02*
X193412000Y-149306000D01*
D33*
X173101000Y-85344000D02*
X173990000Y-84455000D01*
X153416000Y-85344000D02*
X173101000Y-85344000D01*
X153162000Y-85090000D02*
X153416000Y-85344000D01*
X196723000Y-83185000D02*
X194945000Y-83185000D01*
X197358000Y-82550000D02*
X196723000Y-83185000D01*
X149542500Y-81851500D02*
X149542500Y-85075500D01*
X149542500Y-85075500D02*
X147955000Y-86663000D01*
X147955000Y-95963000D02*
X147955000Y-98298000D01*
X147955000Y-98298000D02*
X145542000Y-100711000D01*
X232918000Y-83566000D02*
X232918000Y-82169000D01*
X232918000Y-82169000D02*
X232283000Y-81534000D01*
X231140000Y-128651000D02*
X231140000Y-128524000D01*
X231140000Y-128524000D02*
X232918000Y-126746000D01*
X232918000Y-126746000D02*
X232918000Y-91948000D01*
X232918000Y-91948000D02*
X232918000Y-83566000D01*
X147320000Y-128640000D02*
X146420000Y-128640000D01*
X146420000Y-128640000D02*
X145542000Y-127762000D01*
X188722000Y-75692000D02*
X190500000Y-77470000D01*
X155702000Y-75692000D02*
X188722000Y-75692000D01*
X149542500Y-81851500D02*
X155702000Y-75692000D01*
X145542000Y-127762000D02*
X145542000Y-100711000D01*
X215773000Y-77594460D02*
X213233000Y-77594460D01*
X146420000Y-128640000D02*
X145288000Y-127508000D01*
X146420000Y-128640000D02*
X145288000Y-127508000D01*
X190500000Y-77470000D02*
X190500000Y-77216000D01*
D35*
X224073000Y-151847000D02*
X225425000Y-150495000D01*
X221031000Y-151847000D02*
X224073000Y-151847000D01*
X211379000Y-142196000D02*
X221031000Y-151847000D01*
X210109000Y-142196000D02*
X211379000Y-142196000D01*
X204525000Y-136611000D02*
X210109000Y-142196000D01*
X204525000Y-135890000D02*
X204525000Y-136611000D01*
X203200000Y-135890000D02*
X204525000Y-135890000D01*
X203200000Y-131476000D02*
X203200000Y-129540000D01*
X221615000Y-149890000D02*
X203200000Y-131476000D01*
X221615000Y-150495000D02*
X221615000Y-149890000D01*
X154379000Y-151204000D02*
X153035000Y-149860000D01*
X157437000Y-151204000D02*
X154379000Y-151204000D01*
X167499000Y-141142000D02*
X157437000Y-151204000D01*
X168769000Y-141142000D02*
X167499000Y-141142000D01*
X173935000Y-135976000D02*
X168769000Y-141142000D01*
X173935000Y-135890000D02*
X173935000Y-135976000D01*
X175260000Y-135890000D02*
X173935000Y-135890000D01*
X156845000Y-149256000D02*
X156845000Y-149860000D01*
X175236000Y-130865000D02*
X156845000Y-149256000D01*
X175260000Y-130865000D02*
X175236000Y-130865000D01*
X175260000Y-129540000D02*
X175260000Y-130865000D01*
D33*
X147320000Y-125140000D02*
X148000000Y-125140000D01*
X148000000Y-125140000D02*
X150876000Y-128016000D01*
X150876000Y-128016000D02*
X150876000Y-131826000D01*
X150876000Y-131826000D02*
X153670000Y-134620000D01*
X147320000Y-125730000D02*
X147320000Y-125476000D01*
D34*
X153670000Y-139700000D02*
X158750000Y-134620000D01*
X153035000Y-139700000D02*
X153670000Y-139700000D01*
D33*
X161925000Y-78105000D02*
X157607000Y-78105000D01*
X157607000Y-78105000D02*
X157226000Y-77724000D01*
D35*
X161544000Y-77724000D02*
X161925000Y-78105000D01*
D33*
X163830000Y-102870000D02*
X163830000Y-96520000D01*
X163830000Y-109220000D02*
X163830000Y-102870000D01*
X163830000Y-115570000D02*
X163830000Y-109220000D01*
X163830000Y-121920000D02*
X163830000Y-115570000D01*
X163830000Y-128270000D02*
X163830000Y-121920000D01*
X214630000Y-134620000D02*
X214630000Y-128270000D01*
X214630000Y-121920000D02*
X214630000Y-128270000D01*
X214630000Y-115570000D02*
X214630000Y-121920000D01*
X214630000Y-109220000D02*
X214630000Y-115570000D01*
X214630000Y-102870000D02*
X214630000Y-109220000D01*
X163830000Y-134620000D02*
X163830000Y-128270000D01*
D35*
X173596000Y-141999000D02*
X175895000Y-139700000D01*
X168820000Y-141999000D02*
X173596000Y-141999000D01*
X195510000Y-130810000D02*
X198544000Y-130810000D01*
X190430000Y-135890000D02*
X195510000Y-130810000D01*
X179705000Y-135890000D02*
X190430000Y-135890000D01*
X218028000Y-100488000D02*
X214630000Y-100488000D01*
X221712000Y-96803900D02*
X218028000Y-100488000D01*
X221712000Y-95342200D02*
X221712000Y-96803900D01*
X225143000Y-91911100D02*
X221712000Y-95342200D01*
X225143000Y-85647900D02*
X225143000Y-91911100D01*
X223520000Y-84025300D02*
X225143000Y-85647900D01*
X223520000Y-82550000D02*
X223520000Y-84025300D01*
D33*
X214630000Y-96520000D02*
X214630000Y-100488000D01*
X214630000Y-100488000D02*
X214630000Y-102870000D01*
D34*
X175895000Y-139700000D02*
X179705000Y-135890000D01*
X179705000Y-135890000D02*
X190430000Y-135890000D01*
X190430000Y-135890000D02*
X195510000Y-130810000D01*
X195510000Y-130810000D02*
X198544000Y-130810000D01*
X201168000Y-128524000D02*
X201168000Y-127144000D01*
X198882000Y-130810000D02*
X201168000Y-128524000D01*
X198544000Y-130810000D02*
X198882000Y-130810000D01*
D35*
X201153000Y-127159000D02*
X201168000Y-127144000D01*
X201153000Y-128200000D02*
X201153000Y-127159000D01*
X198544000Y-130810000D02*
X201153000Y-128200000D01*
D34*
X206474000Y-127988000D02*
X206474000Y-128386000D01*
X203962000Y-125476000D02*
X206474000Y-127988000D01*
X202692000Y-125476000D02*
X203962000Y-125476000D01*
X201168000Y-127000000D02*
X202692000Y-125476000D01*
X201168000Y-127144000D02*
X201168000Y-127000000D01*
D35*
X203738000Y-125650000D02*
X206474000Y-128386000D01*
X202662000Y-125650000D02*
X203738000Y-125650000D01*
X201168000Y-127144000D02*
X202662000Y-125650000D01*
X206474000Y-128386000D02*
X206474000Y-133811000D01*
D34*
X206474000Y-128386000D02*
X206474000Y-133811000D01*
X212852000Y-136398000D02*
X214630000Y-134620000D01*
X209062000Y-136398000D02*
X212852000Y-136398000D01*
X206474000Y-133811000D02*
X209062000Y-136398000D01*
D33*
X161925000Y-78105000D02*
X160800200Y-78105000D01*
D35*
X171086700Y-81987400D02*
X171086700Y-82550000D01*
X169973600Y-80874300D02*
X171086700Y-81987400D01*
X163569500Y-80874300D02*
X169973600Y-80874300D01*
X160800200Y-78105000D02*
X163569500Y-80874300D01*
X172212000Y-82550000D02*
X171086700Y-82550000D01*
D33*
X151765000Y-93472000D02*
X162687000Y-93472000D01*
X151257000Y-92964000D02*
X151765000Y-93472000D01*
X151257000Y-83058000D02*
X151257000Y-92964000D01*
X156210000Y-78105000D02*
X151257000Y-83058000D01*
X160800200Y-78105000D02*
X156210000Y-78105000D01*
D35*
X176200900Y-93569800D02*
X179151100Y-96520000D01*
X175027200Y-93569800D02*
X176200900Y-93569800D01*
X180340000Y-96520000D02*
X179151100Y-96520000D01*
D33*
X153670000Y-128270000D02*
X153670000Y-127990000D01*
X153670000Y-127990000D02*
X147320000Y-121640000D01*
D34*
X158750000Y-131445000D02*
X158750000Y-128270000D01*
X160655000Y-133350000D02*
X158750000Y-131445000D01*
X160655000Y-135890000D02*
X160655000Y-133350000D01*
X156845000Y-139700000D02*
X160655000Y-135890000D01*
D33*
X153670000Y-121920000D02*
X151100000Y-121920000D01*
X151100000Y-121920000D02*
X147320000Y-118140000D01*
D34*
X161290000Y-124460000D02*
X158750000Y-121920000D01*
X161290000Y-136525000D02*
X161290000Y-124460000D01*
X160655000Y-137160000D02*
X161290000Y-136525000D01*
X160655000Y-139700000D02*
X160655000Y-137160000D01*
X158750000Y-121920000D02*
X158488000Y-121920000D01*
D33*
X147320000Y-114640000D02*
X152740000Y-114640000D01*
X152740000Y-114640000D02*
X153670000Y-115570000D01*
X147320000Y-115570000D02*
X146812000Y-115570000D01*
D34*
X161925000Y-118745000D02*
X158750000Y-115570000D01*
X161925000Y-136525000D02*
X161925000Y-118745000D01*
X164465000Y-139065000D02*
X161925000Y-136525000D01*
X164465000Y-139700000D02*
X164465000Y-139065000D01*
D33*
X147320000Y-111140000D02*
X151750000Y-111140000D01*
X151750000Y-111140000D02*
X153670000Y-109220000D01*
X147320000Y-110490000D02*
X146812000Y-110490000D01*
X153670000Y-102870000D02*
X152090000Y-102870000D01*
X152090000Y-102870000D02*
X147320000Y-107640000D01*
X153670000Y-96520000D02*
X153670000Y-97790000D01*
X153670000Y-97790000D02*
X147320000Y-104140000D01*
D35*
X166763500Y-94886400D02*
X167027300Y-95150200D01*
X161958900Y-94886400D02*
X166763500Y-94886400D01*
X160325300Y-96520000D02*
X161958900Y-94886400D01*
X158750000Y-96520000D02*
X160325300Y-96520000D01*
D33*
X224790000Y-134620000D02*
X224790000Y-132461000D01*
X228981000Y-127310000D02*
X231140000Y-125151000D01*
X228981000Y-128270000D02*
X228981000Y-127310000D01*
X224790000Y-132461000D02*
X228981000Y-128270000D01*
D35*
X221285000Y-136195000D02*
X225425000Y-140335000D01*
X219710000Y-136195000D02*
X221285000Y-136195000D01*
X219710000Y-134620000D02*
X219710000Y-136195000D01*
X206865000Y-82550000D02*
X205740000Y-82550000D01*
X206865000Y-81987300D02*
X206865000Y-82550000D01*
X208301000Y-80551800D02*
X206865000Y-81987300D01*
X224202000Y-80551800D02*
X208301000Y-80551800D01*
X226043000Y-82393000D02*
X224202000Y-80551800D01*
X226043000Y-92284300D02*
X226043000Y-82393000D01*
X223170000Y-95157500D02*
X226043000Y-92284300D01*
X223170000Y-129585000D02*
X223170000Y-95157500D01*
X219710000Y-133045000D02*
X223170000Y-129585000D01*
X219710000Y-134620000D02*
X219710000Y-133045000D01*
D33*
X231140000Y-121651000D02*
X231140000Y-121920000D01*
X231140000Y-121920000D02*
X224790000Y-128270000D01*
X231140000Y-118151000D02*
X228559000Y-118151000D01*
X228559000Y-118151000D02*
X224790000Y-121920000D01*
D35*
X217805000Y-125400000D02*
X217805000Y-140335000D01*
X219710000Y-123495000D02*
X217805000Y-125400000D01*
X219710000Y-121920000D02*
X219710000Y-123495000D01*
D33*
X231140000Y-114651000D02*
X225709000Y-114651000D01*
X225709000Y-114651000D02*
X224790000Y-115570000D01*
X231140000Y-111151000D02*
X226721000Y-111151000D01*
X226721000Y-111151000D02*
X224790000Y-109220000D01*
X231140000Y-107651000D02*
X229571000Y-107651000D01*
X229571000Y-107651000D02*
X224790000Y-102870000D01*
D35*
X219565000Y-82550000D02*
X218440000Y-82550000D01*
X219565000Y-81987400D02*
X219565000Y-82550000D01*
X220512000Y-81041200D02*
X219565000Y-81987400D01*
X224004000Y-81041200D02*
X220512000Y-81041200D01*
X225593000Y-82629600D02*
X224004000Y-81041200D01*
X225593000Y-92097700D02*
X225593000Y-82629600D01*
X222456000Y-95234600D02*
X225593000Y-92097700D01*
X222456000Y-98548700D02*
X222456000Y-95234600D01*
X219710000Y-101295000D02*
X222456000Y-98548700D01*
X219710000Y-102870000D02*
X219710000Y-101295000D01*
D33*
X231140000Y-104151000D02*
X231140000Y-102870000D01*
X231140000Y-102870000D02*
X224790000Y-96520000D01*
D35*
X219710000Y-94944700D02*
X219710000Y-96520000D01*
X220695000Y-94944700D02*
X219710000Y-94944700D01*
X224645000Y-90994000D02*
X220695000Y-94944700D01*
X224645000Y-86215300D02*
X224645000Y-90994000D01*
X222105000Y-83675300D02*
X224645000Y-86215300D01*
X222105000Y-82550000D02*
X222105000Y-83675300D01*
X220980000Y-82550000D02*
X222105000Y-82550000D01*
D34*
X189865000Y-92329000D02*
X189865000Y-89789000D01*
X192245000Y-94772000D02*
X192245000Y-94709000D01*
X192245000Y-94709000D02*
X189865000Y-92329000D01*
X184785000Y-89789000D02*
X184785000Y-87630000D01*
X185801000Y-86614000D02*
X191897000Y-86614000D01*
X184785000Y-87630000D02*
X185801000Y-86614000D01*
X192245000Y-94709000D02*
X189865000Y-92329000D01*
X189865000Y-92329000D02*
X189865000Y-88646000D01*
X189865000Y-88646000D02*
X191897000Y-86614000D01*
X191897000Y-86614000D02*
X194564000Y-86614000D01*
D33*
X194975000Y-82042000D02*
X196245000Y-80772000D01*
X187452000Y-82042000D02*
X194975000Y-82042000D01*
X186245000Y-80835000D02*
X187452000Y-82042000D01*
X186245000Y-80772000D02*
X186245000Y-80835000D01*
X200152000Y-80772000D02*
X200660000Y-81280000D01*
X196245000Y-80772000D02*
X200152000Y-80772000D01*
X200660000Y-81280000D02*
X199898000Y-81280000D01*
D34*
X192366900Y-87782400D02*
X192392300Y-87757000D01*
X192392300Y-87757000D02*
X197739000Y-87757000D01*
X197739000Y-87757000D02*
X197840600Y-87858600D01*
X197840600Y-87858600D02*
X197840600Y-88036400D01*
X197840600Y-88036400D02*
X197840600Y-87858600D01*
D33*
X200660000Y-90678000D02*
X200660000Y-91440000D01*
X192624000Y-82642000D02*
X197840600Y-87858600D01*
X197840600Y-87858600D02*
X200660000Y-90678000D01*
X183988000Y-82642000D02*
X192624000Y-82642000D01*
X182245000Y-80899000D02*
X183988000Y-82642000D01*
X182245000Y-80772000D02*
X182245000Y-80899000D01*
D35*
X218378000Y-88142400D02*
X203172000Y-88142400D01*
X219855000Y-89619400D02*
X218378000Y-88142400D01*
X219855000Y-90170000D02*
X219855000Y-89619400D01*
X220980000Y-90170000D02*
X219855000Y-90170000D01*
D33*
X182245000Y-98425000D02*
X182245000Y-94772000D01*
X181610000Y-99060000D02*
X182245000Y-98425000D01*
X180340000Y-99060000D02*
X181610000Y-99060000D01*
X184245000Y-99473000D02*
X184245000Y-94772000D01*
X182118000Y-101600000D02*
X184245000Y-99473000D01*
X180340000Y-101600000D02*
X182118000Y-101600000D01*
D35*
X204302000Y-99288600D02*
X205157000Y-98432700D01*
X201620000Y-99288600D02*
X204302000Y-99288600D01*
X199309000Y-101600000D02*
X201620000Y-99288600D01*
X198120000Y-101600000D02*
X199309000Y-101600000D01*
X205907000Y-98567500D02*
X205907000Y-97116400D01*
X204244000Y-100231000D02*
X205907000Y-98567500D01*
X202624000Y-100231000D02*
X204244000Y-100231000D01*
X199309000Y-103546000D02*
X202624000Y-100231000D01*
X199309000Y-104140000D02*
X199309000Y-103546000D01*
X198120000Y-104140000D02*
X199309000Y-104140000D01*
D34*
X170234700Y-90170000D02*
X172901700Y-92837000D01*
X172901700Y-92837000D02*
X181356000Y-92837000D01*
X169672000Y-90170000D02*
X170234700Y-90170000D01*
X184547700Y-93836300D02*
X182769700Y-93836300D01*
X181770400Y-92837000D02*
X181356000Y-92837000D01*
X182769700Y-93836300D02*
X181770400Y-92837000D01*
D33*
X180340000Y-106680000D02*
X182118000Y-106680000D01*
X185245000Y-100457000D02*
X185245000Y-100607600D01*
X185293000Y-100457000D02*
X185245000Y-100457000D01*
D35*
X185245000Y-94533600D02*
X185245000Y-100607600D01*
X184547700Y-93836300D02*
X185245000Y-94533600D01*
D33*
X178833800Y-102598200D02*
X178833800Y-102633800D01*
X178833800Y-102633800D02*
X180340000Y-104140000D01*
D35*
X167132000Y-90170000D02*
X168257300Y-90170000D01*
X168257300Y-91018100D02*
X168257300Y-90170000D01*
X172544600Y-95305400D02*
X168257300Y-91018100D01*
X172544600Y-97534700D02*
X172544600Y-95305400D01*
X174125200Y-99115300D02*
X172544600Y-97534700D01*
X175350900Y-99115300D02*
X174125200Y-99115300D01*
X178833800Y-102598200D02*
X175350900Y-99115300D01*
X164592000Y-90170000D02*
X165717300Y-90170000D01*
X196931100Y-119380000D02*
X182961100Y-105410000D01*
X182961100Y-105410000D02*
X179902800Y-105410000D01*
X179902800Y-105410000D02*
X178231500Y-103738700D01*
X178231500Y-103738700D02*
X178231500Y-102637300D01*
X178231500Y-102637300D02*
X175611300Y-100017100D01*
X175611300Y-100017100D02*
X174390100Y-100017100D01*
X174390100Y-100017100D02*
X172094300Y-97721300D01*
X172094300Y-97721300D02*
X172094300Y-95492000D01*
X172094300Y-95492000D02*
X168668700Y-92066400D01*
X168668700Y-92066400D02*
X167076300Y-92066400D01*
X167076300Y-92066400D02*
X165717300Y-90707400D01*
X165717300Y-90707400D02*
X165717300Y-90170000D01*
X198120000Y-119380000D02*
X196931100Y-119380000D01*
X162052000Y-90170000D02*
X163177300Y-90170000D01*
X198120000Y-121920000D02*
X196931100Y-121920000D01*
X163177300Y-90732600D02*
X163177300Y-90170000D01*
X164961400Y-92516700D02*
X163177300Y-90732600D01*
X168482100Y-92516700D02*
X164961400Y-92516700D01*
X171644000Y-95678600D02*
X168482100Y-92516700D01*
X171644000Y-103031600D02*
X171644000Y-95678600D01*
X174286000Y-105673600D02*
X171644000Y-103031600D01*
X175622000Y-105673600D02*
X174286000Y-105673600D01*
X177898400Y-107950000D02*
X175622000Y-105673600D01*
X182961100Y-107950000D02*
X177898400Y-107950000D01*
X196931100Y-121920000D02*
X182961100Y-107950000D01*
D34*
X186077300Y-93322700D02*
X186077300Y-91322600D01*
X183273700Y-91084400D02*
X182930600Y-91427500D01*
X185953400Y-91084400D02*
X183273700Y-91084400D01*
X186080400Y-91211400D02*
X185953400Y-91084400D01*
X186080400Y-91319500D02*
X186080400Y-91211400D01*
X186077300Y-91322600D02*
X186080400Y-91319500D01*
D35*
X198489500Y-123271100D02*
X198120000Y-123271100D01*
X199312400Y-122448200D02*
X198489500Y-123271100D01*
X199312400Y-111197800D02*
X199312400Y-122448200D01*
X198604600Y-110490000D02*
X199312400Y-111197800D01*
X197698900Y-110490000D02*
X198604600Y-110490000D01*
X187245000Y-100036100D02*
X197698900Y-110490000D01*
X187245000Y-94490400D02*
X187245000Y-100036100D01*
X186077300Y-93322700D02*
X187245000Y-94490400D01*
X175812500Y-91427500D02*
X182930600Y-91427500D01*
X159512000Y-90170000D02*
X160637300Y-90170000D01*
X160637300Y-90170000D02*
X160637300Y-89607400D01*
X160637300Y-89607400D02*
X161562400Y-88682300D01*
X161562400Y-88682300D02*
X173067300Y-88682300D01*
X173067300Y-88682300D02*
X175812500Y-91427500D01*
X198120000Y-124460000D02*
X198120000Y-123271100D01*
X196931100Y-126628500D02*
X196931100Y-127000000D01*
X180726700Y-110424100D02*
X196931100Y-126628500D01*
X179634500Y-110424100D02*
X180726700Y-110424100D01*
X175425400Y-106215000D02*
X179634500Y-110424100D01*
X174135200Y-106215000D02*
X175425400Y-106215000D01*
X170968700Y-103048500D02*
X174135200Y-106215000D01*
X170968700Y-95640200D02*
X170968700Y-103048500D01*
X168295600Y-92967100D02*
X170968700Y-95640200D01*
X164515100Y-92967100D02*
X168295600Y-92967100D01*
X163196000Y-91648000D02*
X164515100Y-92967100D01*
X159012600Y-91648000D02*
X163196000Y-91648000D01*
X158097300Y-90732700D02*
X159012600Y-91648000D01*
X158097300Y-90170000D02*
X158097300Y-90732700D01*
X156972000Y-90170000D02*
X158097300Y-90170000D01*
X198120000Y-127000000D02*
X196931100Y-127000000D01*
X196931100Y-129168500D02*
X196931100Y-129540000D01*
X180711600Y-112949000D02*
X196931100Y-129168500D01*
X175229600Y-112949000D02*
X180711600Y-112949000D01*
X170518300Y-108237700D02*
X175229600Y-112949000D01*
X170518300Y-95826700D02*
X170518300Y-108237700D01*
X168267900Y-93576300D02*
X170518300Y-95826700D01*
X163785600Y-93576300D02*
X168267900Y-93576300D01*
X162629300Y-92420000D02*
X163785600Y-93576300D01*
X157244700Y-92420000D02*
X162629300Y-92420000D01*
X155557300Y-90732600D02*
X157244700Y-92420000D01*
X155557300Y-90170000D02*
X155557300Y-90732600D01*
X154432000Y-90170000D02*
X155557300Y-90170000D01*
X198120000Y-129540000D02*
X196931100Y-129540000D01*
M02*
