G04 #@! TF.FileFunction,Soldermask,Bot*
%FSLAX46Y46*%
G04 Gerber Fmt 4.6, Leading zero omitted, Abs format (unit mm)*
G04 Created by KiCad (PCBNEW (2016-01-13 BZR 6465, Git 5af18e5)-product) date Wed 03 Feb 2016 11:32:38 AWST*
%MOMM*%
G01*
G04 APERTURE LIST*
%ADD10C,0.100000*%
%ADD11C,2.800000*%
%ADD12R,2.800000X2.800000*%
%ADD13C,2.398980*%
%ADD14R,2.398980X2.398980*%
%ADD15C,4.464000*%
%ADD16R,2.127200X2.127200*%
%ADD17O,2.127200X2.127200*%
%ADD18R,2.400000X2.400000*%
%ADD19C,2.400000*%
%ADD20R,2.432000X2.432000*%
%ADD21O,2.432000X2.432000*%
%ADD22R,2.127200X2.432000*%
%ADD23O,2.127200X2.432000*%
%ADD24O,2.000000X2.700000*%
%ADD25R,2.900000X2.900000*%
%ADD26O,2.900000X2.900000*%
%ADD27R,1.500000X2.900000*%
%ADD28O,1.500000X2.900000*%
%ADD29R,1.700000X1.700000*%
%ADD30C,1.700000*%
%ADD31O,4.200000X8.400000*%
G04 APERTURE END LIST*
D10*
D11*
X231140000Y-121651000D03*
X231140000Y-125151000D03*
X231140000Y-118151000D03*
X231140000Y-114651000D03*
X231140000Y-111151000D03*
X231140000Y-107651000D03*
D12*
X231140000Y-128651000D03*
D11*
X231140000Y-104151000D03*
D13*
X213233000Y-77594460D03*
D14*
X203073000Y-77594460D03*
D13*
X225933000Y-77594460D03*
D14*
X215773000Y-77594460D03*
D13*
X227459540Y-93472000D03*
D14*
X227459540Y-83312000D03*
D13*
X230502460Y-83185000D03*
D14*
X230502460Y-93345000D03*
D15*
X148590000Y-78740000D03*
X148590000Y-148590000D03*
X229870000Y-148590000D03*
D16*
X180340000Y-96520000D03*
D17*
X198120000Y-96520000D03*
X180340000Y-99060000D03*
X198120000Y-99060000D03*
X180340000Y-101600000D03*
X198120000Y-101600000D03*
X180340000Y-104140000D03*
X198120000Y-104140000D03*
X180340000Y-106680000D03*
X198120000Y-106680000D03*
X180340000Y-109220000D03*
X198120000Y-109220000D03*
X180340000Y-111760000D03*
X198120000Y-111760000D03*
X180340000Y-114300000D03*
X198120000Y-114300000D03*
X180340000Y-116840000D03*
X198120000Y-116840000D03*
X180340000Y-119380000D03*
X198120000Y-119380000D03*
X180340000Y-121920000D03*
X198120000Y-121920000D03*
X180340000Y-124460000D03*
X198120000Y-124460000D03*
X180340000Y-127000000D03*
X198120000Y-127000000D03*
X180340000Y-129540000D03*
X198120000Y-129540000D03*
X180340000Y-132080000D03*
X198120000Y-132080000D03*
X180340000Y-134620000D03*
X198120000Y-134620000D03*
X180340000Y-137160000D03*
X198120000Y-137160000D03*
X180340000Y-139700000D03*
X198120000Y-139700000D03*
X180340000Y-142240000D03*
X198120000Y-142240000D03*
X180340000Y-144780000D03*
X198120000Y-144780000D03*
D18*
X203200000Y-135890000D03*
D19*
X203200000Y-133350000D03*
D18*
X203200000Y-129540000D03*
D19*
X203200000Y-127000000D03*
D18*
X203200000Y-123190000D03*
D19*
X203200000Y-120650000D03*
D18*
X203200000Y-116840000D03*
D19*
X203200000Y-114300000D03*
D18*
X203200000Y-110490000D03*
D19*
X203200000Y-107950000D03*
D18*
X203200000Y-104140000D03*
D19*
X203200000Y-101600000D03*
D18*
X203200000Y-97790000D03*
D19*
X203200000Y-95250000D03*
D18*
X175260000Y-135890000D03*
D19*
X175260000Y-133350000D03*
D18*
X175260000Y-129540000D03*
D19*
X175260000Y-127000000D03*
D18*
X175260000Y-123190000D03*
D19*
X175260000Y-120650000D03*
D18*
X175260000Y-116840000D03*
D19*
X175260000Y-114300000D03*
D18*
X175260000Y-110490000D03*
D19*
X175260000Y-107950000D03*
D18*
X175260000Y-104140000D03*
D19*
X175260000Y-101600000D03*
D18*
X175260000Y-97790000D03*
D19*
X175260000Y-95250000D03*
D20*
X190500000Y-77216000D03*
D21*
X187960000Y-77216000D03*
D16*
X185420000Y-150495000D03*
D17*
X185420000Y-147955000D03*
X187960000Y-150495000D03*
X187960000Y-147955000D03*
X190500000Y-150495000D03*
X190500000Y-147955000D03*
X193040000Y-150495000D03*
X193040000Y-147955000D03*
D22*
X161925000Y-78105000D03*
D23*
X164465000Y-78105000D03*
X167005000Y-78105000D03*
X169545000Y-78105000D03*
D13*
X200660000Y-81280000D03*
X200660000Y-91440000D03*
X225425000Y-140335000D03*
X225425000Y-150495000D03*
X221615000Y-140335000D03*
X221615000Y-150495000D03*
X217805000Y-140335000D03*
X217805000Y-150495000D03*
X213995000Y-140335000D03*
X213995000Y-150495000D03*
X210185000Y-140335000D03*
X210185000Y-150495000D03*
X206375000Y-140335000D03*
X206375000Y-150495000D03*
X202565000Y-140335000D03*
X202565000Y-150495000D03*
X153035000Y-139700000D03*
X153035000Y-149860000D03*
X156845000Y-139700000D03*
X156845000Y-149860000D03*
X160655000Y-139700000D03*
X160655000Y-149860000D03*
X164465000Y-139700000D03*
X164465000Y-149860000D03*
X168275000Y-139700000D03*
X168275000Y-149860000D03*
X172085000Y-139700000D03*
X172085000Y-149860000D03*
X175895000Y-139700000D03*
X175895000Y-149860000D03*
D24*
X154432000Y-90170000D03*
X156972000Y-90170000D03*
X159512000Y-90170000D03*
X162052000Y-90170000D03*
X164592000Y-90170000D03*
X167132000Y-90170000D03*
X169672000Y-90170000D03*
X172212000Y-90170000D03*
X172212000Y-82550000D03*
X169672000Y-82550000D03*
X167132000Y-82550000D03*
X164592000Y-82550000D03*
X162052000Y-82550000D03*
X159512000Y-82550000D03*
X156972000Y-82550000D03*
X154432000Y-82550000D03*
X205740000Y-90170000D03*
X208280000Y-90170000D03*
X210820000Y-90170000D03*
X213360000Y-90170000D03*
X215900000Y-90170000D03*
X218440000Y-90170000D03*
X220980000Y-90170000D03*
X223520000Y-90170000D03*
X223520000Y-82550000D03*
X220980000Y-82550000D03*
X218440000Y-82550000D03*
X215900000Y-82550000D03*
X213360000Y-82550000D03*
X210820000Y-82550000D03*
X208280000Y-82550000D03*
X205740000Y-82550000D03*
D25*
X224790000Y-109220000D03*
D26*
X219710000Y-109220000D03*
X214630000Y-109220000D03*
X209550000Y-109220000D03*
D25*
X153670000Y-102870000D03*
D26*
X158750000Y-102870000D03*
X163830000Y-102870000D03*
X168910000Y-102870000D03*
D25*
X153670000Y-96520000D03*
D26*
X158750000Y-96520000D03*
X163830000Y-96520000D03*
X168910000Y-96520000D03*
D25*
X224790000Y-134620000D03*
D26*
X219710000Y-134620000D03*
X214630000Y-134620000D03*
X209550000Y-134620000D03*
D25*
X224790000Y-102870000D03*
D26*
X219710000Y-102870000D03*
X214630000Y-102870000D03*
X209550000Y-102870000D03*
D25*
X224790000Y-128270000D03*
D26*
X219710000Y-128270000D03*
X214630000Y-128270000D03*
X209550000Y-128270000D03*
D25*
X224790000Y-121920000D03*
D26*
X219710000Y-121920000D03*
X214630000Y-121920000D03*
X209550000Y-121920000D03*
D25*
X224790000Y-115570000D03*
D26*
X219710000Y-115570000D03*
X214630000Y-115570000D03*
X209550000Y-115570000D03*
D25*
X153670000Y-134620000D03*
D26*
X158750000Y-134620000D03*
X163830000Y-134620000D03*
X168910000Y-134620000D03*
D25*
X153670000Y-128270000D03*
D26*
X158750000Y-128270000D03*
X163830000Y-128270000D03*
X168910000Y-128270000D03*
D25*
X153670000Y-121920000D03*
D26*
X158750000Y-121920000D03*
X163830000Y-121920000D03*
X168910000Y-121920000D03*
D25*
X153670000Y-115570000D03*
D26*
X158750000Y-115570000D03*
X163830000Y-115570000D03*
X168910000Y-115570000D03*
D25*
X153670000Y-109220000D03*
D26*
X158750000Y-109220000D03*
X163830000Y-109220000D03*
X168910000Y-109220000D03*
D25*
X224790000Y-96520000D03*
D26*
X219710000Y-96520000D03*
X214630000Y-96520000D03*
X209550000Y-96520000D03*
D27*
X182245000Y-80072000D03*
D28*
X184245000Y-80072000D03*
X186245000Y-80072000D03*
X188245000Y-80072000D03*
X190245000Y-80072000D03*
X192245000Y-80072000D03*
X194245000Y-80072000D03*
X196245000Y-80072000D03*
X196245000Y-95472000D03*
X194245000Y-95372000D03*
X192245000Y-95472000D03*
X190245000Y-95472000D03*
X188245000Y-95472000D03*
X186245000Y-95472000D03*
X184245000Y-95472000D03*
X182245000Y-95472000D03*
D15*
X229870000Y-78740000D03*
D11*
X147320000Y-111140000D03*
X147320000Y-107640000D03*
X147320000Y-114640000D03*
X147320000Y-118140000D03*
X147320000Y-121640000D03*
X147320000Y-125140000D03*
D12*
X147320000Y-104140000D03*
D11*
X147320000Y-128640000D03*
D29*
X173863000Y-77470000D03*
D30*
X173863000Y-79470000D03*
D29*
X157226000Y-77724000D03*
D30*
X157226000Y-79724000D03*
D31*
X147955000Y-95963000D03*
X147955000Y-86663000D03*
D16*
X184785000Y-92329000D03*
D17*
X184785000Y-89789000D03*
X187325000Y-92329000D03*
X187325000Y-89789000D03*
X189865000Y-92329000D03*
X189865000Y-89789000D03*
D16*
X192405000Y-92329000D03*
D17*
X192405000Y-89789000D03*
M02*
