G04 #@! TF.FileFunction,Legend,Bot*
%FSLAX46Y46*%
G04 Gerber Fmt 4.6, Leading zero omitted, Abs format (unit mm)*
G04 Created by KiCad (PCBNEW (2016-01-13 BZR 6465, Git 5af18e5)-product) date Wed 03 Feb 2016 11:32:38 AWST*
%MOMM*%
G01*
G04 APERTURE LIST*
%ADD10C,0.100000*%
%ADD11C,0.250000*%
%ADD12C,0.200000*%
%ADD13C,0.150000*%
%ADD14C,0.152400*%
G04 APERTURE END LIST*
D10*
D11*
X188920381Y-102721379D02*
X187920381Y-102721379D01*
X188920381Y-103149951D02*
X188396571Y-103149951D01*
X188301333Y-103102332D01*
X188253714Y-103007094D01*
X188253714Y-102864236D01*
X188301333Y-102768998D01*
X188348952Y-102721379D01*
X188253714Y-103483284D02*
X188253714Y-103864236D01*
X187920381Y-103626141D02*
X188777524Y-103626141D01*
X188872762Y-103673760D01*
X188920381Y-103768998D01*
X188920381Y-103864236D01*
X188253714Y-104054713D02*
X188253714Y-104435665D01*
X187920381Y-104197570D02*
X188777524Y-104197570D01*
X188872762Y-104245189D01*
X188920381Y-104340427D01*
X188920381Y-104435665D01*
X188253714Y-104768999D02*
X189253714Y-104768999D01*
X188301333Y-104768999D02*
X188253714Y-104864237D01*
X188253714Y-105054714D01*
X188301333Y-105149952D01*
X188348952Y-105197571D01*
X188444190Y-105245190D01*
X188729905Y-105245190D01*
X188825143Y-105197571D01*
X188872762Y-105149952D01*
X188920381Y-105054714D01*
X188920381Y-104864237D01*
X188872762Y-104768999D01*
X188872762Y-105626142D02*
X188920381Y-105721380D01*
X188920381Y-105911856D01*
X188872762Y-106007095D01*
X188777524Y-106054714D01*
X188729905Y-106054714D01*
X188634667Y-106007095D01*
X188587048Y-105911856D01*
X188587048Y-105768999D01*
X188539429Y-105673761D01*
X188444190Y-105626142D01*
X188396571Y-105626142D01*
X188301333Y-105673761D01*
X188253714Y-105768999D01*
X188253714Y-105911856D01*
X188301333Y-106007095D01*
X188825143Y-106483285D02*
X188872762Y-106530904D01*
X188920381Y-106483285D01*
X188872762Y-106435666D01*
X188825143Y-106483285D01*
X188920381Y-106483285D01*
X188301333Y-106483285D02*
X188348952Y-106530904D01*
X188396571Y-106483285D01*
X188348952Y-106435666D01*
X188301333Y-106483285D01*
X188396571Y-106483285D01*
X187872762Y-107673761D02*
X189158476Y-106816618D01*
X187872762Y-108721380D02*
X189158476Y-107864237D01*
X188253714Y-109483285D02*
X189063238Y-109483285D01*
X189158476Y-109435666D01*
X189206095Y-109388047D01*
X189253714Y-109292808D01*
X189253714Y-109149951D01*
X189206095Y-109054713D01*
X188872762Y-109483285D02*
X188920381Y-109388047D01*
X188920381Y-109197570D01*
X188872762Y-109102332D01*
X188825143Y-109054713D01*
X188729905Y-109007094D01*
X188444190Y-109007094D01*
X188348952Y-109054713D01*
X188301333Y-109102332D01*
X188253714Y-109197570D01*
X188253714Y-109388047D01*
X188301333Y-109483285D01*
X188920381Y-109959475D02*
X188253714Y-109959475D01*
X187920381Y-109959475D02*
X187968000Y-109911856D01*
X188015619Y-109959475D01*
X187968000Y-110007094D01*
X187920381Y-109959475D01*
X188015619Y-109959475D01*
X188253714Y-110292808D02*
X188253714Y-110673760D01*
X187920381Y-110435665D02*
X188777524Y-110435665D01*
X188872762Y-110483284D01*
X188920381Y-110578522D01*
X188920381Y-110673760D01*
X188920381Y-111007094D02*
X187920381Y-111007094D01*
X188920381Y-111435666D02*
X188396571Y-111435666D01*
X188301333Y-111388047D01*
X188253714Y-111292809D01*
X188253714Y-111149951D01*
X188301333Y-111054713D01*
X188348952Y-111007094D01*
X188253714Y-112340428D02*
X188920381Y-112340428D01*
X188253714Y-111911856D02*
X188777524Y-111911856D01*
X188872762Y-111959475D01*
X188920381Y-112054713D01*
X188920381Y-112197571D01*
X188872762Y-112292809D01*
X188825143Y-112340428D01*
X188920381Y-112816618D02*
X187920381Y-112816618D01*
X188301333Y-112816618D02*
X188253714Y-112911856D01*
X188253714Y-113102333D01*
X188301333Y-113197571D01*
X188348952Y-113245190D01*
X188444190Y-113292809D01*
X188729905Y-113292809D01*
X188825143Y-113245190D01*
X188872762Y-113197571D01*
X188920381Y-113102333D01*
X188920381Y-112911856D01*
X188872762Y-112816618D01*
X188825143Y-113721380D02*
X188872762Y-113768999D01*
X188920381Y-113721380D01*
X188872762Y-113673761D01*
X188825143Y-113721380D01*
X188920381Y-113721380D01*
X188872762Y-114626142D02*
X188920381Y-114530904D01*
X188920381Y-114340427D01*
X188872762Y-114245189D01*
X188825143Y-114197570D01*
X188729905Y-114149951D01*
X188444190Y-114149951D01*
X188348952Y-114197570D01*
X188301333Y-114245189D01*
X188253714Y-114340427D01*
X188253714Y-114530904D01*
X188301333Y-114626142D01*
X188920381Y-115197570D02*
X188872762Y-115102332D01*
X188825143Y-115054713D01*
X188729905Y-115007094D01*
X188444190Y-115007094D01*
X188348952Y-115054713D01*
X188301333Y-115102332D01*
X188253714Y-115197570D01*
X188253714Y-115340428D01*
X188301333Y-115435666D01*
X188348952Y-115483285D01*
X188444190Y-115530904D01*
X188729905Y-115530904D01*
X188825143Y-115483285D01*
X188872762Y-115435666D01*
X188920381Y-115340428D01*
X188920381Y-115197570D01*
X188920381Y-115959475D02*
X188253714Y-115959475D01*
X188348952Y-115959475D02*
X188301333Y-116007094D01*
X188253714Y-116102332D01*
X188253714Y-116245190D01*
X188301333Y-116340428D01*
X188396571Y-116388047D01*
X188920381Y-116388047D01*
X188396571Y-116388047D02*
X188301333Y-116435666D01*
X188253714Y-116530904D01*
X188253714Y-116673761D01*
X188301333Y-116768999D01*
X188396571Y-116816618D01*
X188920381Y-116816618D01*
X187872762Y-118007094D02*
X189158476Y-117149951D01*
X188253714Y-118340427D02*
X188920381Y-118340427D01*
X188348952Y-118340427D02*
X188301333Y-118388046D01*
X188253714Y-118483284D01*
X188253714Y-118626142D01*
X188301333Y-118721380D01*
X188396571Y-118768999D01*
X188920381Y-118768999D01*
X188253714Y-119673761D02*
X188920381Y-119673761D01*
X188253714Y-119245189D02*
X188777524Y-119245189D01*
X188872762Y-119292808D01*
X188920381Y-119388046D01*
X188920381Y-119530904D01*
X188872762Y-119626142D01*
X188825143Y-119673761D01*
X188920381Y-120292808D02*
X188872762Y-120197570D01*
X188777524Y-120149951D01*
X187920381Y-120149951D01*
X188920381Y-120816618D02*
X188872762Y-120721380D01*
X188777524Y-120673761D01*
X187920381Y-120673761D01*
X188253714Y-121102333D02*
X188920381Y-121340428D01*
X188253714Y-121578524D02*
X188920381Y-121340428D01*
X189158476Y-121245190D01*
X189206095Y-121197571D01*
X189253714Y-121102333D01*
X188920381Y-122388048D02*
X187920381Y-122388048D01*
X188872762Y-122388048D02*
X188920381Y-122292810D01*
X188920381Y-122102333D01*
X188872762Y-122007095D01*
X188825143Y-121959476D01*
X188729905Y-121911857D01*
X188444190Y-121911857D01*
X188348952Y-121959476D01*
X188301333Y-122007095D01*
X188253714Y-122102333D01*
X188253714Y-122292810D01*
X188301333Y-122388048D01*
X188920381Y-122864238D02*
X188253714Y-122864238D01*
X188444190Y-122864238D02*
X188348952Y-122911857D01*
X188301333Y-122959476D01*
X188253714Y-123054714D01*
X188253714Y-123149953D01*
X188920381Y-123911858D02*
X188396571Y-123911858D01*
X188301333Y-123864239D01*
X188253714Y-123769001D01*
X188253714Y-123578524D01*
X188301333Y-123483286D01*
X188872762Y-123911858D02*
X188920381Y-123816620D01*
X188920381Y-123578524D01*
X188872762Y-123483286D01*
X188777524Y-123435667D01*
X188682286Y-123435667D01*
X188587048Y-123483286D01*
X188539429Y-123578524D01*
X188539429Y-123816620D01*
X188491810Y-123911858D01*
X188253714Y-124816620D02*
X189063238Y-124816620D01*
X189158476Y-124769001D01*
X189206095Y-124721382D01*
X189253714Y-124626143D01*
X189253714Y-124483286D01*
X189206095Y-124388048D01*
X188872762Y-124816620D02*
X188920381Y-124721382D01*
X188920381Y-124530905D01*
X188872762Y-124435667D01*
X188825143Y-124388048D01*
X188729905Y-124340429D01*
X188444190Y-124340429D01*
X188348952Y-124388048D01*
X188301333Y-124435667D01*
X188253714Y-124530905D01*
X188253714Y-124721382D01*
X188301333Y-124816620D01*
X188920381Y-125435667D02*
X188872762Y-125340429D01*
X188825143Y-125292810D01*
X188729905Y-125245191D01*
X188444190Y-125245191D01*
X188348952Y-125292810D01*
X188301333Y-125340429D01*
X188253714Y-125435667D01*
X188253714Y-125578525D01*
X188301333Y-125673763D01*
X188348952Y-125721382D01*
X188444190Y-125769001D01*
X188729905Y-125769001D01*
X188825143Y-125721382D01*
X188872762Y-125673763D01*
X188920381Y-125578525D01*
X188920381Y-125435667D01*
X188253714Y-126197572D02*
X188920381Y-126197572D01*
X188348952Y-126197572D02*
X188301333Y-126245191D01*
X188253714Y-126340429D01*
X188253714Y-126483287D01*
X188301333Y-126578525D01*
X188396571Y-126626144D01*
X188920381Y-126626144D01*
X187872762Y-127816620D02*
X189158476Y-126959477D01*
X187920381Y-128054715D02*
X188920381Y-128292810D01*
X188206095Y-128483287D01*
X188920381Y-128673763D01*
X187920381Y-128911858D01*
X188920381Y-129292810D02*
X188253714Y-129292810D01*
X187920381Y-129292810D02*
X187968000Y-129245191D01*
X188015619Y-129292810D01*
X187968000Y-129340429D01*
X187920381Y-129292810D01*
X188015619Y-129292810D01*
X188920381Y-129769000D02*
X188253714Y-129769000D01*
X188444190Y-129769000D02*
X188348952Y-129816619D01*
X188301333Y-129864238D01*
X188253714Y-129959476D01*
X188253714Y-130054715D01*
X188872762Y-130769001D02*
X188920381Y-130673763D01*
X188920381Y-130483286D01*
X188872762Y-130388048D01*
X188777524Y-130340429D01*
X188396571Y-130340429D01*
X188301333Y-130388048D01*
X188253714Y-130483286D01*
X188253714Y-130673763D01*
X188301333Y-130769001D01*
X188396571Y-130816620D01*
X188491810Y-130816620D01*
X188587048Y-130340429D01*
X188920381Y-131388048D02*
X188872762Y-131292810D01*
X188777524Y-131245191D01*
X187920381Y-131245191D01*
X188872762Y-132149954D02*
X188920381Y-132054716D01*
X188920381Y-131864239D01*
X188872762Y-131769001D01*
X188777524Y-131721382D01*
X188396571Y-131721382D01*
X188301333Y-131769001D01*
X188253714Y-131864239D01*
X188253714Y-132054716D01*
X188301333Y-132149954D01*
X188396571Y-132197573D01*
X188491810Y-132197573D01*
X188587048Y-131721382D01*
X188872762Y-132578525D02*
X188920381Y-132673763D01*
X188920381Y-132864239D01*
X188872762Y-132959478D01*
X188777524Y-133007097D01*
X188729905Y-133007097D01*
X188634667Y-132959478D01*
X188587048Y-132864239D01*
X188587048Y-132721382D01*
X188539429Y-132626144D01*
X188444190Y-132578525D01*
X188396571Y-132578525D01*
X188301333Y-132626144D01*
X188253714Y-132721382D01*
X188253714Y-132864239D01*
X188301333Y-132959478D01*
X188872762Y-133388049D02*
X188920381Y-133483287D01*
X188920381Y-133673763D01*
X188872762Y-133769002D01*
X188777524Y-133816621D01*
X188729905Y-133816621D01*
X188634667Y-133769002D01*
X188587048Y-133673763D01*
X188587048Y-133530906D01*
X188539429Y-133435668D01*
X188444190Y-133388049D01*
X188396571Y-133388049D01*
X188301333Y-133435668D01*
X188253714Y-133530906D01*
X188253714Y-133673763D01*
X188301333Y-133769002D01*
X188920381Y-134816621D02*
X188444190Y-134483287D01*
X188920381Y-134245192D02*
X187920381Y-134245192D01*
X187920381Y-134626145D01*
X187968000Y-134721383D01*
X188015619Y-134769002D01*
X188110857Y-134816621D01*
X188253714Y-134816621D01*
X188348952Y-134769002D01*
X188396571Y-134721383D01*
X188444190Y-134626145D01*
X188444190Y-134245192D01*
X188872762Y-135626145D02*
X188920381Y-135530907D01*
X188920381Y-135340430D01*
X188872762Y-135245192D01*
X188777524Y-135197573D01*
X188396571Y-135197573D01*
X188301333Y-135245192D01*
X188253714Y-135340430D01*
X188253714Y-135530907D01*
X188301333Y-135626145D01*
X188396571Y-135673764D01*
X188491810Y-135673764D01*
X188587048Y-135197573D01*
X188920381Y-136245192D02*
X188872762Y-136149954D01*
X188777524Y-136102335D01*
X187920381Y-136102335D01*
X188920381Y-137054717D02*
X188396571Y-137054717D01*
X188301333Y-137007098D01*
X188253714Y-136911860D01*
X188253714Y-136721383D01*
X188301333Y-136626145D01*
X188872762Y-137054717D02*
X188920381Y-136959479D01*
X188920381Y-136721383D01*
X188872762Y-136626145D01*
X188777524Y-136578526D01*
X188682286Y-136578526D01*
X188587048Y-136626145D01*
X188539429Y-136721383D01*
X188539429Y-136959479D01*
X188491810Y-137054717D01*
X188253714Y-137435669D02*
X188920381Y-137673764D01*
X188253714Y-137911860D02*
X188920381Y-137673764D01*
X189158476Y-137578526D01*
X189206095Y-137530907D01*
X189253714Y-137435669D01*
D12*
X233404919Y-133180905D02*
X233404919Y-132380905D01*
X233166824Y-132380905D01*
X233023966Y-132419000D01*
X232928728Y-132495190D01*
X232881109Y-132571381D01*
X232833490Y-132723762D01*
X232833490Y-132838048D01*
X232881109Y-132990429D01*
X232928728Y-133066619D01*
X233023966Y-133142810D01*
X233166824Y-133180905D01*
X233404919Y-133180905D01*
X232500157Y-132380905D02*
X231881109Y-132380905D01*
X232214443Y-132685667D01*
X232071585Y-132685667D01*
X231976347Y-132723762D01*
X231928728Y-132761857D01*
X231881109Y-132838048D01*
X231881109Y-133028524D01*
X231928728Y-133104714D01*
X231976347Y-133142810D01*
X232071585Y-133180905D01*
X232357300Y-133180905D01*
X232452538Y-133142810D01*
X232500157Y-133104714D01*
X230928728Y-133180905D02*
X231500157Y-133180905D01*
X231214443Y-133180905D02*
X231214443Y-132380905D01*
X231309681Y-132495190D01*
X231404919Y-132571381D01*
X231500157Y-132609476D01*
X229738252Y-132761857D02*
X228976347Y-132761857D01*
X228976347Y-132990429D02*
X229738252Y-132990429D01*
X227214442Y-133180905D02*
X227785871Y-133180905D01*
X227500157Y-133180905D02*
X227500157Y-132380905D01*
X227595395Y-132495190D01*
X227690633Y-132571381D01*
X227785871Y-132609476D01*
X226357299Y-132647571D02*
X226357299Y-133180905D01*
X226595395Y-132342810D02*
X226833490Y-132914238D01*
X226214442Y-132914238D01*
X233404919Y-134500905D02*
X233404919Y-133700905D01*
X233166824Y-133700905D01*
X233023966Y-133739000D01*
X232928728Y-133815190D01*
X232881109Y-133891381D01*
X232833490Y-134043762D01*
X232833490Y-134158048D01*
X232881109Y-134310429D01*
X232928728Y-134386619D01*
X233023966Y-134462810D01*
X233166824Y-134500905D01*
X233404919Y-134500905D01*
X232500157Y-133700905D02*
X231881109Y-133700905D01*
X232214443Y-134005667D01*
X232071585Y-134005667D01*
X231976347Y-134043762D01*
X231928728Y-134081857D01*
X231881109Y-134158048D01*
X231881109Y-134348524D01*
X231928728Y-134424714D01*
X231976347Y-134462810D01*
X232071585Y-134500905D01*
X232357300Y-134500905D01*
X232452538Y-134462810D01*
X232500157Y-134424714D01*
X231262062Y-133700905D02*
X231166823Y-133700905D01*
X231071585Y-133739000D01*
X231023966Y-133777095D01*
X230976347Y-133853286D01*
X230928728Y-134005667D01*
X230928728Y-134196143D01*
X230976347Y-134348524D01*
X231023966Y-134424714D01*
X231071585Y-134462810D01*
X231166823Y-134500905D01*
X231262062Y-134500905D01*
X231357300Y-134462810D01*
X231404919Y-134424714D01*
X231452538Y-134348524D01*
X231500157Y-134196143D01*
X231500157Y-134005667D01*
X231452538Y-133853286D01*
X231404919Y-133777095D01*
X231357300Y-133739000D01*
X231262062Y-133700905D01*
X229738252Y-134081857D02*
X228976347Y-134081857D01*
X228976347Y-134310429D02*
X229738252Y-134310429D01*
X227214442Y-134500905D02*
X227785871Y-134500905D01*
X227500157Y-134500905D02*
X227500157Y-133700905D01*
X227595395Y-133815190D01*
X227690633Y-133891381D01*
X227785871Y-133929476D01*
X226881109Y-133700905D02*
X226262061Y-133700905D01*
X226595395Y-134005667D01*
X226452537Y-134005667D01*
X226357299Y-134043762D01*
X226309680Y-134081857D01*
X226262061Y-134158048D01*
X226262061Y-134348524D01*
X226309680Y-134424714D01*
X226357299Y-134462810D01*
X226452537Y-134500905D01*
X226738252Y-134500905D01*
X226833490Y-134462810D01*
X226881109Y-134424714D01*
X233404919Y-135820905D02*
X233404919Y-135020905D01*
X233166824Y-135020905D01*
X233023966Y-135059000D01*
X232928728Y-135135190D01*
X232881109Y-135211381D01*
X232833490Y-135363762D01*
X232833490Y-135478048D01*
X232881109Y-135630429D01*
X232928728Y-135706619D01*
X233023966Y-135782810D01*
X233166824Y-135820905D01*
X233404919Y-135820905D01*
X232452538Y-135097095D02*
X232404919Y-135059000D01*
X232309681Y-135020905D01*
X232071585Y-135020905D01*
X231976347Y-135059000D01*
X231928728Y-135097095D01*
X231881109Y-135173286D01*
X231881109Y-135249476D01*
X231928728Y-135363762D01*
X232500157Y-135820905D01*
X231881109Y-135820905D01*
X231404919Y-135820905D02*
X231214443Y-135820905D01*
X231119204Y-135782810D01*
X231071585Y-135744714D01*
X230976347Y-135630429D01*
X230928728Y-135478048D01*
X230928728Y-135173286D01*
X230976347Y-135097095D01*
X231023966Y-135059000D01*
X231119204Y-135020905D01*
X231309681Y-135020905D01*
X231404919Y-135059000D01*
X231452538Y-135097095D01*
X231500157Y-135173286D01*
X231500157Y-135363762D01*
X231452538Y-135439952D01*
X231404919Y-135478048D01*
X231309681Y-135516143D01*
X231119204Y-135516143D01*
X231023966Y-135478048D01*
X230976347Y-135439952D01*
X230928728Y-135363762D01*
X229738252Y-135401857D02*
X228976347Y-135401857D01*
X228976347Y-135630429D02*
X229738252Y-135630429D01*
X227214442Y-135820905D02*
X227785871Y-135820905D01*
X227500157Y-135820905D02*
X227500157Y-135020905D01*
X227595395Y-135135190D01*
X227690633Y-135211381D01*
X227785871Y-135249476D01*
X226833490Y-135097095D02*
X226785871Y-135059000D01*
X226690633Y-135020905D01*
X226452537Y-135020905D01*
X226357299Y-135059000D01*
X226309680Y-135097095D01*
X226262061Y-135173286D01*
X226262061Y-135249476D01*
X226309680Y-135363762D01*
X226881109Y-135820905D01*
X226262061Y-135820905D01*
X233404919Y-137140905D02*
X233404919Y-136340905D01*
X233166824Y-136340905D01*
X233023966Y-136379000D01*
X232928728Y-136455190D01*
X232881109Y-136531381D01*
X232833490Y-136683762D01*
X232833490Y-136798048D01*
X232881109Y-136950429D01*
X232928728Y-137026619D01*
X233023966Y-137102810D01*
X233166824Y-137140905D01*
X233404919Y-137140905D01*
X232452538Y-136417095D02*
X232404919Y-136379000D01*
X232309681Y-136340905D01*
X232071585Y-136340905D01*
X231976347Y-136379000D01*
X231928728Y-136417095D01*
X231881109Y-136493286D01*
X231881109Y-136569476D01*
X231928728Y-136683762D01*
X232500157Y-137140905D01*
X231881109Y-137140905D01*
X231309681Y-136683762D02*
X231404919Y-136645667D01*
X231452538Y-136607571D01*
X231500157Y-136531381D01*
X231500157Y-136493286D01*
X231452538Y-136417095D01*
X231404919Y-136379000D01*
X231309681Y-136340905D01*
X231119204Y-136340905D01*
X231023966Y-136379000D01*
X230976347Y-136417095D01*
X230928728Y-136493286D01*
X230928728Y-136531381D01*
X230976347Y-136607571D01*
X231023966Y-136645667D01*
X231119204Y-136683762D01*
X231309681Y-136683762D01*
X231404919Y-136721857D01*
X231452538Y-136759952D01*
X231500157Y-136836143D01*
X231500157Y-136988524D01*
X231452538Y-137064714D01*
X231404919Y-137102810D01*
X231309681Y-137140905D01*
X231119204Y-137140905D01*
X231023966Y-137102810D01*
X230976347Y-137064714D01*
X230928728Y-136988524D01*
X230928728Y-136836143D01*
X230976347Y-136759952D01*
X231023966Y-136721857D01*
X231119204Y-136683762D01*
X229738252Y-136721857D02*
X228976347Y-136721857D01*
X228976347Y-136950429D02*
X229738252Y-136950429D01*
X227214442Y-137140905D02*
X227785871Y-137140905D01*
X227500157Y-137140905D02*
X227500157Y-136340905D01*
X227595395Y-136455190D01*
X227690633Y-136531381D01*
X227785871Y-136569476D01*
X226262061Y-137140905D02*
X226833490Y-137140905D01*
X226547776Y-137140905D02*
X226547776Y-136340905D01*
X226643014Y-136455190D01*
X226738252Y-136531381D01*
X226833490Y-136569476D01*
X233404919Y-138460905D02*
X233404919Y-137660905D01*
X233166824Y-137660905D01*
X233023966Y-137699000D01*
X232928728Y-137775190D01*
X232881109Y-137851381D01*
X232833490Y-138003762D01*
X232833490Y-138118048D01*
X232881109Y-138270429D01*
X232928728Y-138346619D01*
X233023966Y-138422810D01*
X233166824Y-138460905D01*
X233404919Y-138460905D01*
X232452538Y-137737095D02*
X232404919Y-137699000D01*
X232309681Y-137660905D01*
X232071585Y-137660905D01*
X231976347Y-137699000D01*
X231928728Y-137737095D01*
X231881109Y-137813286D01*
X231881109Y-137889476D01*
X231928728Y-138003762D01*
X232500157Y-138460905D01*
X231881109Y-138460905D01*
X231547776Y-137660905D02*
X230881109Y-137660905D01*
X231309681Y-138460905D01*
X229738252Y-138041857D02*
X228976347Y-138041857D01*
X228976347Y-138270429D02*
X229738252Y-138270429D01*
X227214442Y-138460905D02*
X227785871Y-138460905D01*
X227500157Y-138460905D02*
X227500157Y-137660905D01*
X227595395Y-137775190D01*
X227690633Y-137851381D01*
X227785871Y-137889476D01*
X226595395Y-137660905D02*
X226500156Y-137660905D01*
X226404918Y-137699000D01*
X226357299Y-137737095D01*
X226309680Y-137813286D01*
X226262061Y-137965667D01*
X226262061Y-138156143D01*
X226309680Y-138308524D01*
X226357299Y-138384714D01*
X226404918Y-138422810D01*
X226500156Y-138460905D01*
X226595395Y-138460905D01*
X226690633Y-138422810D01*
X226738252Y-138384714D01*
X226785871Y-138308524D01*
X226833490Y-138156143D01*
X226833490Y-137965667D01*
X226785871Y-137813286D01*
X226738252Y-137737095D01*
X226690633Y-137699000D01*
X226595395Y-137660905D01*
X233309681Y-139780905D02*
X233309681Y-138980905D01*
X233071586Y-138980905D01*
X232928728Y-139019000D01*
X232833490Y-139095190D01*
X232785871Y-139171381D01*
X232738252Y-139323762D01*
X232738252Y-139438048D01*
X232785871Y-139590429D01*
X232833490Y-139666619D01*
X232928728Y-139742810D01*
X233071586Y-139780905D01*
X233309681Y-139780905D01*
X232357300Y-139057095D02*
X232309681Y-139019000D01*
X232214443Y-138980905D01*
X231976347Y-138980905D01*
X231881109Y-139019000D01*
X231833490Y-139057095D01*
X231785871Y-139133286D01*
X231785871Y-139209476D01*
X231833490Y-139323762D01*
X232404919Y-139780905D01*
X231785871Y-139780905D01*
X230928728Y-138980905D02*
X231119205Y-138980905D01*
X231214443Y-139019000D01*
X231262062Y-139057095D01*
X231357300Y-139171381D01*
X231404919Y-139323762D01*
X231404919Y-139628524D01*
X231357300Y-139704714D01*
X231309681Y-139742810D01*
X231214443Y-139780905D01*
X231023966Y-139780905D01*
X230928728Y-139742810D01*
X230881109Y-139704714D01*
X230833490Y-139628524D01*
X230833490Y-139438048D01*
X230881109Y-139361857D01*
X230928728Y-139323762D01*
X231023966Y-139285667D01*
X231214443Y-139285667D01*
X231309681Y-139323762D01*
X231357300Y-139361857D01*
X231404919Y-139438048D01*
X229643014Y-139361857D02*
X228881109Y-139361857D01*
X228881109Y-139590429D02*
X229643014Y-139590429D01*
X227595395Y-139780905D02*
X227404919Y-139780905D01*
X227309680Y-139742810D01*
X227262061Y-139704714D01*
X227166823Y-139590429D01*
X227119204Y-139438048D01*
X227119204Y-139133286D01*
X227166823Y-139057095D01*
X227214442Y-139019000D01*
X227309680Y-138980905D01*
X227500157Y-138980905D01*
X227595395Y-139019000D01*
X227643014Y-139057095D01*
X227690633Y-139133286D01*
X227690633Y-139323762D01*
X227643014Y-139399952D01*
X227595395Y-139438048D01*
X227500157Y-139476143D01*
X227309680Y-139476143D01*
X227214442Y-139438048D01*
X227166823Y-139399952D01*
X227119204Y-139323762D01*
X233309681Y-141100905D02*
X233309681Y-140300905D01*
X233071586Y-140300905D01*
X232928728Y-140339000D01*
X232833490Y-140415190D01*
X232785871Y-140491381D01*
X232738252Y-140643762D01*
X232738252Y-140758048D01*
X232785871Y-140910429D01*
X232833490Y-140986619D01*
X232928728Y-141062810D01*
X233071586Y-141100905D01*
X233309681Y-141100905D01*
X232357300Y-140377095D02*
X232309681Y-140339000D01*
X232214443Y-140300905D01*
X231976347Y-140300905D01*
X231881109Y-140339000D01*
X231833490Y-140377095D01*
X231785871Y-140453286D01*
X231785871Y-140529476D01*
X231833490Y-140643762D01*
X232404919Y-141100905D01*
X231785871Y-141100905D01*
X230881109Y-140300905D02*
X231357300Y-140300905D01*
X231404919Y-140681857D01*
X231357300Y-140643762D01*
X231262062Y-140605667D01*
X231023966Y-140605667D01*
X230928728Y-140643762D01*
X230881109Y-140681857D01*
X230833490Y-140758048D01*
X230833490Y-140948524D01*
X230881109Y-141024714D01*
X230928728Y-141062810D01*
X231023966Y-141100905D01*
X231262062Y-141100905D01*
X231357300Y-141062810D01*
X231404919Y-141024714D01*
X229643014Y-140681857D02*
X228881109Y-140681857D01*
X228881109Y-140910429D02*
X229643014Y-140910429D01*
X227500157Y-140643762D02*
X227595395Y-140605667D01*
X227643014Y-140567571D01*
X227690633Y-140491381D01*
X227690633Y-140453286D01*
X227643014Y-140377095D01*
X227595395Y-140339000D01*
X227500157Y-140300905D01*
X227309680Y-140300905D01*
X227214442Y-140339000D01*
X227166823Y-140377095D01*
X227119204Y-140453286D01*
X227119204Y-140491381D01*
X227166823Y-140567571D01*
X227214442Y-140605667D01*
X227309680Y-140643762D01*
X227500157Y-140643762D01*
X227595395Y-140681857D01*
X227643014Y-140719952D01*
X227690633Y-140796143D01*
X227690633Y-140948524D01*
X227643014Y-141024714D01*
X227595395Y-141062810D01*
X227500157Y-141100905D01*
X227309680Y-141100905D01*
X227214442Y-141062810D01*
X227166823Y-141024714D01*
X227119204Y-140948524D01*
X227119204Y-140796143D01*
X227166823Y-140719952D01*
X227214442Y-140681857D01*
X227309680Y-140643762D01*
X151275715Y-133701381D02*
X151275715Y-132701381D01*
X151085239Y-132701381D01*
X150970953Y-132749000D01*
X150894762Y-132844238D01*
X150856667Y-132939476D01*
X150818572Y-133129952D01*
X150818572Y-133272810D01*
X150856667Y-133463286D01*
X150894762Y-133558524D01*
X150970953Y-133653762D01*
X151085239Y-133701381D01*
X151275715Y-133701381D01*
X150513810Y-132796619D02*
X150475715Y-132749000D01*
X150399524Y-132701381D01*
X150209048Y-132701381D01*
X150132858Y-132749000D01*
X150094762Y-132796619D01*
X150056667Y-132891857D01*
X150056667Y-132987095D01*
X150094762Y-133129952D01*
X150551905Y-133701381D01*
X150056667Y-133701381D01*
X147885238Y-133177571D02*
X147275714Y-133177571D01*
X147275714Y-133463286D02*
X147885238Y-133463286D01*
X146361428Y-132701381D02*
X145828095Y-132701381D01*
X146170952Y-133701381D01*
X151275715Y-135301381D02*
X151275715Y-134301381D01*
X151085239Y-134301381D01*
X150970953Y-134349000D01*
X150894762Y-134444238D01*
X150856667Y-134539476D01*
X150818572Y-134729952D01*
X150818572Y-134872810D01*
X150856667Y-135063286D01*
X150894762Y-135158524D01*
X150970953Y-135253762D01*
X151085239Y-135301381D01*
X151275715Y-135301381D01*
X150551905Y-134301381D02*
X150056667Y-134301381D01*
X150323334Y-134682333D01*
X150209048Y-134682333D01*
X150132858Y-134729952D01*
X150094762Y-134777571D01*
X150056667Y-134872810D01*
X150056667Y-135110905D01*
X150094762Y-135206143D01*
X150132858Y-135253762D01*
X150209048Y-135301381D01*
X150437620Y-135301381D01*
X150513810Y-135253762D01*
X150551905Y-135206143D01*
X147885238Y-134777571D02*
X147275714Y-134777571D01*
X147275714Y-135063286D02*
X147885238Y-135063286D01*
X145942381Y-134301381D02*
X146094762Y-134301381D01*
X146170952Y-134349000D01*
X146209047Y-134396619D01*
X146285238Y-134539476D01*
X146323333Y-134729952D01*
X146323333Y-135110905D01*
X146285238Y-135206143D01*
X146247143Y-135253762D01*
X146170952Y-135301381D01*
X146018571Y-135301381D01*
X145942381Y-135253762D01*
X145904285Y-135206143D01*
X145866190Y-135110905D01*
X145866190Y-134872810D01*
X145904285Y-134777571D01*
X145942381Y-134729952D01*
X146018571Y-134682333D01*
X146170952Y-134682333D01*
X146247143Y-134729952D01*
X146285238Y-134777571D01*
X146323333Y-134872810D01*
X151047143Y-136901381D02*
X151047143Y-135901381D01*
X150856667Y-135901381D01*
X150742381Y-135949000D01*
X150666190Y-136044238D01*
X150628095Y-136139476D01*
X150590000Y-136329952D01*
X150590000Y-136472810D01*
X150628095Y-136663286D01*
X150666190Y-136758524D01*
X150742381Y-136853762D01*
X150856667Y-136901381D01*
X151047143Y-136901381D01*
X150285238Y-135996619D02*
X150247143Y-135949000D01*
X150170952Y-135901381D01*
X149980476Y-135901381D01*
X149904286Y-135949000D01*
X149866190Y-135996619D01*
X149828095Y-136091857D01*
X149828095Y-136187095D01*
X149866190Y-136329952D01*
X150323333Y-136901381D01*
X149828095Y-136901381D01*
X149523333Y-135996619D02*
X149485238Y-135949000D01*
X149409047Y-135901381D01*
X149218571Y-135901381D01*
X149142381Y-135949000D01*
X149104285Y-135996619D01*
X149066190Y-136091857D01*
X149066190Y-136187095D01*
X149104285Y-136329952D01*
X149561428Y-136901381D01*
X149066190Y-136901381D01*
X148113809Y-136377571D02*
X147504285Y-136377571D01*
X147504285Y-136663286D02*
X148113809Y-136663286D01*
X146132856Y-135901381D02*
X146513809Y-135901381D01*
X146551904Y-136377571D01*
X146513809Y-136329952D01*
X146437618Y-136282333D01*
X146247142Y-136282333D01*
X146170952Y-136329952D01*
X146132856Y-136377571D01*
X146094761Y-136472810D01*
X146094761Y-136710905D01*
X146132856Y-136806143D01*
X146170952Y-136853762D01*
X146247142Y-136901381D01*
X146437618Y-136901381D01*
X146513809Y-136853762D01*
X146551904Y-136806143D01*
X151047143Y-138501381D02*
X151047143Y-137501381D01*
X150856667Y-137501381D01*
X150742381Y-137549000D01*
X150666190Y-137644238D01*
X150628095Y-137739476D01*
X150590000Y-137929952D01*
X150590000Y-138072810D01*
X150628095Y-138263286D01*
X150666190Y-138358524D01*
X150742381Y-138453762D01*
X150856667Y-138501381D01*
X151047143Y-138501381D01*
X150285238Y-137596619D02*
X150247143Y-137549000D01*
X150170952Y-137501381D01*
X149980476Y-137501381D01*
X149904286Y-137549000D01*
X149866190Y-137596619D01*
X149828095Y-137691857D01*
X149828095Y-137787095D01*
X149866190Y-137929952D01*
X150323333Y-138501381D01*
X149828095Y-138501381D01*
X149066190Y-138501381D02*
X149523333Y-138501381D01*
X149294762Y-138501381D02*
X149294762Y-137501381D01*
X149370952Y-137644238D01*
X149447143Y-137739476D01*
X149523333Y-137787095D01*
X148113809Y-137977571D02*
X147504285Y-137977571D01*
X147504285Y-138263286D02*
X148113809Y-138263286D01*
X146170952Y-137834714D02*
X146170952Y-138501381D01*
X146361428Y-137453762D02*
X146551904Y-138168048D01*
X146056666Y-138168048D01*
X151047143Y-140101381D02*
X151047143Y-139101381D01*
X150856667Y-139101381D01*
X150742381Y-139149000D01*
X150666190Y-139244238D01*
X150628095Y-139339476D01*
X150590000Y-139529952D01*
X150590000Y-139672810D01*
X150628095Y-139863286D01*
X150666190Y-139958524D01*
X150742381Y-140053762D01*
X150856667Y-140101381D01*
X151047143Y-140101381D01*
X150285238Y-139196619D02*
X150247143Y-139149000D01*
X150170952Y-139101381D01*
X149980476Y-139101381D01*
X149904286Y-139149000D01*
X149866190Y-139196619D01*
X149828095Y-139291857D01*
X149828095Y-139387095D01*
X149866190Y-139529952D01*
X150323333Y-140101381D01*
X149828095Y-140101381D01*
X149332857Y-139101381D02*
X149256666Y-139101381D01*
X149180476Y-139149000D01*
X149142381Y-139196619D01*
X149104285Y-139291857D01*
X149066190Y-139482333D01*
X149066190Y-139720429D01*
X149104285Y-139910905D01*
X149142381Y-140006143D01*
X149180476Y-140053762D01*
X149256666Y-140101381D01*
X149332857Y-140101381D01*
X149409047Y-140053762D01*
X149447143Y-140006143D01*
X149485238Y-139910905D01*
X149523333Y-139720429D01*
X149523333Y-139482333D01*
X149485238Y-139291857D01*
X149447143Y-139196619D01*
X149409047Y-139149000D01*
X149332857Y-139101381D01*
X148113809Y-139577571D02*
X147504285Y-139577571D01*
X147504285Y-139863286D02*
X148113809Y-139863286D01*
X146589999Y-139101381D02*
X146094761Y-139101381D01*
X146361428Y-139482333D01*
X146247142Y-139482333D01*
X146170952Y-139529952D01*
X146132856Y-139577571D01*
X146094761Y-139672810D01*
X146094761Y-139910905D01*
X146132856Y-140006143D01*
X146170952Y-140053762D01*
X146247142Y-140101381D01*
X146475714Y-140101381D01*
X146551904Y-140053762D01*
X146589999Y-140006143D01*
X151047143Y-141701381D02*
X151047143Y-140701381D01*
X150856667Y-140701381D01*
X150742381Y-140749000D01*
X150666190Y-140844238D01*
X150628095Y-140939476D01*
X150590000Y-141129952D01*
X150590000Y-141272810D01*
X150628095Y-141463286D01*
X150666190Y-141558524D01*
X150742381Y-141653762D01*
X150856667Y-141701381D01*
X151047143Y-141701381D01*
X149828095Y-141701381D02*
X150285238Y-141701381D01*
X150056667Y-141701381D02*
X150056667Y-140701381D01*
X150132857Y-140844238D01*
X150209048Y-140939476D01*
X150285238Y-140987095D01*
X149447143Y-141701381D02*
X149294762Y-141701381D01*
X149218571Y-141653762D01*
X149180476Y-141606143D01*
X149104285Y-141463286D01*
X149066190Y-141272810D01*
X149066190Y-140891857D01*
X149104285Y-140796619D01*
X149142381Y-140749000D01*
X149218571Y-140701381D01*
X149370952Y-140701381D01*
X149447143Y-140749000D01*
X149485238Y-140796619D01*
X149523333Y-140891857D01*
X149523333Y-141129952D01*
X149485238Y-141225190D01*
X149447143Y-141272810D01*
X149370952Y-141320429D01*
X149218571Y-141320429D01*
X149142381Y-141272810D01*
X149104285Y-141225190D01*
X149066190Y-141129952D01*
X148113809Y-141177571D02*
X147504285Y-141177571D01*
X147504285Y-141463286D02*
X148113809Y-141463286D01*
X146551904Y-140796619D02*
X146513809Y-140749000D01*
X146437618Y-140701381D01*
X146247142Y-140701381D01*
X146170952Y-140749000D01*
X146132856Y-140796619D01*
X146094761Y-140891857D01*
X146094761Y-140987095D01*
X146132856Y-141129952D01*
X146589999Y-141701381D01*
X146094761Y-141701381D01*
X151047143Y-143301381D02*
X151047143Y-142301381D01*
X150856667Y-142301381D01*
X150742381Y-142349000D01*
X150666190Y-142444238D01*
X150628095Y-142539476D01*
X150590000Y-142729952D01*
X150590000Y-142872810D01*
X150628095Y-143063286D01*
X150666190Y-143158524D01*
X150742381Y-143253762D01*
X150856667Y-143301381D01*
X151047143Y-143301381D01*
X149828095Y-143301381D02*
X150285238Y-143301381D01*
X150056667Y-143301381D02*
X150056667Y-142301381D01*
X150132857Y-142444238D01*
X150209048Y-142539476D01*
X150285238Y-142587095D01*
X149370952Y-142729952D02*
X149447143Y-142682333D01*
X149485238Y-142634714D01*
X149523333Y-142539476D01*
X149523333Y-142491857D01*
X149485238Y-142396619D01*
X149447143Y-142349000D01*
X149370952Y-142301381D01*
X149218571Y-142301381D01*
X149142381Y-142349000D01*
X149104285Y-142396619D01*
X149066190Y-142491857D01*
X149066190Y-142539476D01*
X149104285Y-142634714D01*
X149142381Y-142682333D01*
X149218571Y-142729952D01*
X149370952Y-142729952D01*
X149447143Y-142777571D01*
X149485238Y-142825190D01*
X149523333Y-142920429D01*
X149523333Y-143110905D01*
X149485238Y-143206143D01*
X149447143Y-143253762D01*
X149370952Y-143301381D01*
X149218571Y-143301381D01*
X149142381Y-143253762D01*
X149104285Y-143206143D01*
X149066190Y-143110905D01*
X149066190Y-142920429D01*
X149104285Y-142825190D01*
X149142381Y-142777571D01*
X149218571Y-142729952D01*
X148113809Y-142777571D02*
X147504285Y-142777571D01*
X147504285Y-143063286D02*
X148113809Y-143063286D01*
X146094761Y-143301381D02*
X146551904Y-143301381D01*
X146323333Y-143301381D02*
X146323333Y-142301381D01*
X146399523Y-142444238D01*
X146475714Y-142539476D01*
X146551904Y-142587095D01*
D13*
X199390000Y-83820000D02*
X199390000Y-88900000D01*
X199390000Y-88900000D02*
X201930000Y-88900000D01*
X201930000Y-88900000D02*
X201930000Y-83820000D01*
X201930000Y-83820000D02*
X199390000Y-83820000D01*
X200660000Y-83820000D02*
X200660000Y-82550000D01*
X200660000Y-88900000D02*
X200660000Y-90170000D01*
D14*
X175845000Y-79772000D02*
X175845000Y-95772000D01*
X175845000Y-95772000D02*
X181245000Y-95772000D01*
X175845000Y-79772000D02*
X181245000Y-79772000D01*
X197045000Y-79772000D02*
X197845000Y-79772000D01*
X197845000Y-79772000D02*
X197845000Y-95772000D01*
X197845000Y-95772000D02*
X197045000Y-95772000D01*
X175845000Y-95772000D02*
X179645000Y-79772000D01*
X175845000Y-79772000D02*
X179645000Y-95772000D01*
X179645000Y-79764000D02*
X179645000Y-95764000D01*
D13*
X197612261Y-86442254D02*
X197136070Y-86108920D01*
X197612261Y-85870825D02*
X196612261Y-85870825D01*
X196612261Y-86251778D01*
X196659880Y-86347016D01*
X196707499Y-86394635D01*
X196802737Y-86442254D01*
X196945594Y-86442254D01*
X197040832Y-86394635D01*
X197088451Y-86347016D01*
X197136070Y-86251778D01*
X197136070Y-85870825D01*
X197612261Y-87394635D02*
X197612261Y-86823206D01*
X197612261Y-87108920D02*
X196612261Y-87108920D01*
X196755118Y-87013682D01*
X196850356Y-86918444D01*
X196897975Y-86823206D01*
X185348571Y-81439333D02*
X185348571Y-81772667D01*
X185872381Y-81915524D02*
X185872381Y-81439333D01*
X184872381Y-81439333D01*
X184872381Y-81915524D01*
X185824762Y-82296476D02*
X185872381Y-82439333D01*
X185872381Y-82677429D01*
X185824762Y-82772667D01*
X185777143Y-82820286D01*
X185681905Y-82867905D01*
X185586667Y-82867905D01*
X185491429Y-82820286D01*
X185443810Y-82772667D01*
X185396190Y-82677429D01*
X185348571Y-82486952D01*
X185300952Y-82391714D01*
X185253333Y-82344095D01*
X185158095Y-82296476D01*
X185062857Y-82296476D01*
X184967619Y-82344095D01*
X184920000Y-82391714D01*
X184872381Y-82486952D01*
X184872381Y-82725048D01*
X184920000Y-82867905D01*
X185872381Y-83296476D02*
X184872381Y-83296476D01*
X184872381Y-83677429D01*
X184920000Y-83772667D01*
X184967619Y-83820286D01*
X185062857Y-83867905D01*
X185205714Y-83867905D01*
X185300952Y-83820286D01*
X185348571Y-83772667D01*
X185396190Y-83677429D01*
X185396190Y-83296476D01*
X185300952Y-84439333D02*
X185253333Y-84344095D01*
X185205714Y-84296476D01*
X185110476Y-84248857D01*
X185062857Y-84248857D01*
X184967619Y-84296476D01*
X184920000Y-84344095D01*
X184872381Y-84439333D01*
X184872381Y-84629810D01*
X184920000Y-84725048D01*
X184967619Y-84772667D01*
X185062857Y-84820286D01*
X185110476Y-84820286D01*
X185205714Y-84772667D01*
X185253333Y-84725048D01*
X185300952Y-84629810D01*
X185300952Y-84439333D01*
X185348571Y-84344095D01*
X185396190Y-84296476D01*
X185491429Y-84248857D01*
X185681905Y-84248857D01*
X185777143Y-84296476D01*
X185824762Y-84344095D01*
X185872381Y-84439333D01*
X185872381Y-84629810D01*
X185824762Y-84725048D01*
X185777143Y-84772667D01*
X185681905Y-84820286D01*
X185491429Y-84820286D01*
X185396190Y-84772667D01*
X185348571Y-84725048D01*
X185300952Y-84629810D01*
X184967619Y-85201238D02*
X184920000Y-85248857D01*
X184872381Y-85344095D01*
X184872381Y-85582191D01*
X184920000Y-85677429D01*
X184967619Y-85725048D01*
X185062857Y-85772667D01*
X185158095Y-85772667D01*
X185300952Y-85725048D01*
X185872381Y-85153619D01*
X185872381Y-85772667D01*
X184872381Y-86629810D02*
X184872381Y-86439333D01*
X184920000Y-86344095D01*
X184967619Y-86296476D01*
X185110476Y-86201238D01*
X185300952Y-86153619D01*
X185681905Y-86153619D01*
X185777143Y-86201238D01*
X185824762Y-86248857D01*
X185872381Y-86344095D01*
X185872381Y-86534572D01*
X185824762Y-86629810D01*
X185777143Y-86677429D01*
X185681905Y-86725048D01*
X185443810Y-86725048D01*
X185348571Y-86677429D01*
X185300952Y-86629810D01*
X185253333Y-86534572D01*
X185253333Y-86344095D01*
X185300952Y-86248857D01*
X185348571Y-86201238D01*
X185443810Y-86153619D01*
X184872381Y-87582191D02*
X184872381Y-87391714D01*
X184920000Y-87296476D01*
X184967619Y-87248857D01*
X185110476Y-87153619D01*
X185300952Y-87106000D01*
X185681905Y-87106000D01*
X185777143Y-87153619D01*
X185824762Y-87201238D01*
X185872381Y-87296476D01*
X185872381Y-87486953D01*
X185824762Y-87582191D01*
X185777143Y-87629810D01*
X185681905Y-87677429D01*
X185443810Y-87677429D01*
X185348571Y-87629810D01*
X185300952Y-87582191D01*
X185253333Y-87486953D01*
X185253333Y-87296476D01*
X185300952Y-87201238D01*
X185348571Y-87153619D01*
X185443810Y-87106000D01*
X185491429Y-88106000D02*
X185491429Y-88867905D01*
X184872381Y-89534571D02*
X184872381Y-89629810D01*
X184920000Y-89725048D01*
X184967619Y-89772667D01*
X185062857Y-89820286D01*
X185253333Y-89867905D01*
X185491429Y-89867905D01*
X185681905Y-89820286D01*
X185777143Y-89772667D01*
X185824762Y-89725048D01*
X185872381Y-89629810D01*
X185872381Y-89534571D01*
X185824762Y-89439333D01*
X185777143Y-89391714D01*
X185681905Y-89344095D01*
X185491429Y-89296476D01*
X185253333Y-89296476D01*
X185062857Y-89344095D01*
X184967619Y-89391714D01*
X184920000Y-89439333D01*
X184872381Y-89534571D01*
X184872381Y-90201238D02*
X184872381Y-90867905D01*
X185872381Y-90439333D01*
X177297381Y-83949714D02*
X176297381Y-83949714D01*
X177297381Y-84521143D01*
X176297381Y-84521143D01*
X177297381Y-85140190D02*
X177249762Y-85044952D01*
X177202143Y-84997333D01*
X177106905Y-84949714D01*
X176821190Y-84949714D01*
X176725952Y-84997333D01*
X176678333Y-85044952D01*
X176630714Y-85140190D01*
X176630714Y-85283048D01*
X176678333Y-85378286D01*
X176725952Y-85425905D01*
X176821190Y-85473524D01*
X177106905Y-85473524D01*
X177202143Y-85425905D01*
X177249762Y-85378286D01*
X177297381Y-85283048D01*
X177297381Y-85140190D01*
X177202143Y-87235429D02*
X177249762Y-87187810D01*
X177297381Y-87044953D01*
X177297381Y-86949715D01*
X177249762Y-86806857D01*
X177154524Y-86711619D01*
X177059286Y-86664000D01*
X176868810Y-86616381D01*
X176725952Y-86616381D01*
X176535476Y-86664000D01*
X176440238Y-86711619D01*
X176345000Y-86806857D01*
X176297381Y-86949715D01*
X176297381Y-87044953D01*
X176345000Y-87187810D01*
X176392619Y-87235429D01*
X177297381Y-87806857D02*
X177249762Y-87711619D01*
X177202143Y-87664000D01*
X177106905Y-87616381D01*
X176821190Y-87616381D01*
X176725952Y-87664000D01*
X176678333Y-87711619D01*
X176630714Y-87806857D01*
X176630714Y-87949715D01*
X176678333Y-88044953D01*
X176725952Y-88092572D01*
X176821190Y-88140191D01*
X177106905Y-88140191D01*
X177202143Y-88092572D01*
X177249762Y-88044953D01*
X177297381Y-87949715D01*
X177297381Y-87806857D01*
X176630714Y-88568762D02*
X177630714Y-88568762D01*
X176678333Y-88568762D02*
X176630714Y-88664000D01*
X176630714Y-88854477D01*
X176678333Y-88949715D01*
X176725952Y-88997334D01*
X176821190Y-89044953D01*
X177106905Y-89044953D01*
X177202143Y-88997334D01*
X177249762Y-88949715D01*
X177297381Y-88854477D01*
X177297381Y-88664000D01*
X177249762Y-88568762D01*
X176630714Y-89473524D02*
X177630714Y-89473524D01*
X176678333Y-89473524D02*
X176630714Y-89568762D01*
X176630714Y-89759239D01*
X176678333Y-89854477D01*
X176725952Y-89902096D01*
X176821190Y-89949715D01*
X177106905Y-89949715D01*
X177202143Y-89902096D01*
X177249762Y-89854477D01*
X177297381Y-89759239D01*
X177297381Y-89568762D01*
X177249762Y-89473524D01*
X177249762Y-90759239D02*
X177297381Y-90664001D01*
X177297381Y-90473524D01*
X177249762Y-90378286D01*
X177154524Y-90330667D01*
X176773571Y-90330667D01*
X176678333Y-90378286D01*
X176630714Y-90473524D01*
X176630714Y-90664001D01*
X176678333Y-90759239D01*
X176773571Y-90806858D01*
X176868810Y-90806858D01*
X176964048Y-90330667D01*
X177297381Y-91235429D02*
X176630714Y-91235429D01*
X176821190Y-91235429D02*
X176725952Y-91283048D01*
X176678333Y-91330667D01*
X176630714Y-91425905D01*
X176630714Y-91521144D01*
M02*
