M48
;DRILL file {KiCad (2016-01-13 BZR 6465, Git 5af18e5)-product} date Wed 03 Feb 2016 11:29:09 AWST
;FORMAT={-:-/ absolute / inch / decimal}
FMAT,2
INCH,TZ
T1C0.016
T2C0.026
T3C0.031
T4C0.039
T5C0.040
T6C0.047
T7C0.050
T8C0.079
T9C0.120
%
G90
G05
M72
T1
X6.03Y-3.35
X6.405Y-3.68
X6.5759Y-3.7461
X6.64Y-5.645
X6.6465Y-5.5905
X6.77Y-3.43
X6.85Y-3.325
X6.8908Y-3.6839
X6.965Y-3.02
X7.08Y-3.02
X7.13Y-3.05
X7.17Y-4.2
X7.295Y-3.955
X7.451Y-3.8495
X7.5735Y-3.456
X7.6Y-2.99
X7.66Y-3.41
X7.675Y-3.275
X7.77Y-3.25
X7.895Y-3.43
X7.92Y-5.66
X7.9989Y-3.4702
X8.02Y-5.76
X8.07Y-5.62
X8.077Y-3.8753
X8.1066Y-3.8235
X8.225Y-5.625
X9.145Y-3.21
T2
X7.175Y-3.18
X7.175Y-3.7312
X7.2537Y-3.18
X7.2537Y-3.7312
X7.3325Y-3.18
X7.3325Y-3.7312
X7.4112Y-3.18
X7.4112Y-3.7312
X7.49Y-3.18
X7.49Y-3.7312
X7.5687Y-3.18
X7.5687Y-3.7312
X7.6474Y-3.18
X7.6474Y-3.7312
X7.7262Y-3.18
X7.7262Y-3.7312
T3
X6.08Y-3.25
X6.08Y-3.55
X6.18Y-3.25
X6.18Y-3.55
X6.19Y-3.06
X6.19Y-3.1387
X6.28Y-3.25
X6.28Y-3.55
X6.38Y-3.25
X6.38Y-3.55
X6.48Y-3.25
X6.48Y-3.55
X6.58Y-3.25
X6.58Y-3.55
X6.68Y-3.25
X6.68Y-3.55
X6.78Y-3.25
X6.78Y-3.55
X6.845Y-3.05
X6.845Y-3.1287
X8.1Y-3.25
X8.1Y-3.55
X8.2Y-3.25
X8.2Y-3.55
X8.3Y-3.25
X8.3Y-3.55
X8.4Y-3.25
X8.4Y-3.55
X8.5Y-3.25
X8.5Y-3.55
X8.6Y-3.25
X8.6Y-3.55
X8.7Y-3.25
X8.7Y-3.55
X8.8Y-3.25
X8.8Y-3.55
T4
X6.025Y-5.5
X6.025Y-5.9
X6.175Y-5.5
X6.175Y-5.9
X6.325Y-5.5
X6.325Y-5.9
X6.475Y-5.5
X6.475Y-5.9
X6.625Y-5.5
X6.625Y-5.9
X6.775Y-5.5
X6.775Y-5.9
X6.9Y-3.75
X6.9Y-3.85
X6.9Y-4.
X6.9Y-4.1
X6.9Y-4.25
X6.9Y-4.35
X6.9Y-4.5
X6.9Y-4.6
X6.9Y-4.75
X6.9Y-4.85
X6.9Y-5.
X6.9Y-5.1
X6.9Y-5.25
X6.9Y-5.35
X6.925Y-5.5
X6.925Y-5.9
X7.9Y-3.2
X7.9Y-3.6
X7.975Y-5.525
X7.975Y-5.925
X7.995Y-3.0549
X8.Y-3.75
X8.Y-3.85
X8.Y-4.
X8.Y-4.1
X8.Y-4.25
X8.Y-4.35
X8.Y-4.5
X8.Y-4.6
X8.Y-4.75
X8.Y-4.85
X8.Y-5.
X8.Y-5.1
X8.Y-5.25
X8.Y-5.35
X8.125Y-5.525
X8.125Y-5.925
X8.275Y-5.525
X8.275Y-5.925
X8.425Y-5.525
X8.425Y-5.925
X8.495Y-3.0549
X8.575Y-5.525
X8.575Y-5.925
X8.725Y-5.525
X8.725Y-5.925
X8.875Y-5.525
X8.875Y-5.925
X8.9551Y-3.28
X9.0749Y-3.675
T5
X6.05Y-3.8
X6.05Y-4.05
X6.05Y-4.3
X6.05Y-4.55
X6.05Y-4.8
X6.05Y-5.05
X6.05Y-5.3
X6.25Y-3.8
X6.25Y-4.05
X6.25Y-4.3
X6.25Y-4.55
X6.25Y-4.8
X6.25Y-5.05
X6.25Y-5.3
X6.375Y-3.075
X6.45Y-3.8
X6.45Y-4.05
X6.45Y-4.3
X6.45Y-4.55
X6.45Y-4.8
X6.45Y-5.05
X6.45Y-5.3
X6.475Y-3.075
X6.575Y-3.075
X6.65Y-3.8
X6.65Y-4.05
X6.65Y-4.3
X6.65Y-4.55
X6.65Y-4.8
X6.65Y-5.05
X6.65Y-5.3
X6.675Y-3.075
X7.1Y-3.8
X7.1Y-3.9
X7.1Y-4.
X7.1Y-4.1
X7.1Y-4.2
X7.1Y-4.3
X7.1Y-4.4
X7.1Y-4.5
X7.1Y-4.6
X7.1Y-4.7
X7.1Y-4.8
X7.1Y-4.9
X7.1Y-5.
X7.1Y-5.1
X7.1Y-5.2
X7.1Y-5.3
X7.1Y-5.4
X7.1Y-5.5
X7.1Y-5.6
X7.1Y-5.7
X7.275Y-3.535
X7.275Y-3.635
X7.3Y-5.825
X7.3Y-5.925
X7.375Y-3.535
X7.375Y-3.635
X7.4Y-3.04
X7.4Y-5.825
X7.4Y-5.925
X7.475Y-3.535
X7.475Y-3.635
X7.5Y-3.04
X7.5Y-5.825
X7.5Y-5.925
X7.575Y-3.535
X7.575Y-3.635
X7.6Y-5.825
X7.6Y-5.925
X7.8Y-3.8
X7.8Y-3.9
X7.8Y-4.
X7.8Y-4.1
X7.8Y-4.2
X7.8Y-4.3
X7.8Y-4.4
X7.8Y-4.5
X7.8Y-4.6
X7.8Y-4.7
X7.8Y-4.8
X7.8Y-4.9
X7.8Y-5.
X7.8Y-5.1
X7.8Y-5.2
X7.8Y-5.3
X7.8Y-5.4
X7.8Y-5.5
X7.8Y-5.6
X7.8Y-5.7
X8.25Y-3.8
X8.25Y-4.05
X8.25Y-4.3
X8.25Y-4.55
X8.25Y-4.8
X8.25Y-5.05
X8.25Y-5.3
X8.45Y-3.8
X8.45Y-4.05
X8.45Y-4.3
X8.45Y-4.55
X8.45Y-4.8
X8.45Y-5.05
X8.45Y-5.3
X8.65Y-3.8
X8.65Y-4.05
X8.65Y-4.3
X8.65Y-4.55
X8.65Y-4.8
X8.65Y-5.05
X8.65Y-5.3
X8.85Y-3.8
X8.85Y-4.05
X8.85Y-4.3
X8.85Y-4.55
X8.85Y-4.8
X8.85Y-5.05
X8.85Y-5.3
T6
X5.8Y-4.1
X5.8Y-4.2378
X5.8Y-4.3756
X5.8Y-4.5134
X5.8Y-4.6512
X5.8Y-4.789
X5.8Y-4.9268
X5.8Y-5.0646
X9.1Y-4.1004
X9.1Y-4.2382
X9.1Y-4.376
X9.1Y-4.5138
X9.1Y-4.6516
X9.1Y-4.7894
X9.1Y-4.9272
X9.1Y-5.065
T7
X8.395Y-3.0549
X8.895Y-3.0549
X8.9551Y-3.68
X9.0749Y-3.275
T9
X5.85Y-3.1
X5.85Y-5.85
X9.05Y-3.1
X9.05Y-5.85
T8
X5.825Y-3.4907G85X5.825Y-3.3332
G05
X5.825Y-3.8568G85X5.825Y-3.6993
G05
T0
M30
