M48
INCH,TZ
T1C0.016
T2C0.026
T3C0.031
T4C0.039
T5C0.040
T6C0.050
T7C0.120
%
G90
G05
T1
X64050Y-36800
X65759Y-37461
X66465Y-55905
X67700Y-34300
X68350Y-29800
X68908Y-36839
X69600Y-31050
X69650Y-30200
X70700Y-29900
X71300Y-30500
X75300Y-29900
X76400Y-34900
X76600Y-34100
X77950Y-30500
X78050Y-35350
X79250Y-30500
X79350Y-35350
X79989Y-34702
X80770Y-38753
X81066Y-38235
T2
X71750Y-31800
X71750Y-37312
X72537Y-31800
X72537Y-37312
X73325Y-31800
X73325Y-37312
X74112Y-31800
X74112Y-37312
X74900Y-31800
X74900Y-37312
X75687Y-31800
X75687Y-37312
X76474Y-31800
X76474Y-37312
X77262Y-31800
X77262Y-37312
T3
X60800Y-32500
X60800Y-35500
X61800Y-32500
X61800Y-35500
X62800Y-32500
X62800Y-35500
X63800Y-32500
X63800Y-35500
X64800Y-32500
X64800Y-35500
X65800Y-32500
X65800Y-35500
X66800Y-32500
X66800Y-35500
X67800Y-32500
X67800Y-35500
X68504Y-30787
X68504Y-31575
X80787Y-30866
X81000Y-32500
X81000Y-35500
X81575Y-30866
X82000Y-32500
X82000Y-35500
X83000Y-32500
X83000Y-35500
X83150Y-30866
X83937Y-30866
X84000Y-32500
X84000Y-35500
X85000Y-32500
X85000Y-35500
X85433Y-30866
X86000Y-32500
X86000Y-35500
X86220Y-30866
X87000Y-32500
X87000Y-35500
X88000Y-32500
X88000Y-35500
T4
X60250Y-55000
X60250Y-59000
X61750Y-55000
X61750Y-59000
X63250Y-55000
X63250Y-59000
X64750Y-55000
X64750Y-59000
X66250Y-55000
X66250Y-59000
X67750Y-55000
X67750Y-59000
X69000Y-37500
X69000Y-38500
X69000Y-40000
X69000Y-41000
X69000Y-42500
X69000Y-43500
X69000Y-45000
X69000Y-46000
X69000Y-47500
X69000Y-48500
X69000Y-50000
X69000Y-51000
X69000Y-52500
X69000Y-53500
X69250Y-55000
X69250Y-59000
X69750Y-34499
X73750Y-33251
X75000Y-33249
X79000Y-32000
X79000Y-34501
X79000Y-36000
X79750Y-55250
X79750Y-59250
X80000Y-37500
X80000Y-38500
X80000Y-40000
X80000Y-41000
X80000Y-42500
X80000Y-43500
X80000Y-45000
X80000Y-46000
X80000Y-47500
X80000Y-48500
X80000Y-50000
X80000Y-51000
X80000Y-52500
X80000Y-53500
X81250Y-55250
X81250Y-59250
X82750Y-55250
X82750Y-59250
X84250Y-55250
X84250Y-59250
X85750Y-55250
X85750Y-59250
X87250Y-55250
X87250Y-59250
X88750Y-55250
X88750Y-59250
T5
X58000Y-39500
X58000Y-40500
X58000Y-41500
X58000Y-42500
X58000Y-43500
X58000Y-44500
X58000Y-45500
X58000Y-46500
X58000Y-47500
X58000Y-48500
X58000Y-49500
X58000Y-50500
X58000Y-51500
X58000Y-52500
X60500Y-38000
X60500Y-40500
X60500Y-43000
X60500Y-45500
X60500Y-48000
X60500Y-50500
X60500Y-53000
X62500Y-38000
X62500Y-40500
X62500Y-43000
X62500Y-45500
X62500Y-48000
X62500Y-50500
X62500Y-53000
X63750Y-30750
X64500Y-38000
X64500Y-40500
X64500Y-43000
X64500Y-45500
X64500Y-48000
X64500Y-50500
X64500Y-53000
X64750Y-30750
X65750Y-30750
X66500Y-38000
X66500Y-40500
X66500Y-43000
X66500Y-45500
X66500Y-48000
X66500Y-50500
X66500Y-53000
X66750Y-30750
X71000Y-38000
X71000Y-39000
X71000Y-40000
X71000Y-41000
X71000Y-42000
X71000Y-43000
X71000Y-44000
X71000Y-45000
X71000Y-46000
X71000Y-47000
X71000Y-48000
X71000Y-49000
X71000Y-50000
X71000Y-51000
X71000Y-52000
X71000Y-53000
X71000Y-54000
X71000Y-55000
X71000Y-56000
X71000Y-57000
X73000Y-58250
X73000Y-59250
X74000Y-30500
X74000Y-58250
X74000Y-59250
X75000Y-30500
X75000Y-58250
X75000Y-59250
X76000Y-58250
X76000Y-59250
X78000Y-38000
X78000Y-39000
X78000Y-40000
X78000Y-41000
X78000Y-42000
X78000Y-43000
X78000Y-44000
X78000Y-45000
X78000Y-46000
X78000Y-47000
X78000Y-48000
X78000Y-49000
X78000Y-50000
X78000Y-51000
X78000Y-52000
X78000Y-53000
X78000Y-54000
X78000Y-55000
X78000Y-56000
X78000Y-57000
X82500Y-38000
X82500Y-40500
X82500Y-43000
X82500Y-45500
X82500Y-48000
X82500Y-50500
X82500Y-53000
X84500Y-38000
X84500Y-40500
X84500Y-43000
X84500Y-45500
X84500Y-48000
X84500Y-50500
X84500Y-53000
X86500Y-38000
X86500Y-40500
X86500Y-43000
X86500Y-45500
X86500Y-48000
X86500Y-50500
X86500Y-53000
X88500Y-38000
X88500Y-40500
X88500Y-43000
X88500Y-45500
X88500Y-48000
X88500Y-50500
X88500Y-53000
X91000Y-39500
X91000Y-40500
X91000Y-41500
X91000Y-42500
X91000Y-43500
X91000Y-44500
X91000Y-45500
X91000Y-46500
X91000Y-47500
X91000Y-48500
X91000Y-49500
X91000Y-50500
X91000Y-51500
X91000Y-52500
T6
X69750Y-33251
X73750Y-34499
X75000Y-34501
X79000Y-33249
T7
X58500Y-31000
X58500Y-58500
X90500Y-31000
X90500Y-58500
T0
M30
