G04 #@! TF.FileFunction,Legend,Bot*
%FSLAX46Y46*%
G04 Gerber Fmt 4.6, Leading zero omitted, Abs format (unit mm)*
G04 Created by KiCad (PCBNEW (2015-10-05 BZR 6247)-product) date Mon 12 Oct 2015 07:26:51 PM AWST*
%MOMM*%
G01*
G04 APERTURE LIST*
%ADD10C,0.100000*%
%ADD11C,0.300000*%
%ADD12C,0.150000*%
%ADD13C,0.152400*%
%ADD14C,0.010000*%
G04 APERTURE END LIST*
D10*
D11*
X187473619Y-108833332D02*
X186749810Y-108166665D01*
X187473619Y-107690474D02*
X185953619Y-107690474D01*
X185953619Y-108452379D01*
X186026000Y-108642855D01*
X186098381Y-108738094D01*
X186243143Y-108833332D01*
X186460286Y-108833332D01*
X186605048Y-108738094D01*
X186677429Y-108642855D01*
X186749810Y-108452379D01*
X186749810Y-107690474D01*
X187401238Y-110452379D02*
X187473619Y-110261903D01*
X187473619Y-109880951D01*
X187401238Y-109690474D01*
X187256476Y-109595236D01*
X186677429Y-109595236D01*
X186532667Y-109690474D01*
X186460286Y-109880951D01*
X186460286Y-110261903D01*
X186532667Y-110452379D01*
X186677429Y-110547617D01*
X186822190Y-110547617D01*
X186966952Y-109595236D01*
X187473619Y-111690475D02*
X187401238Y-111499999D01*
X187256476Y-111404760D01*
X185953619Y-111404760D01*
X187473619Y-113309522D02*
X186677429Y-113309522D01*
X186532667Y-113214284D01*
X186460286Y-113023808D01*
X186460286Y-112642856D01*
X186532667Y-112452379D01*
X187401238Y-113309522D02*
X187473619Y-113119046D01*
X187473619Y-112642856D01*
X187401238Y-112452379D01*
X187256476Y-112357141D01*
X187111714Y-112357141D01*
X186966952Y-112452379D01*
X186894571Y-112642856D01*
X186894571Y-113119046D01*
X186822190Y-113309522D01*
X186460286Y-114071427D02*
X187473619Y-114547618D01*
X186460286Y-115023808D02*
X187473619Y-114547618D01*
X187835524Y-114357142D01*
X187907905Y-114261903D01*
X187980286Y-114071427D01*
X187473619Y-117309523D02*
X185953619Y-117309523D01*
X185953619Y-117785714D01*
X186026000Y-118071428D01*
X186170762Y-118261904D01*
X186315524Y-118357143D01*
X186605048Y-118452381D01*
X186822190Y-118452381D01*
X187111714Y-118357143D01*
X187256476Y-118261904D01*
X187401238Y-118071428D01*
X187473619Y-117785714D01*
X187473619Y-117309523D01*
X187473619Y-119309523D02*
X186460286Y-119309523D01*
X186749810Y-119309523D02*
X186605048Y-119404762D01*
X186532667Y-119500000D01*
X186460286Y-119690476D01*
X186460286Y-119880952D01*
X187473619Y-120547618D02*
X186460286Y-120547618D01*
X185953619Y-120547618D02*
X186026000Y-120452380D01*
X186098381Y-120547618D01*
X186026000Y-120642857D01*
X185953619Y-120547618D01*
X186098381Y-120547618D01*
X186460286Y-121309523D02*
X187473619Y-121785714D01*
X186460286Y-122261904D01*
X187401238Y-123785714D02*
X187473619Y-123595238D01*
X187473619Y-123214286D01*
X187401238Y-123023809D01*
X187256476Y-122928571D01*
X186677429Y-122928571D01*
X186532667Y-123023809D01*
X186460286Y-123214286D01*
X186460286Y-123595238D01*
X186532667Y-123785714D01*
X186677429Y-123880952D01*
X186822190Y-123880952D01*
X186966952Y-122928571D01*
X187473619Y-124738095D02*
X186460286Y-124738095D01*
X186749810Y-124738095D02*
X186605048Y-124833334D01*
X186532667Y-124928572D01*
X186460286Y-125119048D01*
X186460286Y-125309524D01*
X187473619Y-127500000D02*
X185953619Y-127500000D01*
X186532667Y-127500000D02*
X186460286Y-127690477D01*
X186460286Y-128071429D01*
X186532667Y-128261905D01*
X186605048Y-128357143D01*
X186749810Y-128452381D01*
X187184095Y-128452381D01*
X187328857Y-128357143D01*
X187401238Y-128261905D01*
X187473619Y-128071429D01*
X187473619Y-127690477D01*
X187401238Y-127500000D01*
X186460286Y-129119048D02*
X187473619Y-129595239D01*
X186460286Y-130071429D02*
X187473619Y-129595239D01*
X187835524Y-129404763D01*
X187907905Y-129309524D01*
X187980286Y-129119048D01*
X187401238Y-132261906D02*
X187473619Y-132547621D01*
X187473619Y-133023811D01*
X187401238Y-133214287D01*
X187328857Y-133309525D01*
X187184095Y-133404764D01*
X187039333Y-133404764D01*
X186894571Y-133309525D01*
X186822190Y-133214287D01*
X186749810Y-133023811D01*
X186677429Y-132642859D01*
X186605048Y-132452383D01*
X186532667Y-132357144D01*
X186387905Y-132261906D01*
X186243143Y-132261906D01*
X186098381Y-132357144D01*
X186026000Y-132452383D01*
X185953619Y-132642859D01*
X185953619Y-133119049D01*
X186026000Y-133404764D01*
X187328857Y-134261906D02*
X187401238Y-134357145D01*
X187473619Y-134261906D01*
X187401238Y-134166668D01*
X187328857Y-134261906D01*
X187473619Y-134261906D01*
X187039333Y-135119049D02*
X187039333Y-136071430D01*
X187473619Y-134928573D02*
X185953619Y-135595240D01*
X187473619Y-136261907D01*
X186460286Y-136928573D02*
X187473619Y-136928573D01*
X186605048Y-136928573D02*
X186532667Y-137023812D01*
X186460286Y-137214288D01*
X186460286Y-137500002D01*
X186532667Y-137690478D01*
X186677429Y-137785716D01*
X187473619Y-137785716D01*
X186460286Y-138452383D02*
X186460286Y-139214288D01*
X185953619Y-138738097D02*
X187256476Y-138738097D01*
X187401238Y-138833336D01*
X187473619Y-139023812D01*
X187473619Y-139214288D01*
X187473619Y-140166669D02*
X187401238Y-139976193D01*
X187328857Y-139880954D01*
X187184095Y-139785716D01*
X186749810Y-139785716D01*
X186605048Y-139880954D01*
X186532667Y-139976193D01*
X186460286Y-140166669D01*
X186460286Y-140452383D01*
X186532667Y-140642859D01*
X186605048Y-140738097D01*
X186749810Y-140833335D01*
X187184095Y-140833335D01*
X187328857Y-140738097D01*
X187401238Y-140642859D01*
X187473619Y-140452383D01*
X187473619Y-140166669D01*
X186460286Y-141690478D02*
X187473619Y-141690478D01*
X186605048Y-141690478D02*
X186532667Y-141785717D01*
X186460286Y-141976193D01*
X186460286Y-142261907D01*
X186532667Y-142452383D01*
X186677429Y-142547621D01*
X187473619Y-142547621D01*
X187473619Y-143500002D02*
X186460286Y-143500002D01*
X185953619Y-143500002D02*
X186026000Y-143404764D01*
X186098381Y-143500002D01*
X186026000Y-143595241D01*
X185953619Y-143500002D01*
X186098381Y-143500002D01*
X187473619Y-144738098D02*
X187401238Y-144547622D01*
X187328857Y-144452383D01*
X187184095Y-144357145D01*
X186749810Y-144357145D01*
X186605048Y-144452383D01*
X186532667Y-144547622D01*
X186460286Y-144738098D01*
X186460286Y-145023812D01*
X186532667Y-145214288D01*
X186605048Y-145309526D01*
X186749810Y-145404764D01*
X187184095Y-145404764D01*
X187328857Y-145309526D01*
X187401238Y-145214288D01*
X187473619Y-145023812D01*
X187473619Y-144738098D01*
X189901619Y-110642856D02*
X188381619Y-110642856D01*
X189901619Y-111499999D02*
X189105429Y-111499999D01*
X188960667Y-111404761D01*
X188888286Y-111214285D01*
X188888286Y-110928571D01*
X188960667Y-110738095D01*
X189033048Y-110642856D01*
X188888286Y-112166666D02*
X188888286Y-112928571D01*
X188381619Y-112452380D02*
X189684476Y-112452380D01*
X189829238Y-112547619D01*
X189901619Y-112738095D01*
X189901619Y-112928571D01*
X188888286Y-113309523D02*
X188888286Y-114071428D01*
X188381619Y-113595237D02*
X189684476Y-113595237D01*
X189829238Y-113690476D01*
X189901619Y-113880952D01*
X189901619Y-114071428D01*
X188888286Y-114738094D02*
X190408286Y-114738094D01*
X188960667Y-114738094D02*
X188888286Y-114928571D01*
X188888286Y-115309523D01*
X188960667Y-115499999D01*
X189033048Y-115595237D01*
X189177810Y-115690475D01*
X189612095Y-115690475D01*
X189756857Y-115595237D01*
X189829238Y-115499999D01*
X189901619Y-115309523D01*
X189901619Y-114928571D01*
X189829238Y-114738094D01*
X189756857Y-116547618D02*
X189829238Y-116642857D01*
X189901619Y-116547618D01*
X189829238Y-116452380D01*
X189756857Y-116547618D01*
X189901619Y-116547618D01*
X188960667Y-116547618D02*
X189033048Y-116642857D01*
X189105429Y-116547618D01*
X189033048Y-116452380D01*
X188960667Y-116547618D01*
X189105429Y-116547618D01*
X188309238Y-118928571D02*
X190263524Y-117214285D01*
X188309238Y-121023809D02*
X190263524Y-119309523D01*
X188888286Y-121690475D02*
X189901619Y-121690475D01*
X189033048Y-121690475D02*
X188960667Y-121785714D01*
X188888286Y-121976190D01*
X188888286Y-122261904D01*
X188960667Y-122452380D01*
X189105429Y-122547618D01*
X189901619Y-122547618D01*
X188888286Y-124357142D02*
X189901619Y-124357142D01*
X188888286Y-123499999D02*
X189684476Y-123499999D01*
X189829238Y-123595238D01*
X189901619Y-123785714D01*
X189901619Y-124071428D01*
X189829238Y-124261904D01*
X189756857Y-124357142D01*
X189901619Y-125595238D02*
X189829238Y-125404762D01*
X189684476Y-125309523D01*
X188381619Y-125309523D01*
X189901619Y-126642857D02*
X189829238Y-126452381D01*
X189684476Y-126357142D01*
X188381619Y-126357142D01*
X189901619Y-128261904D02*
X188381619Y-128261904D01*
X189829238Y-128261904D02*
X189901619Y-128071428D01*
X189901619Y-127690476D01*
X189829238Y-127500000D01*
X189756857Y-127404761D01*
X189612095Y-127309523D01*
X189177810Y-127309523D01*
X189033048Y-127404761D01*
X188960667Y-127500000D01*
X188888286Y-127690476D01*
X188888286Y-128071428D01*
X188960667Y-128261904D01*
X189901619Y-129214285D02*
X188888286Y-129214285D01*
X189177810Y-129214285D02*
X189033048Y-129309524D01*
X188960667Y-129404762D01*
X188888286Y-129595238D01*
X188888286Y-129785714D01*
X189901619Y-131309523D02*
X189105429Y-131309523D01*
X188960667Y-131214285D01*
X188888286Y-131023809D01*
X188888286Y-130642857D01*
X188960667Y-130452380D01*
X189829238Y-131309523D02*
X189901619Y-131119047D01*
X189901619Y-130642857D01*
X189829238Y-130452380D01*
X189684476Y-130357142D01*
X189539714Y-130357142D01*
X189394952Y-130452380D01*
X189322571Y-130642857D01*
X189322571Y-131119047D01*
X189250190Y-131309523D01*
X188888286Y-133119047D02*
X190118762Y-133119047D01*
X190263524Y-133023809D01*
X190335905Y-132928571D01*
X190408286Y-132738095D01*
X190408286Y-132452381D01*
X190335905Y-132261904D01*
X189829238Y-133119047D02*
X189901619Y-132928571D01*
X189901619Y-132547619D01*
X189829238Y-132357143D01*
X189756857Y-132261904D01*
X189612095Y-132166666D01*
X189177810Y-132166666D01*
X189033048Y-132261904D01*
X188960667Y-132357143D01*
X188888286Y-132547619D01*
X188888286Y-132928571D01*
X188960667Y-133119047D01*
X189901619Y-134357143D02*
X189829238Y-134166667D01*
X189756857Y-134071428D01*
X189612095Y-133976190D01*
X189177810Y-133976190D01*
X189033048Y-134071428D01*
X188960667Y-134166667D01*
X188888286Y-134357143D01*
X188888286Y-134642857D01*
X188960667Y-134833333D01*
X189033048Y-134928571D01*
X189177810Y-135023809D01*
X189612095Y-135023809D01*
X189756857Y-134928571D01*
X189829238Y-134833333D01*
X189901619Y-134642857D01*
X189901619Y-134357143D01*
X188888286Y-135880952D02*
X189901619Y-135880952D01*
X189033048Y-135880952D02*
X188960667Y-135976191D01*
X188888286Y-136166667D01*
X188888286Y-136452381D01*
X188960667Y-136642857D01*
X189105429Y-136738095D01*
X189901619Y-136738095D01*
X189756857Y-137690476D02*
X189829238Y-137785715D01*
X189901619Y-137690476D01*
X189829238Y-137595238D01*
X189756857Y-137690476D01*
X189901619Y-137690476D01*
X188888286Y-138642857D02*
X189901619Y-138642857D01*
X189033048Y-138642857D02*
X188960667Y-138738096D01*
X188888286Y-138928572D01*
X188888286Y-139214286D01*
X188960667Y-139404762D01*
X189105429Y-139500000D01*
X189901619Y-139500000D01*
X189829238Y-141214286D02*
X189901619Y-141023810D01*
X189901619Y-140642858D01*
X189829238Y-140452381D01*
X189684476Y-140357143D01*
X189105429Y-140357143D01*
X188960667Y-140452381D01*
X188888286Y-140642858D01*
X188888286Y-141023810D01*
X188960667Y-141214286D01*
X189105429Y-141309524D01*
X189250190Y-141309524D01*
X189394952Y-140357143D01*
X188888286Y-141880953D02*
X188888286Y-142642858D01*
X188381619Y-142166667D02*
X189684476Y-142166667D01*
X189829238Y-142261906D01*
X189901619Y-142452382D01*
X189901619Y-142642858D01*
D12*
X199390000Y-83820000D02*
X199390000Y-88900000D01*
X199390000Y-88900000D02*
X201930000Y-88900000D01*
X201930000Y-88900000D02*
X201930000Y-83820000D01*
X201930000Y-83820000D02*
X199390000Y-83820000D01*
X200660000Y-83820000D02*
X200660000Y-82550000D01*
X200660000Y-88900000D02*
X200660000Y-90170000D01*
D13*
X175845000Y-79772000D02*
X175845000Y-95772000D01*
X175845000Y-95772000D02*
X181245000Y-95772000D01*
X175845000Y-79772000D02*
X181245000Y-79772000D01*
X197045000Y-79772000D02*
X197845000Y-79772000D01*
X197845000Y-79772000D02*
X197845000Y-95772000D01*
X197845000Y-95772000D02*
X197045000Y-95772000D01*
X175845000Y-95772000D02*
X179645000Y-79772000D01*
X175845000Y-79772000D02*
X179645000Y-95772000D01*
X179645000Y-79764000D02*
X179645000Y-95764000D01*
D14*
G36*
X197528500Y-109310250D02*
X197560250Y-109342000D01*
X197592000Y-109310250D01*
X197560250Y-109278500D01*
X197528500Y-109310250D01*
X197528500Y-109310250D01*
G37*
X197528500Y-109310250D02*
X197560250Y-109342000D01*
X197592000Y-109310250D01*
X197560250Y-109278500D01*
X197528500Y-109310250D01*
G36*
X185908000Y-109310250D02*
X185939750Y-109342000D01*
X185971500Y-109310250D01*
X185939750Y-109278500D01*
X185908000Y-109310250D01*
X185908000Y-109310250D01*
G37*
X185908000Y-109310250D02*
X185939750Y-109342000D01*
X185971500Y-109310250D01*
X185939750Y-109278500D01*
X185908000Y-109310250D01*
G36*
X190850802Y-102709729D02*
X190484470Y-102776368D01*
X190056980Y-102905543D01*
X189940250Y-102946262D01*
X189413673Y-103081704D01*
X188860750Y-103146939D01*
X188335306Y-103210900D01*
X187919630Y-103330667D01*
X187605445Y-103515657D01*
X187384476Y-103775291D01*
X187248446Y-104118987D01*
X187189080Y-104556163D01*
X187194697Y-105043046D01*
X187245357Y-105501516D01*
X187346422Y-105914879D01*
X187509188Y-106304417D01*
X187744955Y-106691416D01*
X188065020Y-107097160D01*
X188480681Y-107542932D01*
X188568385Y-107630916D01*
X189040546Y-108062132D01*
X189490165Y-108388061D01*
X189939720Y-108622168D01*
X190411689Y-108777918D01*
X190527164Y-108804367D01*
X190920841Y-108864609D01*
X191332547Y-108888323D01*
X191719208Y-108875398D01*
X192037749Y-108825727D01*
X192099250Y-108808334D01*
X192598567Y-108603965D01*
X193020028Y-108338120D01*
X193352932Y-108022258D01*
X193476505Y-107834808D01*
X193184975Y-107834808D01*
X193152957Y-107882493D01*
X193047289Y-107980456D01*
X192897699Y-108105202D01*
X192733914Y-108233235D01*
X192585662Y-108341062D01*
X192482669Y-108405186D01*
X192454181Y-108412397D01*
X192472236Y-108355571D01*
X192549431Y-108254652D01*
X192664186Y-108148352D01*
X192819294Y-108030456D01*
X192980456Y-107923624D01*
X193113371Y-107850515D01*
X193183741Y-107833785D01*
X193184975Y-107834808D01*
X193476505Y-107834808D01*
X193586575Y-107667841D01*
X193710254Y-107286327D01*
X193723241Y-107119500D01*
X192829500Y-107119500D01*
X192806267Y-107171767D01*
X192787167Y-107161833D01*
X192779567Y-107086473D01*
X192787167Y-107077166D01*
X192824918Y-107085883D01*
X192829500Y-107119500D01*
X193723241Y-107119500D01*
X193727490Y-107064934D01*
X193703441Y-106833685D01*
X193645218Y-106562101D01*
X193599537Y-106410416D01*
X192994791Y-106410416D01*
X192909992Y-106458026D01*
X192864044Y-106463333D01*
X192777685Y-106435393D01*
X192766000Y-106410416D01*
X192819430Y-106367812D01*
X192896748Y-106357500D01*
X192987361Y-106378093D01*
X192994791Y-106410416D01*
X193599537Y-106410416D01*
X193598464Y-106406855D01*
X193525838Y-106145380D01*
X193463995Y-105832008D01*
X193431298Y-105581355D01*
X193394827Y-105301207D01*
X193390680Y-105278000D01*
X192808168Y-105278000D01*
X192796894Y-105317956D01*
X192715721Y-105419333D01*
X192655352Y-105484375D01*
X192472118Y-105714606D01*
X192364986Y-105964125D01*
X192318348Y-106275601D01*
X192313234Y-106419507D01*
X192336494Y-106719988D01*
X192408226Y-106968318D01*
X192517941Y-107138051D01*
X192622262Y-107198670D01*
X192649093Y-107227058D01*
X192564495Y-107270008D01*
X192382657Y-107323381D01*
X192117764Y-107383042D01*
X191784006Y-107444853D01*
X191769889Y-107447234D01*
X191482181Y-107486920D01*
X191279647Y-107491099D01*
X191125623Y-107460106D01*
X191106731Y-107453316D01*
X190978343Y-107408832D01*
X190948732Y-107422871D01*
X190998298Y-107507962D01*
X191005125Y-107518256D01*
X191176564Y-107685787D01*
X191429224Y-107826297D01*
X191717480Y-107919070D01*
X191944972Y-107945000D01*
X192246969Y-107945000D01*
X192179357Y-108151375D01*
X192124075Y-108322168D01*
X192083784Y-108450111D01*
X192082907Y-108453000D01*
X192049687Y-108499448D01*
X192000371Y-108432347D01*
X191989598Y-108409894D01*
X191863463Y-108268262D01*
X191670835Y-108176654D01*
X191470190Y-108162483D01*
X191464250Y-108163622D01*
X191348870Y-108186789D01*
X191311534Y-108194141D01*
X191328859Y-108237644D01*
X191398610Y-108323634D01*
X191470451Y-108451458D01*
X191473388Y-108547336D01*
X191436666Y-108605794D01*
X191366878Y-108609591D01*
X191225807Y-108558774D01*
X191199073Y-108547672D01*
X191048359Y-108482592D01*
X190960348Y-108440559D01*
X190952239Y-108435095D01*
X190850856Y-108230085D01*
X190799696Y-107978972D01*
X190797500Y-107920965D01*
X190746297Y-107690172D01*
X190612712Y-107496605D01*
X190426782Y-107378094D01*
X190353000Y-107361112D01*
X190240333Y-107363634D01*
X190212669Y-107426869D01*
X190256698Y-107571687D01*
X190254304Y-107693681D01*
X190179994Y-107794964D01*
X190073439Y-107838758D01*
X189997023Y-107812416D01*
X189920306Y-107695367D01*
X189909473Y-107635599D01*
X189919916Y-107567782D01*
X189963971Y-107616954D01*
X189969520Y-107625661D01*
X190037340Y-107690327D01*
X190074090Y-107658818D01*
X190062643Y-107561188D01*
X190038090Y-107505338D01*
X190002725Y-107400495D01*
X190062504Y-107338457D01*
X190121416Y-107313549D01*
X190293109Y-107260690D01*
X190496337Y-107213472D01*
X190504971Y-107211832D01*
X190654096Y-107171205D01*
X190731116Y-107125505D01*
X190734000Y-107116712D01*
X190714355Y-107077832D01*
X190638026Y-107041555D01*
X190478927Y-106998005D01*
X190329088Y-106963424D01*
X190146426Y-106922545D01*
X190292532Y-106767022D01*
X190382978Y-106662298D01*
X190386915Y-106619184D01*
X190324529Y-106611500D01*
X190231719Y-106655236D01*
X190080643Y-106772151D01*
X189897747Y-106940798D01*
X189815551Y-107024250D01*
X189636368Y-107206998D01*
X189489546Y-107348293D01*
X189397125Y-107427304D01*
X189378842Y-107437000D01*
X189335763Y-107393688D01*
X189349389Y-107302333D01*
X189406343Y-107220804D01*
X189432250Y-107205963D01*
X189524842Y-107144757D01*
X189510241Y-107094041D01*
X189407560Y-107077538D01*
X189337000Y-107087750D01*
X189198009Y-107100127D01*
X189146500Y-107065654D01*
X189195216Y-106981111D01*
X189310676Y-106874327D01*
X189446850Y-106781465D01*
X189557707Y-106738685D01*
X189562942Y-106738500D01*
X189672868Y-106696294D01*
X189814415Y-106594027D01*
X189946199Y-106468219D01*
X190026834Y-106355394D01*
X190035500Y-106321466D01*
X190010704Y-106266362D01*
X189916451Y-106287914D01*
X189888229Y-106300323D01*
X189701939Y-106335693D01*
X189422611Y-106309438D01*
X189396455Y-106304809D01*
X189197683Y-106275139D01*
X189051793Y-106265245D01*
X189003976Y-106271844D01*
X188959808Y-106281677D01*
X188984255Y-106210134D01*
X189080864Y-106048965D01*
X189136373Y-105963808D01*
X189306949Y-105668790D01*
X189438372Y-105369899D01*
X189514724Y-105106884D01*
X189527500Y-104987217D01*
X189508997Y-104874972D01*
X189464953Y-104870700D01*
X189412570Y-104962783D01*
X189378157Y-105088094D01*
X189271338Y-105323362D01*
X189051997Y-105513240D01*
X188716453Y-105660599D01*
X188600837Y-105694723D01*
X188311346Y-105794396D01*
X188116924Y-105907624D01*
X188071867Y-105952985D01*
X187978793Y-106044474D01*
X187916680Y-106059013D01*
X187896565Y-105979652D01*
X187882153Y-105809751D01*
X187876503Y-105585741D01*
X187876500Y-105580742D01*
X187858831Y-105242413D01*
X187804666Y-105021059D01*
X187712276Y-104911505D01*
X187647737Y-104897000D01*
X187581536Y-104930548D01*
X187593785Y-105039875D01*
X187627836Y-105160905D01*
X187635908Y-105250312D01*
X187630020Y-105361122D01*
X187607206Y-105453050D01*
X187568125Y-105445465D01*
X187527444Y-105362030D01*
X187499828Y-105226406D01*
X187495500Y-105144099D01*
X187546959Y-104821566D01*
X187694927Y-104565829D01*
X187893450Y-104412066D01*
X188054366Y-104312324D01*
X188170018Y-104212174D01*
X188176106Y-104204616D01*
X188228524Y-104144577D01*
X188249426Y-104152768D01*
X188238071Y-104244611D01*
X188193720Y-104435530D01*
X188158308Y-104575430D01*
X188100606Y-104847193D01*
X188096971Y-105040127D01*
X188152611Y-105192628D01*
X188260700Y-105330305D01*
X188436221Y-105440917D01*
X188631967Y-105450403D01*
X188815739Y-105373312D01*
X188955340Y-105224194D01*
X189018569Y-105017598D01*
X189019500Y-104987434D01*
X188996183Y-104849216D01*
X188945441Y-104806806D01*
X188896090Y-104869446D01*
X188880947Y-104943005D01*
X188826801Y-105088625D01*
X188749625Y-105139238D01*
X188663623Y-105117130D01*
X188645982Y-105001141D01*
X188696307Y-104785228D01*
X188721460Y-104709120D01*
X188773170Y-104579547D01*
X188838041Y-104516996D01*
X188956714Y-104500625D01*
X189116132Y-104506684D01*
X189371503Y-104496682D01*
X189611043Y-104446619D01*
X189811040Y-104367721D01*
X189947782Y-104271210D01*
X189997558Y-104168311D01*
X189970993Y-104102036D01*
X189952195Y-104009790D01*
X190014857Y-103937050D01*
X190091830Y-103883216D01*
X190094623Y-103922220D01*
X190081133Y-103960375D01*
X190071376Y-104055148D01*
X190132154Y-104067928D01*
X190243306Y-104005620D01*
X190384667Y-103875130D01*
X190409005Y-103848085D01*
X190548680Y-103666579D01*
X190552214Y-103658750D01*
X187717750Y-103658750D01*
X187596784Y-103801625D01*
X187484196Y-103921610D01*
X187435160Y-103938932D01*
X187432000Y-103922591D01*
X187474823Y-103870732D01*
X187574875Y-103779716D01*
X187717750Y-103658750D01*
X190552214Y-103658750D01*
X190596907Y-103559752D01*
X189337000Y-103559752D01*
X189290905Y-103624415D01*
X189273500Y-103627000D01*
X189211651Y-103605334D01*
X189210000Y-103598997D01*
X189254497Y-103544783D01*
X189273500Y-103531750D01*
X189332015Y-103536784D01*
X189337000Y-103559752D01*
X190596907Y-103559752D01*
X190629832Y-103486821D01*
X190674115Y-103254066D01*
X190684838Y-103150750D01*
X190698536Y-103062699D01*
X190723442Y-103056959D01*
X190769576Y-103145820D01*
X190846963Y-103341574D01*
X190852664Y-103356579D01*
X191045241Y-103798396D01*
X191240116Y-104115729D01*
X191436651Y-104307926D01*
X191634210Y-104374335D01*
X191804853Y-104330127D01*
X191907810Y-104215028D01*
X191976761Y-104029706D01*
X191996825Y-103829490D01*
X191972512Y-103706853D01*
X191932909Y-103637761D01*
X191891895Y-103674792D01*
X191860581Y-103738125D01*
X191768578Y-103856027D01*
X191669874Y-103870092D01*
X191600037Y-103785750D01*
X191587745Y-103628263D01*
X191683030Y-103528835D01*
X191840975Y-103500000D01*
X192063449Y-103558836D01*
X192242190Y-103719392D01*
X192351929Y-103957734D01*
X192359369Y-103990968D01*
X192367502Y-104150052D01*
X192300293Y-104282361D01*
X192228294Y-104360979D01*
X192101874Y-104468117D01*
X191976726Y-104507107D01*
X191792759Y-104495569D01*
X191776698Y-104493403D01*
X191582371Y-104481382D01*
X191505552Y-104513461D01*
X191547410Y-104587952D01*
X191655104Y-104669142D01*
X191761876Y-104750722D01*
X191771745Y-104825669D01*
X191710002Y-104932426D01*
X191644514Y-105052694D01*
X191633187Y-105118852D01*
X191633237Y-105118903D01*
X191704385Y-105117990D01*
X191855720Y-105085355D01*
X191964095Y-105055027D01*
X192148341Y-105006711D01*
X192233573Y-105005579D01*
X192241867Y-105041480D01*
X192169616Y-105127869D01*
X192072744Y-105191405D01*
X191984140Y-105259961D01*
X191998384Y-105306278D01*
X192109355Y-105317025D01*
X192141792Y-105303080D01*
X192188929Y-105299413D01*
X192173542Y-105362833D01*
X192113348Y-105512069D01*
X192092457Y-105563750D01*
X192087985Y-105644678D01*
X192150190Y-105648189D01*
X192246518Y-105576127D01*
X192266100Y-105553913D01*
X192377299Y-105464789D01*
X192545716Y-105369947D01*
X192713993Y-105298584D01*
X192808168Y-105278000D01*
X193390680Y-105278000D01*
X193333844Y-104959986D01*
X193259595Y-104618482D01*
X193234521Y-104517721D01*
X193073315Y-103996748D01*
X192883277Y-103587494D01*
X192653692Y-103275975D01*
X192373843Y-103048209D01*
X192033016Y-102890211D01*
X191972250Y-102870515D01*
X191555753Y-102758255D01*
X191194917Y-102704176D01*
X190850802Y-102709729D01*
X190850802Y-102709729D01*
G37*
X190850802Y-102709729D02*
X190484470Y-102776368D01*
X190056980Y-102905543D01*
X189940250Y-102946262D01*
X189413673Y-103081704D01*
X188860750Y-103146939D01*
X188335306Y-103210900D01*
X187919630Y-103330667D01*
X187605445Y-103515657D01*
X187384476Y-103775291D01*
X187248446Y-104118987D01*
X187189080Y-104556163D01*
X187194697Y-105043046D01*
X187245357Y-105501516D01*
X187346422Y-105914879D01*
X187509188Y-106304417D01*
X187744955Y-106691416D01*
X188065020Y-107097160D01*
X188480681Y-107542932D01*
X188568385Y-107630916D01*
X189040546Y-108062132D01*
X189490165Y-108388061D01*
X189939720Y-108622168D01*
X190411689Y-108777918D01*
X190527164Y-108804367D01*
X190920841Y-108864609D01*
X191332547Y-108888323D01*
X191719208Y-108875398D01*
X192037749Y-108825727D01*
X192099250Y-108808334D01*
X192598567Y-108603965D01*
X193020028Y-108338120D01*
X193352932Y-108022258D01*
X193476505Y-107834808D01*
X193184975Y-107834808D01*
X193152957Y-107882493D01*
X193047289Y-107980456D01*
X192897699Y-108105202D01*
X192733914Y-108233235D01*
X192585662Y-108341062D01*
X192482669Y-108405186D01*
X192454181Y-108412397D01*
X192472236Y-108355571D01*
X192549431Y-108254652D01*
X192664186Y-108148352D01*
X192819294Y-108030456D01*
X192980456Y-107923624D01*
X193113371Y-107850515D01*
X193183741Y-107833785D01*
X193184975Y-107834808D01*
X193476505Y-107834808D01*
X193586575Y-107667841D01*
X193710254Y-107286327D01*
X193723241Y-107119500D01*
X192829500Y-107119500D01*
X192806267Y-107171767D01*
X192787167Y-107161833D01*
X192779567Y-107086473D01*
X192787167Y-107077166D01*
X192824918Y-107085883D01*
X192829500Y-107119500D01*
X193723241Y-107119500D01*
X193727490Y-107064934D01*
X193703441Y-106833685D01*
X193645218Y-106562101D01*
X193599537Y-106410416D01*
X192994791Y-106410416D01*
X192909992Y-106458026D01*
X192864044Y-106463333D01*
X192777685Y-106435393D01*
X192766000Y-106410416D01*
X192819430Y-106367812D01*
X192896748Y-106357500D01*
X192987361Y-106378093D01*
X192994791Y-106410416D01*
X193599537Y-106410416D01*
X193598464Y-106406855D01*
X193525838Y-106145380D01*
X193463995Y-105832008D01*
X193431298Y-105581355D01*
X193394827Y-105301207D01*
X193390680Y-105278000D01*
X192808168Y-105278000D01*
X192796894Y-105317956D01*
X192715721Y-105419333D01*
X192655352Y-105484375D01*
X192472118Y-105714606D01*
X192364986Y-105964125D01*
X192318348Y-106275601D01*
X192313234Y-106419507D01*
X192336494Y-106719988D01*
X192408226Y-106968318D01*
X192517941Y-107138051D01*
X192622262Y-107198670D01*
X192649093Y-107227058D01*
X192564495Y-107270008D01*
X192382657Y-107323381D01*
X192117764Y-107383042D01*
X191784006Y-107444853D01*
X191769889Y-107447234D01*
X191482181Y-107486920D01*
X191279647Y-107491099D01*
X191125623Y-107460106D01*
X191106731Y-107453316D01*
X190978343Y-107408832D01*
X190948732Y-107422871D01*
X190998298Y-107507962D01*
X191005125Y-107518256D01*
X191176564Y-107685787D01*
X191429224Y-107826297D01*
X191717480Y-107919070D01*
X191944972Y-107945000D01*
X192246969Y-107945000D01*
X192179357Y-108151375D01*
X192124075Y-108322168D01*
X192083784Y-108450111D01*
X192082907Y-108453000D01*
X192049687Y-108499448D01*
X192000371Y-108432347D01*
X191989598Y-108409894D01*
X191863463Y-108268262D01*
X191670835Y-108176654D01*
X191470190Y-108162483D01*
X191464250Y-108163622D01*
X191348870Y-108186789D01*
X191311534Y-108194141D01*
X191328859Y-108237644D01*
X191398610Y-108323634D01*
X191470451Y-108451458D01*
X191473388Y-108547336D01*
X191436666Y-108605794D01*
X191366878Y-108609591D01*
X191225807Y-108558774D01*
X191199073Y-108547672D01*
X191048359Y-108482592D01*
X190960348Y-108440559D01*
X190952239Y-108435095D01*
X190850856Y-108230085D01*
X190799696Y-107978972D01*
X190797500Y-107920965D01*
X190746297Y-107690172D01*
X190612712Y-107496605D01*
X190426782Y-107378094D01*
X190353000Y-107361112D01*
X190240333Y-107363634D01*
X190212669Y-107426869D01*
X190256698Y-107571687D01*
X190254304Y-107693681D01*
X190179994Y-107794964D01*
X190073439Y-107838758D01*
X189997023Y-107812416D01*
X189920306Y-107695367D01*
X189909473Y-107635599D01*
X189919916Y-107567782D01*
X189963971Y-107616954D01*
X189969520Y-107625661D01*
X190037340Y-107690327D01*
X190074090Y-107658818D01*
X190062643Y-107561188D01*
X190038090Y-107505338D01*
X190002725Y-107400495D01*
X190062504Y-107338457D01*
X190121416Y-107313549D01*
X190293109Y-107260690D01*
X190496337Y-107213472D01*
X190504971Y-107211832D01*
X190654096Y-107171205D01*
X190731116Y-107125505D01*
X190734000Y-107116712D01*
X190714355Y-107077832D01*
X190638026Y-107041555D01*
X190478927Y-106998005D01*
X190329088Y-106963424D01*
X190146426Y-106922545D01*
X190292532Y-106767022D01*
X190382978Y-106662298D01*
X190386915Y-106619184D01*
X190324529Y-106611500D01*
X190231719Y-106655236D01*
X190080643Y-106772151D01*
X189897747Y-106940798D01*
X189815551Y-107024250D01*
X189636368Y-107206998D01*
X189489546Y-107348293D01*
X189397125Y-107427304D01*
X189378842Y-107437000D01*
X189335763Y-107393688D01*
X189349389Y-107302333D01*
X189406343Y-107220804D01*
X189432250Y-107205963D01*
X189524842Y-107144757D01*
X189510241Y-107094041D01*
X189407560Y-107077538D01*
X189337000Y-107087750D01*
X189198009Y-107100127D01*
X189146500Y-107065654D01*
X189195216Y-106981111D01*
X189310676Y-106874327D01*
X189446850Y-106781465D01*
X189557707Y-106738685D01*
X189562942Y-106738500D01*
X189672868Y-106696294D01*
X189814415Y-106594027D01*
X189946199Y-106468219D01*
X190026834Y-106355394D01*
X190035500Y-106321466D01*
X190010704Y-106266362D01*
X189916451Y-106287914D01*
X189888229Y-106300323D01*
X189701939Y-106335693D01*
X189422611Y-106309438D01*
X189396455Y-106304809D01*
X189197683Y-106275139D01*
X189051793Y-106265245D01*
X189003976Y-106271844D01*
X188959808Y-106281677D01*
X188984255Y-106210134D01*
X189080864Y-106048965D01*
X189136373Y-105963808D01*
X189306949Y-105668790D01*
X189438372Y-105369899D01*
X189514724Y-105106884D01*
X189527500Y-104987217D01*
X189508997Y-104874972D01*
X189464953Y-104870700D01*
X189412570Y-104962783D01*
X189378157Y-105088094D01*
X189271338Y-105323362D01*
X189051997Y-105513240D01*
X188716453Y-105660599D01*
X188600837Y-105694723D01*
X188311346Y-105794396D01*
X188116924Y-105907624D01*
X188071867Y-105952985D01*
X187978793Y-106044474D01*
X187916680Y-106059013D01*
X187896565Y-105979652D01*
X187882153Y-105809751D01*
X187876503Y-105585741D01*
X187876500Y-105580742D01*
X187858831Y-105242413D01*
X187804666Y-105021059D01*
X187712276Y-104911505D01*
X187647737Y-104897000D01*
X187581536Y-104930548D01*
X187593785Y-105039875D01*
X187627836Y-105160905D01*
X187635908Y-105250312D01*
X187630020Y-105361122D01*
X187607206Y-105453050D01*
X187568125Y-105445465D01*
X187527444Y-105362030D01*
X187499828Y-105226406D01*
X187495500Y-105144099D01*
X187546959Y-104821566D01*
X187694927Y-104565829D01*
X187893450Y-104412066D01*
X188054366Y-104312324D01*
X188170018Y-104212174D01*
X188176106Y-104204616D01*
X188228524Y-104144577D01*
X188249426Y-104152768D01*
X188238071Y-104244611D01*
X188193720Y-104435530D01*
X188158308Y-104575430D01*
X188100606Y-104847193D01*
X188096971Y-105040127D01*
X188152611Y-105192628D01*
X188260700Y-105330305D01*
X188436221Y-105440917D01*
X188631967Y-105450403D01*
X188815739Y-105373312D01*
X188955340Y-105224194D01*
X189018569Y-105017598D01*
X189019500Y-104987434D01*
X188996183Y-104849216D01*
X188945441Y-104806806D01*
X188896090Y-104869446D01*
X188880947Y-104943005D01*
X188826801Y-105088625D01*
X188749625Y-105139238D01*
X188663623Y-105117130D01*
X188645982Y-105001141D01*
X188696307Y-104785228D01*
X188721460Y-104709120D01*
X188773170Y-104579547D01*
X188838041Y-104516996D01*
X188956714Y-104500625D01*
X189116132Y-104506684D01*
X189371503Y-104496682D01*
X189611043Y-104446619D01*
X189811040Y-104367721D01*
X189947782Y-104271210D01*
X189997558Y-104168311D01*
X189970993Y-104102036D01*
X189952195Y-104009790D01*
X190014857Y-103937050D01*
X190091830Y-103883216D01*
X190094623Y-103922220D01*
X190081133Y-103960375D01*
X190071376Y-104055148D01*
X190132154Y-104067928D01*
X190243306Y-104005620D01*
X190384667Y-103875130D01*
X190409005Y-103848085D01*
X190548680Y-103666579D01*
X190552214Y-103658750D01*
X187717750Y-103658750D01*
X187596784Y-103801625D01*
X187484196Y-103921610D01*
X187435160Y-103938932D01*
X187432000Y-103922591D01*
X187474823Y-103870732D01*
X187574875Y-103779716D01*
X187717750Y-103658750D01*
X190552214Y-103658750D01*
X190596907Y-103559752D01*
X189337000Y-103559752D01*
X189290905Y-103624415D01*
X189273500Y-103627000D01*
X189211651Y-103605334D01*
X189210000Y-103598997D01*
X189254497Y-103544783D01*
X189273500Y-103531750D01*
X189332015Y-103536784D01*
X189337000Y-103559752D01*
X190596907Y-103559752D01*
X190629832Y-103486821D01*
X190674115Y-103254066D01*
X190684838Y-103150750D01*
X190698536Y-103062699D01*
X190723442Y-103056959D01*
X190769576Y-103145820D01*
X190846963Y-103341574D01*
X190852664Y-103356579D01*
X191045241Y-103798396D01*
X191240116Y-104115729D01*
X191436651Y-104307926D01*
X191634210Y-104374335D01*
X191804853Y-104330127D01*
X191907810Y-104215028D01*
X191976761Y-104029706D01*
X191996825Y-103829490D01*
X191972512Y-103706853D01*
X191932909Y-103637761D01*
X191891895Y-103674792D01*
X191860581Y-103738125D01*
X191768578Y-103856027D01*
X191669874Y-103870092D01*
X191600037Y-103785750D01*
X191587745Y-103628263D01*
X191683030Y-103528835D01*
X191840975Y-103500000D01*
X192063449Y-103558836D01*
X192242190Y-103719392D01*
X192351929Y-103957734D01*
X192359369Y-103990968D01*
X192367502Y-104150052D01*
X192300293Y-104282361D01*
X192228294Y-104360979D01*
X192101874Y-104468117D01*
X191976726Y-104507107D01*
X191792759Y-104495569D01*
X191776698Y-104493403D01*
X191582371Y-104481382D01*
X191505552Y-104513461D01*
X191547410Y-104587952D01*
X191655104Y-104669142D01*
X191761876Y-104750722D01*
X191771745Y-104825669D01*
X191710002Y-104932426D01*
X191644514Y-105052694D01*
X191633187Y-105118852D01*
X191633237Y-105118903D01*
X191704385Y-105117990D01*
X191855720Y-105085355D01*
X191964095Y-105055027D01*
X192148341Y-105006711D01*
X192233573Y-105005579D01*
X192241867Y-105041480D01*
X192169616Y-105127869D01*
X192072744Y-105191405D01*
X191984140Y-105259961D01*
X191998384Y-105306278D01*
X192109355Y-105317025D01*
X192141792Y-105303080D01*
X192188929Y-105299413D01*
X192173542Y-105362833D01*
X192113348Y-105512069D01*
X192092457Y-105563750D01*
X192087985Y-105644678D01*
X192150190Y-105648189D01*
X192246518Y-105576127D01*
X192266100Y-105553913D01*
X192377299Y-105464789D01*
X192545716Y-105369947D01*
X192713993Y-105298584D01*
X192808168Y-105278000D01*
X193390680Y-105278000D01*
X193333844Y-104959986D01*
X193259595Y-104618482D01*
X193234521Y-104517721D01*
X193073315Y-103996748D01*
X192883277Y-103587494D01*
X192653692Y-103275975D01*
X192373843Y-103048209D01*
X192033016Y-102890211D01*
X191972250Y-102870515D01*
X191555753Y-102758255D01*
X191194917Y-102704176D01*
X190850802Y-102709729D01*
G36*
X194983034Y-104851983D02*
X194900141Y-104862113D01*
X194523285Y-104961980D01*
X194178766Y-105146814D01*
X193894987Y-105395539D01*
X193700355Y-105687077D01*
X193663641Y-105779600D01*
X193599260Y-106046874D01*
X193619355Y-106253721D01*
X193731839Y-106441043D01*
X193807400Y-106522600D01*
X194044129Y-106689503D01*
X194310854Y-106740313D01*
X194618119Y-106675910D01*
X194783556Y-106604106D01*
X195081721Y-106405162D01*
X195312888Y-106149376D01*
X195468949Y-105859819D01*
X195494561Y-105754250D01*
X194417000Y-105754250D01*
X194385250Y-105786000D01*
X194353500Y-105754250D01*
X194385250Y-105722500D01*
X194417000Y-105754250D01*
X195494561Y-105754250D01*
X195541795Y-105559559D01*
X195523319Y-105271668D01*
X195405414Y-105019215D01*
X195359725Y-104964636D01*
X195262484Y-104879206D01*
X195152752Y-104845186D01*
X194983034Y-104851983D01*
X194983034Y-104851983D01*
G37*
X194983034Y-104851983D02*
X194900141Y-104862113D01*
X194523285Y-104961980D01*
X194178766Y-105146814D01*
X193894987Y-105395539D01*
X193700355Y-105687077D01*
X193663641Y-105779600D01*
X193599260Y-106046874D01*
X193619355Y-106253721D01*
X193731839Y-106441043D01*
X193807400Y-106522600D01*
X194044129Y-106689503D01*
X194310854Y-106740313D01*
X194618119Y-106675910D01*
X194783556Y-106604106D01*
X195081721Y-106405162D01*
X195312888Y-106149376D01*
X195468949Y-105859819D01*
X195494561Y-105754250D01*
X194417000Y-105754250D01*
X194385250Y-105786000D01*
X194353500Y-105754250D01*
X194385250Y-105722500D01*
X194417000Y-105754250D01*
X195494561Y-105754250D01*
X195541795Y-105559559D01*
X195523319Y-105271668D01*
X195405414Y-105019215D01*
X195359725Y-104964636D01*
X195262484Y-104879206D01*
X195152752Y-104845186D01*
X194983034Y-104851983D01*
G36*
X196417078Y-102222152D02*
X196341957Y-102370209D01*
X196255110Y-102582317D01*
X196227733Y-102657293D01*
X196081833Y-103042025D01*
X195916866Y-103434144D01*
X195746377Y-103804760D01*
X195583911Y-104124982D01*
X195443014Y-104365919D01*
X195393665Y-104436339D01*
X195288800Y-104596268D01*
X195270150Y-104680552D01*
X195335461Y-104680902D01*
X195443023Y-104617726D01*
X195609104Y-104539723D01*
X195740286Y-104516000D01*
X195850643Y-104493953D01*
X195864417Y-104410743D01*
X195860534Y-104394476D01*
X195875821Y-104280639D01*
X195942463Y-104243218D01*
X196015531Y-104237012D01*
X196023467Y-104294834D01*
X195989470Y-104404820D01*
X195905959Y-104549447D01*
X195798802Y-104628575D01*
X195798750Y-104628589D01*
X195714072Y-104677534D01*
X195701834Y-104786014D01*
X195712615Y-104850448D01*
X195741024Y-105043801D01*
X195750500Y-105190687D01*
X195772526Y-105315329D01*
X195833410Y-105325233D01*
X195925363Y-105223783D01*
X196009209Y-105078271D01*
X196143580Y-104751724D01*
X196267062Y-104333586D01*
X196371848Y-103859227D01*
X196450130Y-103364020D01*
X196494101Y-102883335D01*
X196494230Y-102880875D01*
X196506868Y-102529343D01*
X196502443Y-102293773D01*
X196481114Y-102178250D01*
X196466671Y-102166500D01*
X196417078Y-102222152D01*
X196417078Y-102222152D01*
G37*
X196417078Y-102222152D02*
X196341957Y-102370209D01*
X196255110Y-102582317D01*
X196227733Y-102657293D01*
X196081833Y-103042025D01*
X195916866Y-103434144D01*
X195746377Y-103804760D01*
X195583911Y-104124982D01*
X195443014Y-104365919D01*
X195393665Y-104436339D01*
X195288800Y-104596268D01*
X195270150Y-104680552D01*
X195335461Y-104680902D01*
X195443023Y-104617726D01*
X195609104Y-104539723D01*
X195740286Y-104516000D01*
X195850643Y-104493953D01*
X195864417Y-104410743D01*
X195860534Y-104394476D01*
X195875821Y-104280639D01*
X195942463Y-104243218D01*
X196015531Y-104237012D01*
X196023467Y-104294834D01*
X195989470Y-104404820D01*
X195905959Y-104549447D01*
X195798802Y-104628575D01*
X195798750Y-104628589D01*
X195714072Y-104677534D01*
X195701834Y-104786014D01*
X195712615Y-104850448D01*
X195741024Y-105043801D01*
X195750500Y-105190687D01*
X195772526Y-105315329D01*
X195833410Y-105325233D01*
X195925363Y-105223783D01*
X196009209Y-105078271D01*
X196143580Y-104751724D01*
X196267062Y-104333586D01*
X196371848Y-103859227D01*
X196450130Y-103364020D01*
X196494101Y-102883335D01*
X196494230Y-102880875D01*
X196506868Y-102529343D01*
X196502443Y-102293773D01*
X196481114Y-102178250D01*
X196466671Y-102166500D01*
X196417078Y-102222152D01*
G36*
X194050048Y-102733574D02*
X193789294Y-102905597D01*
X193543229Y-103148520D01*
X193329467Y-103455567D01*
X193219752Y-103762477D01*
X193216200Y-104051345D01*
X193320925Y-104304268D01*
X193396116Y-104393884D01*
X193590242Y-104535799D01*
X193798269Y-104569073D01*
X194051963Y-104498290D01*
X194068931Y-104491008D01*
X194306128Y-104338431D01*
X194522932Y-104112322D01*
X194698279Y-103845899D01*
X194811105Y-103572382D01*
X194823413Y-103468250D01*
X194099500Y-103468250D01*
X194067750Y-103500000D01*
X194036000Y-103468250D01*
X194067750Y-103436500D01*
X194099500Y-103468250D01*
X194823413Y-103468250D01*
X194840348Y-103324991D01*
X194834656Y-103283359D01*
X194763201Y-103103293D01*
X194633372Y-102919002D01*
X194477707Y-102766440D01*
X194328746Y-102681563D01*
X194283629Y-102674500D01*
X194050048Y-102733574D01*
X194050048Y-102733574D01*
G37*
X194050048Y-102733574D02*
X193789294Y-102905597D01*
X193543229Y-103148520D01*
X193329467Y-103455567D01*
X193219752Y-103762477D01*
X193216200Y-104051345D01*
X193320925Y-104304268D01*
X193396116Y-104393884D01*
X193590242Y-104535799D01*
X193798269Y-104569073D01*
X194051963Y-104498290D01*
X194068931Y-104491008D01*
X194306128Y-104338431D01*
X194522932Y-104112322D01*
X194698279Y-103845899D01*
X194811105Y-103572382D01*
X194823413Y-103468250D01*
X194099500Y-103468250D01*
X194067750Y-103500000D01*
X194036000Y-103468250D01*
X194067750Y-103436500D01*
X194099500Y-103468250D01*
X194823413Y-103468250D01*
X194840348Y-103324991D01*
X194834656Y-103283359D01*
X194763201Y-103103293D01*
X194633372Y-102919002D01*
X194477707Y-102766440D01*
X194328746Y-102681563D01*
X194283629Y-102674500D01*
X194050048Y-102733574D01*
G36*
X195734732Y-99735445D02*
X195728482Y-99753500D01*
X195386039Y-100640289D01*
X194923865Y-101542669D01*
X194468246Y-102273672D01*
X194368557Y-102453915D01*
X194348409Y-102561463D01*
X194397885Y-102583151D01*
X194507064Y-102505820D01*
X194582018Y-102424632D01*
X194723284Y-102280731D01*
X194820177Y-102231791D01*
X194860938Y-102283172D01*
X194861500Y-102297247D01*
X194823739Y-102337235D01*
X194804654Y-102329362D01*
X194737285Y-102346107D01*
X194711769Y-102388146D01*
X194731113Y-102491199D01*
X194797326Y-102547138D01*
X194907973Y-102573565D01*
X195016421Y-102505944D01*
X195048961Y-102472633D01*
X195137981Y-102398450D01*
X195178732Y-102406657D01*
X195179000Y-102411412D01*
X195137377Y-102506343D01*
X195035975Y-102632567D01*
X195024088Y-102644684D01*
X194916845Y-102786057D01*
X194895427Y-102942643D01*
X194905397Y-103022798D01*
X194952573Y-103189504D01*
X195020125Y-103232025D01*
X195108428Y-103150101D01*
X195217861Y-102943470D01*
X195296002Y-102753875D01*
X195464886Y-102276630D01*
X195469321Y-102261750D01*
X195242500Y-102261750D01*
X195210750Y-102293500D01*
X195179000Y-102261750D01*
X195210750Y-102230000D01*
X195242500Y-102261750D01*
X195469321Y-102261750D01*
X195610248Y-101788979D01*
X195625873Y-101725801D01*
X195298033Y-101725801D01*
X195297507Y-101785500D01*
X195293891Y-101981300D01*
X195285896Y-102060371D01*
X195267556Y-102032971D01*
X195232902Y-101909361D01*
X195230566Y-101900585D01*
X195201181Y-101669637D01*
X195235198Y-101551335D01*
X195273178Y-101510443D01*
X195292848Y-101563807D01*
X195298033Y-101725801D01*
X195625873Y-101725801D01*
X195728608Y-101310421D01*
X195816485Y-100860455D01*
X195870398Y-100458580D01*
X195886865Y-100124295D01*
X195862407Y-99877099D01*
X195827006Y-99779345D01*
X195770113Y-99701691D01*
X195734732Y-99735445D01*
X195734732Y-99735445D01*
G37*
X195734732Y-99735445D02*
X195728482Y-99753500D01*
X195386039Y-100640289D01*
X194923865Y-101542669D01*
X194468246Y-102273672D01*
X194368557Y-102453915D01*
X194348409Y-102561463D01*
X194397885Y-102583151D01*
X194507064Y-102505820D01*
X194582018Y-102424632D01*
X194723284Y-102280731D01*
X194820177Y-102231791D01*
X194860938Y-102283172D01*
X194861500Y-102297247D01*
X194823739Y-102337235D01*
X194804654Y-102329362D01*
X194737285Y-102346107D01*
X194711769Y-102388146D01*
X194731113Y-102491199D01*
X194797326Y-102547138D01*
X194907973Y-102573565D01*
X195016421Y-102505944D01*
X195048961Y-102472633D01*
X195137981Y-102398450D01*
X195178732Y-102406657D01*
X195179000Y-102411412D01*
X195137377Y-102506343D01*
X195035975Y-102632567D01*
X195024088Y-102644684D01*
X194916845Y-102786057D01*
X194895427Y-102942643D01*
X194905397Y-103022798D01*
X194952573Y-103189504D01*
X195020125Y-103232025D01*
X195108428Y-103150101D01*
X195217861Y-102943470D01*
X195296002Y-102753875D01*
X195464886Y-102276630D01*
X195469321Y-102261750D01*
X195242500Y-102261750D01*
X195210750Y-102293500D01*
X195179000Y-102261750D01*
X195210750Y-102230000D01*
X195242500Y-102261750D01*
X195469321Y-102261750D01*
X195610248Y-101788979D01*
X195625873Y-101725801D01*
X195298033Y-101725801D01*
X195297507Y-101785500D01*
X195293891Y-101981300D01*
X195285896Y-102060371D01*
X195267556Y-102032971D01*
X195232902Y-101909361D01*
X195230566Y-101900585D01*
X195201181Y-101669637D01*
X195235198Y-101551335D01*
X195273178Y-101510443D01*
X195292848Y-101563807D01*
X195298033Y-101725801D01*
X195625873Y-101725801D01*
X195728608Y-101310421D01*
X195816485Y-100860455D01*
X195870398Y-100458580D01*
X195886865Y-100124295D01*
X195862407Y-99877099D01*
X195827006Y-99779345D01*
X195770113Y-99701691D01*
X195734732Y-99735445D01*
G36*
X189060165Y-101201511D02*
X188932413Y-101282424D01*
X188774926Y-101432345D01*
X188672009Y-101608103D01*
X188603220Y-101850800D01*
X188577430Y-101996097D01*
X188568185Y-102338457D01*
X188645157Y-102628401D01*
X188792561Y-102852593D01*
X188994610Y-102997697D01*
X189235519Y-103050378D01*
X189499502Y-102997298D01*
X189660060Y-102910719D01*
X189895389Y-102685540D01*
X190017091Y-102405565D01*
X190024564Y-102073912D01*
X189917205Y-101693700D01*
X189901986Y-101657431D01*
X189735747Y-101379575D01*
X189529869Y-101207039D01*
X189299595Y-101145720D01*
X189060165Y-101201511D01*
X189060165Y-101201511D01*
G37*
X189060165Y-101201511D02*
X188932413Y-101282424D01*
X188774926Y-101432345D01*
X188672009Y-101608103D01*
X188603220Y-101850800D01*
X188577430Y-101996097D01*
X188568185Y-102338457D01*
X188645157Y-102628401D01*
X188792561Y-102852593D01*
X188994610Y-102997697D01*
X189235519Y-103050378D01*
X189499502Y-102997298D01*
X189660060Y-102910719D01*
X189895389Y-102685540D01*
X190017091Y-102405565D01*
X190024564Y-102073912D01*
X189917205Y-101693700D01*
X189901986Y-101657431D01*
X189735747Y-101379575D01*
X189529869Y-101207039D01*
X189299595Y-101145720D01*
X189060165Y-101201511D01*
G36*
X192824268Y-101028490D02*
X192579099Y-101207227D01*
X192358287Y-101461759D01*
X192180328Y-101776310D01*
X192098625Y-101997916D01*
X192026787Y-102283984D01*
X192014286Y-102490081D01*
X192064979Y-102650477D01*
X192182722Y-102799443D01*
X192189616Y-102806384D01*
X192328643Y-102922932D01*
X192475391Y-102977796D01*
X192687533Y-102991981D01*
X192699287Y-102992000D01*
X192892307Y-102983325D01*
X193030629Y-102942062D01*
X193164528Y-102845352D01*
X193292851Y-102722125D01*
X193507260Y-102445159D01*
X193673097Y-102111303D01*
X193768048Y-101771409D01*
X193782000Y-101607512D01*
X193730492Y-101400563D01*
X193599712Y-101188626D01*
X193425281Y-101020834D01*
X193313692Y-100961509D01*
X193075298Y-100941325D01*
X192824268Y-101028490D01*
X192824268Y-101028490D01*
G37*
X192824268Y-101028490D02*
X192579099Y-101207227D01*
X192358287Y-101461759D01*
X192180328Y-101776310D01*
X192098625Y-101997916D01*
X192026787Y-102283984D01*
X192014286Y-102490081D01*
X192064979Y-102650477D01*
X192182722Y-102799443D01*
X192189616Y-102806384D01*
X192328643Y-102922932D01*
X192475391Y-102977796D01*
X192687533Y-102991981D01*
X192699287Y-102992000D01*
X192892307Y-102983325D01*
X193030629Y-102942062D01*
X193164528Y-102845352D01*
X193292851Y-102722125D01*
X193507260Y-102445159D01*
X193673097Y-102111303D01*
X193768048Y-101771409D01*
X193782000Y-101607512D01*
X193730492Y-101400563D01*
X193599712Y-101188626D01*
X193425281Y-101020834D01*
X193313692Y-100961509D01*
X193075298Y-100941325D01*
X192824268Y-101028490D01*
G36*
X190967851Y-100762288D02*
X190764029Y-100905858D01*
X190596634Y-101128320D01*
X190479341Y-101417980D01*
X190425829Y-101763142D01*
X190428776Y-101975733D01*
X190467421Y-102256005D01*
X190548895Y-102435520D01*
X190695032Y-102538773D01*
X190927666Y-102590260D01*
X190981682Y-102596043D01*
X191181768Y-102607112D01*
X191314249Y-102578302D01*
X191436964Y-102489564D01*
X191519628Y-102409572D01*
X191735986Y-102104679D01*
X191785070Y-101944250D01*
X190734000Y-101944250D01*
X190702250Y-101976000D01*
X190670500Y-101944250D01*
X190702250Y-101912500D01*
X190734000Y-101944250D01*
X191785070Y-101944250D01*
X191853277Y-101721323D01*
X191876646Y-101414025D01*
X191858943Y-101216373D01*
X191786927Y-101064007D01*
X191661100Y-100921900D01*
X191430063Y-100758613D01*
X191194421Y-100709308D01*
X190967851Y-100762288D01*
X190967851Y-100762288D01*
G37*
X190967851Y-100762288D02*
X190764029Y-100905858D01*
X190596634Y-101128320D01*
X190479341Y-101417980D01*
X190425829Y-101763142D01*
X190428776Y-101975733D01*
X190467421Y-102256005D01*
X190548895Y-102435520D01*
X190695032Y-102538773D01*
X190927666Y-102590260D01*
X190981682Y-102596043D01*
X191181768Y-102607112D01*
X191314249Y-102578302D01*
X191436964Y-102489564D01*
X191519628Y-102409572D01*
X191735986Y-102104679D01*
X191785070Y-101944250D01*
X190734000Y-101944250D01*
X190702250Y-101976000D01*
X190670500Y-101944250D01*
X190702250Y-101912500D01*
X190734000Y-101944250D01*
X191785070Y-101944250D01*
X191853277Y-101721323D01*
X191876646Y-101414025D01*
X191858943Y-101216373D01*
X191786927Y-101064007D01*
X191661100Y-100921900D01*
X191430063Y-100758613D01*
X191194421Y-100709308D01*
X190967851Y-100762288D01*
G36*
X194697259Y-98388250D02*
X194546461Y-98570584D01*
X194362918Y-98807375D01*
X194185622Y-99048279D01*
X194180839Y-99055000D01*
X193998233Y-99308720D01*
X193780414Y-99606823D01*
X193568932Y-99892515D01*
X193530428Y-99944000D01*
X193357730Y-100177516D01*
X193201651Y-100394054D01*
X193087187Y-100558731D01*
X193058034Y-100603245D01*
X192942604Y-100786241D01*
X193187677Y-100743219D01*
X193391092Y-100669876D01*
X193571052Y-100542114D01*
X193690582Y-100391519D01*
X193718500Y-100289709D01*
X193759847Y-100207599D01*
X193792875Y-100198000D01*
X193894156Y-100158720D01*
X193983375Y-100092908D01*
X194068420Y-100032254D01*
X194095243Y-100067183D01*
X194069299Y-100208171D01*
X194060626Y-100241231D01*
X194004093Y-100337950D01*
X193948557Y-100350958D01*
X193901137Y-100377279D01*
X193889371Y-100513232D01*
X193893639Y-100593477D01*
X193903109Y-100756478D01*
X193892910Y-100807933D01*
X193854648Y-100762793D01*
X193825728Y-100714423D01*
X193758979Y-100616361D01*
X193718895Y-100623424D01*
X193695348Y-100674744D01*
X193689015Y-100786048D01*
X193714029Y-100961695D01*
X193760222Y-101162837D01*
X193817424Y-101350625D01*
X193875464Y-101486210D01*
X193919625Y-101531500D01*
X193976067Y-101478304D01*
X194054652Y-101343150D01*
X194096333Y-101253138D01*
X194242553Y-100885643D01*
X194390441Y-100467219D01*
X194533006Y-100022756D01*
X194663256Y-99577143D01*
X194774200Y-99155271D01*
X194858847Y-98782029D01*
X194910205Y-98482306D01*
X194922616Y-98311552D01*
X194920232Y-98134250D01*
X194697259Y-98388250D01*
X194697259Y-98388250D01*
G37*
X194697259Y-98388250D02*
X194546461Y-98570584D01*
X194362918Y-98807375D01*
X194185622Y-99048279D01*
X194180839Y-99055000D01*
X193998233Y-99308720D01*
X193780414Y-99606823D01*
X193568932Y-99892515D01*
X193530428Y-99944000D01*
X193357730Y-100177516D01*
X193201651Y-100394054D01*
X193087187Y-100558731D01*
X193058034Y-100603245D01*
X192942604Y-100786241D01*
X193187677Y-100743219D01*
X193391092Y-100669876D01*
X193571052Y-100542114D01*
X193690582Y-100391519D01*
X193718500Y-100289709D01*
X193759847Y-100207599D01*
X193792875Y-100198000D01*
X193894156Y-100158720D01*
X193983375Y-100092908D01*
X194068420Y-100032254D01*
X194095243Y-100067183D01*
X194069299Y-100208171D01*
X194060626Y-100241231D01*
X194004093Y-100337950D01*
X193948557Y-100350958D01*
X193901137Y-100377279D01*
X193889371Y-100513232D01*
X193893639Y-100593477D01*
X193903109Y-100756478D01*
X193892910Y-100807933D01*
X193854648Y-100762793D01*
X193825728Y-100714423D01*
X193758979Y-100616361D01*
X193718895Y-100623424D01*
X193695348Y-100674744D01*
X193689015Y-100786048D01*
X193714029Y-100961695D01*
X193760222Y-101162837D01*
X193817424Y-101350625D01*
X193875464Y-101486210D01*
X193919625Y-101531500D01*
X193976067Y-101478304D01*
X194054652Y-101343150D01*
X194096333Y-101253138D01*
X194242553Y-100885643D01*
X194390441Y-100467219D01*
X194533006Y-100022756D01*
X194663256Y-99577143D01*
X194774200Y-99155271D01*
X194858847Y-98782029D01*
X194910205Y-98482306D01*
X194922616Y-98311552D01*
X194920232Y-98134250D01*
X194697259Y-98388250D01*
G36*
X190832438Y-98512458D02*
X190697790Y-98576172D01*
X190630719Y-98615463D01*
X190208565Y-98917501D01*
X189810132Y-99279318D01*
X189456606Y-99676085D01*
X189169174Y-100082972D01*
X188969025Y-100475147D01*
X188918074Y-100622598D01*
X188860866Y-100865668D01*
X188856389Y-101001572D01*
X188897902Y-101025990D01*
X188978662Y-100934601D01*
X189087986Y-100731506D01*
X189178643Y-100547155D01*
X189226586Y-100474092D01*
X189237036Y-100506000D01*
X189229719Y-100560021D01*
X189223544Y-100705563D01*
X189279297Y-100824788D01*
X189407335Y-100956896D01*
X189590152Y-101101510D01*
X189713199Y-101141444D01*
X189786697Y-101077992D01*
X189808116Y-101007625D01*
X189935165Y-100442865D01*
X190065165Y-99994773D01*
X189667637Y-99994773D01*
X189597266Y-100129973D01*
X189575709Y-100163697D01*
X189483811Y-100284826D01*
X189421819Y-100330428D01*
X189410952Y-100322052D01*
X189348721Y-100290760D01*
X189315702Y-100302675D01*
X189308326Y-100288439D01*
X189373982Y-100204477D01*
X189428256Y-100144321D01*
X189575651Y-100000964D01*
X189657938Y-99951443D01*
X189667637Y-99994773D01*
X190065165Y-99994773D01*
X190069785Y-99978852D01*
X190222535Y-99589364D01*
X190403971Y-99248183D01*
X190624651Y-98929090D01*
X190666723Y-98875288D01*
X190796453Y-98701603D01*
X190880825Y-98568267D01*
X190902064Y-98503464D01*
X190901588Y-98502920D01*
X190832438Y-98512458D01*
X190832438Y-98512458D01*
G37*
X190832438Y-98512458D02*
X190697790Y-98576172D01*
X190630719Y-98615463D01*
X190208565Y-98917501D01*
X189810132Y-99279318D01*
X189456606Y-99676085D01*
X189169174Y-100082972D01*
X188969025Y-100475147D01*
X188918074Y-100622598D01*
X188860866Y-100865668D01*
X188856389Y-101001572D01*
X188897902Y-101025990D01*
X188978662Y-100934601D01*
X189087986Y-100731506D01*
X189178643Y-100547155D01*
X189226586Y-100474092D01*
X189237036Y-100506000D01*
X189229719Y-100560021D01*
X189223544Y-100705563D01*
X189279297Y-100824788D01*
X189407335Y-100956896D01*
X189590152Y-101101510D01*
X189713199Y-101141444D01*
X189786697Y-101077992D01*
X189808116Y-101007625D01*
X189935165Y-100442865D01*
X190065165Y-99994773D01*
X189667637Y-99994773D01*
X189597266Y-100129973D01*
X189575709Y-100163697D01*
X189483811Y-100284826D01*
X189421819Y-100330428D01*
X189410952Y-100322052D01*
X189348721Y-100290760D01*
X189315702Y-100302675D01*
X189308326Y-100288439D01*
X189373982Y-100204477D01*
X189428256Y-100144321D01*
X189575651Y-100000964D01*
X189657938Y-99951443D01*
X189667637Y-99994773D01*
X190065165Y-99994773D01*
X190069785Y-99978852D01*
X190222535Y-99589364D01*
X190403971Y-99248183D01*
X190624651Y-98929090D01*
X190666723Y-98875288D01*
X190796453Y-98701603D01*
X190880825Y-98568267D01*
X190902064Y-98503464D01*
X190901588Y-98502920D01*
X190832438Y-98512458D01*
G36*
X193371111Y-97880325D02*
X193224898Y-97957232D01*
X193025242Y-98082645D01*
X192794968Y-98241099D01*
X192556898Y-98417128D01*
X192333856Y-98595265D01*
X192215318Y-98698006D01*
X191915196Y-99005071D01*
X191598510Y-99391581D01*
X191295012Y-99818729D01*
X191053220Y-100213875D01*
X190848877Y-100579000D01*
X191084659Y-100579000D01*
X191253656Y-100557908D01*
X191403879Y-100478565D01*
X191566971Y-100332470D01*
X191718124Y-100163637D01*
X191799850Y-100035133D01*
X191805514Y-99962985D01*
X191728484Y-99963222D01*
X191718250Y-99966963D01*
X191641907Y-99957253D01*
X191625478Y-99867842D01*
X191668608Y-99730816D01*
X191721851Y-99640629D01*
X191824588Y-99540369D01*
X191929454Y-99499299D01*
X191996614Y-99528378D01*
X192004000Y-99563000D01*
X191952568Y-99619335D01*
X191908750Y-99626500D01*
X191828520Y-99643026D01*
X191827508Y-99711984D01*
X191880869Y-99824227D01*
X191915119Y-99966827D01*
X191896924Y-100187225D01*
X191876455Y-100295878D01*
X191840311Y-100553714D01*
X191845597Y-100754894D01*
X191889858Y-100874397D01*
X191935355Y-100896500D01*
X191975196Y-100840026D01*
X192033005Y-100691497D01*
X192096701Y-100482250D01*
X192100601Y-100467875D01*
X192191113Y-100195902D01*
X192329425Y-99857585D01*
X192500645Y-99482712D01*
X192689877Y-99101070D01*
X192882229Y-98742448D01*
X193062806Y-98436634D01*
X193216715Y-98213417D01*
X193245099Y-98178838D01*
X193365851Y-98024943D01*
X193435037Y-97909873D01*
X193441058Y-97867391D01*
X193371111Y-97880325D01*
X193371111Y-97880325D01*
G37*
X193371111Y-97880325D02*
X193224898Y-97957232D01*
X193025242Y-98082645D01*
X192794968Y-98241099D01*
X192556898Y-98417128D01*
X192333856Y-98595265D01*
X192215318Y-98698006D01*
X191915196Y-99005071D01*
X191598510Y-99391581D01*
X191295012Y-99818729D01*
X191053220Y-100213875D01*
X190848877Y-100579000D01*
X191084659Y-100579000D01*
X191253656Y-100557908D01*
X191403879Y-100478565D01*
X191566971Y-100332470D01*
X191718124Y-100163637D01*
X191799850Y-100035133D01*
X191805514Y-99962985D01*
X191728484Y-99963222D01*
X191718250Y-99966963D01*
X191641907Y-99957253D01*
X191625478Y-99867842D01*
X191668608Y-99730816D01*
X191721851Y-99640629D01*
X191824588Y-99540369D01*
X191929454Y-99499299D01*
X191996614Y-99528378D01*
X192004000Y-99563000D01*
X191952568Y-99619335D01*
X191908750Y-99626500D01*
X191828520Y-99643026D01*
X191827508Y-99711984D01*
X191880869Y-99824227D01*
X191915119Y-99966827D01*
X191896924Y-100187225D01*
X191876455Y-100295878D01*
X191840311Y-100553714D01*
X191845597Y-100754894D01*
X191889858Y-100874397D01*
X191935355Y-100896500D01*
X191975196Y-100840026D01*
X192033005Y-100691497D01*
X192096701Y-100482250D01*
X192100601Y-100467875D01*
X192191113Y-100195902D01*
X192329425Y-99857585D01*
X192500645Y-99482712D01*
X192689877Y-99101070D01*
X192882229Y-98742448D01*
X193062806Y-98436634D01*
X193216715Y-98213417D01*
X193245099Y-98178838D01*
X193365851Y-98024943D01*
X193435037Y-97909873D01*
X193441058Y-97867391D01*
X193371111Y-97880325D01*
G36*
X197528500Y-97689750D02*
X197560250Y-97721500D01*
X197592000Y-97689750D01*
X197560250Y-97658000D01*
X197528500Y-97689750D01*
X197528500Y-97689750D01*
G37*
X197528500Y-97689750D02*
X197560250Y-97721500D01*
X197592000Y-97689750D01*
X197560250Y-97658000D01*
X197528500Y-97689750D01*
G36*
X185908000Y-97689750D02*
X185939750Y-97721500D01*
X185971500Y-97689750D01*
X185939750Y-97658000D01*
X185908000Y-97689750D01*
X185908000Y-97689750D01*
G37*
X185908000Y-97689750D02*
X185939750Y-97721500D01*
X185971500Y-97689750D01*
X185939750Y-97658000D01*
X185908000Y-97689750D01*
G36*
X190732598Y-103705967D02*
X190709675Y-103778777D01*
X190642762Y-103919970D01*
X190522316Y-104087154D01*
X190480651Y-104134303D01*
X190363277Y-104277663D01*
X190295846Y-104394324D01*
X190289500Y-104422420D01*
X190234614Y-104493351D01*
X190102581Y-104546963D01*
X190101982Y-104547095D01*
X189940469Y-104605337D01*
X189782682Y-104696665D01*
X189663235Y-104796033D01*
X189616741Y-104878391D01*
X189621422Y-104894850D01*
X189694951Y-104907938D01*
X189839668Y-104877970D01*
X189891902Y-104860803D01*
X190077245Y-104804380D01*
X190229052Y-104774175D01*
X190249651Y-104772787D01*
X190329812Y-104786178D01*
X190300679Y-104851496D01*
X190289500Y-104865250D01*
X190248600Y-104938235D01*
X190314418Y-104959977D01*
X190345225Y-104960500D01*
X190452473Y-104990687D01*
X190480000Y-105036700D01*
X190498743Y-105080878D01*
X190556200Y-105036700D01*
X190662975Y-104965298D01*
X190721861Y-105011488D01*
X190734000Y-105113605D01*
X190683861Y-105253620D01*
X190561072Y-105408072D01*
X190407083Y-105535618D01*
X190263338Y-105594915D01*
X190250886Y-105595500D01*
X190149783Y-105544530D01*
X190110454Y-105423312D01*
X190147173Y-105279376D01*
X190153017Y-105269588D01*
X190188504Y-105172196D01*
X190145059Y-105141445D01*
X190047150Y-105170236D01*
X189919244Y-105251472D01*
X189788079Y-105375459D01*
X189633061Y-105596265D01*
X189595970Y-105777499D01*
X189677299Y-105927956D01*
X189824951Y-106030493D01*
X190001849Y-106088996D01*
X190126576Y-106103500D01*
X190249336Y-106128013D01*
X190288375Y-106226638D01*
X190289500Y-106265136D01*
X190347420Y-106465456D01*
X190499859Y-106627298D01*
X190714840Y-106723459D01*
X190845977Y-106738500D01*
X191040566Y-106762351D01*
X191197941Y-106820854D01*
X191213989Y-106831730D01*
X191287623Y-106895168D01*
X191265190Y-106921017D01*
X191131248Y-106926976D01*
X191130875Y-106926980D01*
X190973649Y-106945341D01*
X190931524Y-107005739D01*
X190995653Y-107122538D01*
X191003875Y-107133175D01*
X191150724Y-107230316D01*
X191372832Y-107274457D01*
X191626887Y-107258085D01*
X191670234Y-107248720D01*
X191915219Y-107151129D01*
X192047639Y-107012883D01*
X192069562Y-106847989D01*
X191983058Y-106670455D01*
X191790194Y-106494290D01*
X191538004Y-106353273D01*
X191388552Y-106281181D01*
X191347072Y-106244846D01*
X191403724Y-106232596D01*
X191435675Y-106231894D01*
X191589937Y-106202276D01*
X191674389Y-106153711D01*
X191748069Y-106119616D01*
X191828528Y-106188511D01*
X191849440Y-106217211D01*
X191954365Y-106334258D01*
X192015800Y-106347454D01*
X192014022Y-106264257D01*
X191973881Y-106170153D01*
X191907780Y-105975742D01*
X191891760Y-105859746D01*
X191556541Y-105859746D01*
X191505397Y-105955294D01*
X191432500Y-105994899D01*
X191326359Y-105989530D01*
X191305500Y-105935057D01*
X191270410Y-105875958D01*
X191236021Y-105884945D01*
X191193339Y-105973154D01*
X191195946Y-106081710D01*
X191196154Y-106194627D01*
X191154301Y-106212167D01*
X191088170Y-106137490D01*
X191063762Y-106057032D01*
X191100282Y-105923078D01*
X191220105Y-105801841D01*
X191381736Y-105729579D01*
X191446630Y-105722500D01*
X191537828Y-105765257D01*
X191556541Y-105859746D01*
X191891760Y-105859746D01*
X191877243Y-105754644D01*
X191877000Y-105736722D01*
X191824855Y-105490052D01*
X191682640Y-105310290D01*
X191471689Y-105220478D01*
X191393534Y-105214500D01*
X191266782Y-105203704D01*
X191221775Y-105145531D01*
X191228892Y-105001304D01*
X191229073Y-104999750D01*
X191227538Y-104842770D01*
X191190343Y-104746384D01*
X191184572Y-104742002D01*
X191118319Y-104659607D01*
X191151738Y-104592209D01*
X191210250Y-104579500D01*
X191293543Y-104630622D01*
X191305500Y-104678497D01*
X191336285Y-104744223D01*
X191369000Y-104738250D01*
X191429642Y-104638701D01*
X191409902Y-104506388D01*
X191320006Y-104397541D01*
X191305500Y-104388999D01*
X191139344Y-104356470D01*
X191055675Y-104386765D01*
X190951657Y-104435649D01*
X190893387Y-104427641D01*
X190867632Y-104341567D01*
X190861160Y-104156254D01*
X190861000Y-104075247D01*
X190849542Y-103849986D01*
X190819744Y-103704383D01*
X190778474Y-103651893D01*
X190732598Y-103705967D01*
X190732598Y-103705967D01*
G37*
X190732598Y-103705967D02*
X190709675Y-103778777D01*
X190642762Y-103919970D01*
X190522316Y-104087154D01*
X190480651Y-104134303D01*
X190363277Y-104277663D01*
X190295846Y-104394324D01*
X190289500Y-104422420D01*
X190234614Y-104493351D01*
X190102581Y-104546963D01*
X190101982Y-104547095D01*
X189940469Y-104605337D01*
X189782682Y-104696665D01*
X189663235Y-104796033D01*
X189616741Y-104878391D01*
X189621422Y-104894850D01*
X189694951Y-104907938D01*
X189839668Y-104877970D01*
X189891902Y-104860803D01*
X190077245Y-104804380D01*
X190229052Y-104774175D01*
X190249651Y-104772787D01*
X190329812Y-104786178D01*
X190300679Y-104851496D01*
X190289500Y-104865250D01*
X190248600Y-104938235D01*
X190314418Y-104959977D01*
X190345225Y-104960500D01*
X190452473Y-104990687D01*
X190480000Y-105036700D01*
X190498743Y-105080878D01*
X190556200Y-105036700D01*
X190662975Y-104965298D01*
X190721861Y-105011488D01*
X190734000Y-105113605D01*
X190683861Y-105253620D01*
X190561072Y-105408072D01*
X190407083Y-105535618D01*
X190263338Y-105594915D01*
X190250886Y-105595500D01*
X190149783Y-105544530D01*
X190110454Y-105423312D01*
X190147173Y-105279376D01*
X190153017Y-105269588D01*
X190188504Y-105172196D01*
X190145059Y-105141445D01*
X190047150Y-105170236D01*
X189919244Y-105251472D01*
X189788079Y-105375459D01*
X189633061Y-105596265D01*
X189595970Y-105777499D01*
X189677299Y-105927956D01*
X189824951Y-106030493D01*
X190001849Y-106088996D01*
X190126576Y-106103500D01*
X190249336Y-106128013D01*
X190288375Y-106226638D01*
X190289500Y-106265136D01*
X190347420Y-106465456D01*
X190499859Y-106627298D01*
X190714840Y-106723459D01*
X190845977Y-106738500D01*
X191040566Y-106762351D01*
X191197941Y-106820854D01*
X191213989Y-106831730D01*
X191287623Y-106895168D01*
X191265190Y-106921017D01*
X191131248Y-106926976D01*
X191130875Y-106926980D01*
X190973649Y-106945341D01*
X190931524Y-107005739D01*
X190995653Y-107122538D01*
X191003875Y-107133175D01*
X191150724Y-107230316D01*
X191372832Y-107274457D01*
X191626887Y-107258085D01*
X191670234Y-107248720D01*
X191915219Y-107151129D01*
X192047639Y-107012883D01*
X192069562Y-106847989D01*
X191983058Y-106670455D01*
X191790194Y-106494290D01*
X191538004Y-106353273D01*
X191388552Y-106281181D01*
X191347072Y-106244846D01*
X191403724Y-106232596D01*
X191435675Y-106231894D01*
X191589937Y-106202276D01*
X191674389Y-106153711D01*
X191748069Y-106119616D01*
X191828528Y-106188511D01*
X191849440Y-106217211D01*
X191954365Y-106334258D01*
X192015800Y-106347454D01*
X192014022Y-106264257D01*
X191973881Y-106170153D01*
X191907780Y-105975742D01*
X191891760Y-105859746D01*
X191556541Y-105859746D01*
X191505397Y-105955294D01*
X191432500Y-105994899D01*
X191326359Y-105989530D01*
X191305500Y-105935057D01*
X191270410Y-105875958D01*
X191236021Y-105884945D01*
X191193339Y-105973154D01*
X191195946Y-106081710D01*
X191196154Y-106194627D01*
X191154301Y-106212167D01*
X191088170Y-106137490D01*
X191063762Y-106057032D01*
X191100282Y-105923078D01*
X191220105Y-105801841D01*
X191381736Y-105729579D01*
X191446630Y-105722500D01*
X191537828Y-105765257D01*
X191556541Y-105859746D01*
X191891760Y-105859746D01*
X191877243Y-105754644D01*
X191877000Y-105736722D01*
X191824855Y-105490052D01*
X191682640Y-105310290D01*
X191471689Y-105220478D01*
X191393534Y-105214500D01*
X191266782Y-105203704D01*
X191221775Y-105145531D01*
X191228892Y-105001304D01*
X191229073Y-104999750D01*
X191227538Y-104842770D01*
X191190343Y-104746384D01*
X191184572Y-104742002D01*
X191118319Y-104659607D01*
X191151738Y-104592209D01*
X191210250Y-104579500D01*
X191293543Y-104630622D01*
X191305500Y-104678497D01*
X191336285Y-104744223D01*
X191369000Y-104738250D01*
X191429642Y-104638701D01*
X191409902Y-104506388D01*
X191320006Y-104397541D01*
X191305500Y-104388999D01*
X191139344Y-104356470D01*
X191055675Y-104386765D01*
X190951657Y-104435649D01*
X190893387Y-104427641D01*
X190867632Y-104341567D01*
X190861160Y-104156254D01*
X190861000Y-104075247D01*
X190849542Y-103849986D01*
X190819744Y-103704383D01*
X190778474Y-103651893D01*
X190732598Y-103705967D01*
G36*
X190734729Y-106914629D02*
X190734000Y-106929000D01*
X190782816Y-106990059D01*
X190801248Y-106992500D01*
X190839173Y-106953597D01*
X190829250Y-106929000D01*
X190772189Y-106868422D01*
X190762003Y-106865500D01*
X190734729Y-106914629D01*
X190734729Y-106914629D01*
G37*
X190734729Y-106914629D02*
X190734000Y-106929000D01*
X190782816Y-106990059D01*
X190801248Y-106992500D01*
X190839173Y-106953597D01*
X190829250Y-106929000D01*
X190772189Y-106868422D01*
X190762003Y-106865500D01*
X190734729Y-106914629D01*
G36*
X190480000Y-106897250D02*
X190511750Y-106929000D01*
X190543500Y-106897250D01*
X190511750Y-106865500D01*
X190480000Y-106897250D01*
X190480000Y-106897250D01*
G37*
X190480000Y-106897250D02*
X190511750Y-106929000D01*
X190543500Y-106897250D01*
X190511750Y-106865500D01*
X190480000Y-106897250D01*
G36*
X190416500Y-105182750D02*
X190355423Y-105263932D01*
X190353000Y-105281747D01*
X190401435Y-105339789D01*
X190416500Y-105341500D01*
X190472229Y-105289813D01*
X190480000Y-105242502D01*
X190449216Y-105176776D01*
X190416500Y-105182750D01*
X190416500Y-105182750D01*
G37*
X190416500Y-105182750D02*
X190355423Y-105263932D01*
X190353000Y-105281747D01*
X190401435Y-105339789D01*
X190416500Y-105341500D01*
X190472229Y-105289813D01*
X190480000Y-105242502D01*
X190449216Y-105176776D01*
X190416500Y-105182750D01*
G36*
X192004000Y-104293750D02*
X192035750Y-104325500D01*
X192067500Y-104293750D01*
X192035750Y-104262000D01*
X192004000Y-104293750D01*
X192004000Y-104293750D01*
G37*
X192004000Y-104293750D02*
X192035750Y-104325500D01*
X192067500Y-104293750D01*
X192035750Y-104262000D01*
X192004000Y-104293750D01*
G36*
X192131000Y-104103250D02*
X192162750Y-104135000D01*
X192194500Y-104103250D01*
X192162750Y-104071500D01*
X192131000Y-104103250D01*
X192131000Y-104103250D01*
G37*
X192131000Y-104103250D02*
X192162750Y-104135000D01*
X192194500Y-104103250D01*
X192162750Y-104071500D01*
X192131000Y-104103250D01*
G36*
X192131000Y-103912750D02*
X192162750Y-103944500D01*
X192194500Y-103912750D01*
X192162750Y-103881000D01*
X192131000Y-103912750D01*
X192131000Y-103912750D01*
G37*
X192131000Y-103912750D02*
X192162750Y-103944500D01*
X192194500Y-103912750D01*
X192162750Y-103881000D01*
X192131000Y-103912750D01*
D12*
X197612261Y-86442254D02*
X197136070Y-86108920D01*
X197612261Y-85870825D02*
X196612261Y-85870825D01*
X196612261Y-86251778D01*
X196659880Y-86347016D01*
X196707499Y-86394635D01*
X196802737Y-86442254D01*
X196945594Y-86442254D01*
X197040832Y-86394635D01*
X197088451Y-86347016D01*
X197136070Y-86251778D01*
X197136070Y-85870825D01*
X197612261Y-87394635D02*
X197612261Y-86823206D01*
X197612261Y-87108920D02*
X196612261Y-87108920D01*
X196755118Y-87013682D01*
X196850356Y-86918444D01*
X196897975Y-86823206D01*
X184872381Y-85344095D02*
X185681905Y-85344095D01*
X185777143Y-85391714D01*
X185824762Y-85439333D01*
X185872381Y-85534571D01*
X185872381Y-85725048D01*
X185824762Y-85820286D01*
X185777143Y-85867905D01*
X185681905Y-85915524D01*
X184872381Y-85915524D01*
X184967619Y-86344095D02*
X184920000Y-86391714D01*
X184872381Y-86486952D01*
X184872381Y-86725048D01*
X184920000Y-86820286D01*
X184967619Y-86867905D01*
X185062857Y-86915524D01*
X185158095Y-86915524D01*
X185300952Y-86867905D01*
X185872381Y-86296476D01*
X185872381Y-86915524D01*
X177297381Y-83949714D02*
X176297381Y-83949714D01*
X177297381Y-84521143D01*
X176297381Y-84521143D01*
X177297381Y-85140190D02*
X177249762Y-85044952D01*
X177202143Y-84997333D01*
X177106905Y-84949714D01*
X176821190Y-84949714D01*
X176725952Y-84997333D01*
X176678333Y-85044952D01*
X176630714Y-85140190D01*
X176630714Y-85283048D01*
X176678333Y-85378286D01*
X176725952Y-85425905D01*
X176821190Y-85473524D01*
X177106905Y-85473524D01*
X177202143Y-85425905D01*
X177249762Y-85378286D01*
X177297381Y-85283048D01*
X177297381Y-85140190D01*
X177202143Y-87235429D02*
X177249762Y-87187810D01*
X177297381Y-87044953D01*
X177297381Y-86949715D01*
X177249762Y-86806857D01*
X177154524Y-86711619D01*
X177059286Y-86664000D01*
X176868810Y-86616381D01*
X176725952Y-86616381D01*
X176535476Y-86664000D01*
X176440238Y-86711619D01*
X176345000Y-86806857D01*
X176297381Y-86949715D01*
X176297381Y-87044953D01*
X176345000Y-87187810D01*
X176392619Y-87235429D01*
X177297381Y-87806857D02*
X177249762Y-87711619D01*
X177202143Y-87664000D01*
X177106905Y-87616381D01*
X176821190Y-87616381D01*
X176725952Y-87664000D01*
X176678333Y-87711619D01*
X176630714Y-87806857D01*
X176630714Y-87949715D01*
X176678333Y-88044953D01*
X176725952Y-88092572D01*
X176821190Y-88140191D01*
X177106905Y-88140191D01*
X177202143Y-88092572D01*
X177249762Y-88044953D01*
X177297381Y-87949715D01*
X177297381Y-87806857D01*
X176630714Y-88568762D02*
X177630714Y-88568762D01*
X176678333Y-88568762D02*
X176630714Y-88664000D01*
X176630714Y-88854477D01*
X176678333Y-88949715D01*
X176725952Y-88997334D01*
X176821190Y-89044953D01*
X177106905Y-89044953D01*
X177202143Y-88997334D01*
X177249762Y-88949715D01*
X177297381Y-88854477D01*
X177297381Y-88664000D01*
X177249762Y-88568762D01*
X176630714Y-89473524D02*
X177630714Y-89473524D01*
X176678333Y-89473524D02*
X176630714Y-89568762D01*
X176630714Y-89759239D01*
X176678333Y-89854477D01*
X176725952Y-89902096D01*
X176821190Y-89949715D01*
X177106905Y-89949715D01*
X177202143Y-89902096D01*
X177249762Y-89854477D01*
X177297381Y-89759239D01*
X177297381Y-89568762D01*
X177249762Y-89473524D01*
X177249762Y-90759239D02*
X177297381Y-90664001D01*
X177297381Y-90473524D01*
X177249762Y-90378286D01*
X177154524Y-90330667D01*
X176773571Y-90330667D01*
X176678333Y-90378286D01*
X176630714Y-90473524D01*
X176630714Y-90664001D01*
X176678333Y-90759239D01*
X176773571Y-90806858D01*
X176868810Y-90806858D01*
X176964048Y-90330667D01*
X177297381Y-91235429D02*
X176630714Y-91235429D01*
X176821190Y-91235429D02*
X176725952Y-91283048D01*
X176678333Y-91330667D01*
X176630714Y-91425905D01*
X176630714Y-91521144D01*
M02*
